<?xml version="1.0" standalone="no"?>
<!DOCTYPE svg PUBLIC "-//W3C//DTD SVG 1.1//EN" "http://www.w3.org/Graphics/SVG/1.1/DTD/svg11.dtd" >
<svg>
<metadata>
Created by FontForge 20120731 at Mon Jul  1 05:00:38 2019
 By www
Copyright (c) 2015 Monotype ITC Inc. All rights reserved.
</metadata>
<defs>
<font id="ITCCaslon224W03-Medium" horiz-adv-x="574" >
  <font-face 
    font-family="ITCCaslon224W03-Medium"
    font-weight="500"
    font-stretch="normal"
    units-per-em="1000"
    panose-1="2 3 6 3 7 5 6 2 4 4"
    ascent="800"
    descent="-200"
    x-height="456"
    cap-height="680"
    bbox="-167 -216 1139 920"
    underline-thickness="50"
    underline-position="-75"
    unicode-range="U+000D-FB02"
  />
<missing-glyph horiz-adv-x="500" 
d="M500 700v-700h-500v700h500zM250 395l170 255h-340zM50 95l170 255l-170 255v-510zM450 605l-170 -255l170 -255v510zM250 305l-170 -255h340z" />
    <glyph glyph-name="uniFB01" unicode="fi" 
d="M443 637q0 -24 -14 -45t-45 -21q-17 0 -27.5 5.5t-16.5 14.5t-8.5 20t-2.5 22q0 14 2 27t2 26q0 23 -14.5 32.5t-30.5 9.5q-29 0 -47.5 -14.5t-29.5 -41t-15 -64.5t-4 -85v-69h162q11 0 33 1t44.5 2.5t40 3t20.5 1.5v-395q0 -25 11.5 -33.5t25.5 -11t25.5 -3.5t11.5 -11
q0 -5 -4 -7.5t-20 -2.5q-13 0 -29 0.5t-31 1t-27 0.5h-18l-105 -2q-16 0 -20 2.5t-4 7.5q0 9 11.5 10.5t25.5 4t25.5 11t11.5 32.5v290q0 28 -11 37t-37 9h-142v-336q0 -24 11.5 -32.5t25.5 -11t25.5 -4t11.5 -10.5q0 -5 -4 -7.5t-20 -2.5q-13 0 -29 0.5t-31 1t-27 0.5h-18
l-105 -2q-16 0 -20 2.5t-4 7.5q0 9 11.5 10.5t25.5 4t25.5 11t11.5 32.5v336h-52q16 12 29 28.5t24.5 40t23.5 53.5t27 69q32 84 73 121.5t102 37.5q25 0 49 -7.5t43 -22t30.5 -36t11.5 -49.5z" />
    <glyph glyph-name="uniFB02" unicode="fl" 
d="M492 730v-664q0 -24 11.5 -32.5t25.5 -11t25.5 -4t11.5 -10.5q0 -5 -4 -7.5t-20 -2.5q-13 0 -29.5 0.5t-31.5 0.5t-27 0.5t-17 0.5l-105 -2q-16 0 -20 2.5t-4 7.5q0 9 11.5 10.5t25.5 4t25.5 11t11.5 32.5v504q-53 6 -53 63q0 14 2 27t2 26q0 23 -14.5 32.5t-30.5 9.5
q-29 0 -48 -14.5t-29.5 -41.5t-14.5 -65t-4 -84v-69h113l-22 -52h-91v-336q0 -24 11.5 -32.5t25.5 -11t25.5 -4t11.5 -10.5q0 -5 -4 -7.5t-20 -2.5q-9 0 -24 0.5t-30 0.5t-29 0.5t-22 0.5l-105 -2q-16 0 -20 2.5t-4 7.5q0 9 11.5 10.5t25.5 4t25.5 11.5t11.5 33v335h-52
q17 13 30 30t24.5 40t23.5 53.5t27 69.5q31 79 71 118t103 39q15 0 31.5 -3t32 -9.5t29 -16.5t22.5 -25z" />
    <glyph glyph-name=".notdef" horiz-adv-x="500" 
d="M500 700v-700h-500v700h500zM250 395l170 255h-340zM50 95l170 255l-170 255v-510zM450 605l-170 -255l170 -255v510zM250 305l-170 -255h340z" />
    <glyph glyph-name="glyph1" horiz-adv-x="0" 
 />
    <glyph glyph-name="glyph1" horiz-adv-x="0" 
 />
    <glyph glyph-name="uni000D" unicode="&#xd;" horiz-adv-x="287" 
 />
    <glyph glyph-name="space" unicode=" " horiz-adv-x="287" 
 />
    <glyph glyph-name="exclam" unicode="!" horiz-adv-x="407" 
d="M266 576q0 -24 -2 -44t-5 -41t-8 -44t-11 -52q-14 -65 -18.5 -102t-6.5 -62q-2 -17 -4 -25t-8 -8t-7.5 6.5t-3.5 19.5q-3 24 -5 42.5t-4.5 35t-5 31.5t-5.5 32q-6 32 -12 58t-10.5 50.5t-7 49t-2.5 53.5q0 118 63 118q27 0 45 -25t18 -93zM275 56q0 -30 -21 -51t-51 -21
t-51 21t-21 51t21 51t51 21t51 -21t21 -51z" />
    <glyph glyph-name="quotedbl" unicode="&#x22;" horiz-adv-x="333" 
d="M126 647q0 -34 -9 -140l-9 -99q-2 -17 -8 -23.5t-14 -6.5q-3 0 -10.5 3.5t-11.5 25.5q0 3 -2 19t-4 39t-4 50.5t-4 53t-3 46.5t-1 32q0 19 10 33t30 14t30 -14t10 -33zM287 647q0 -34 -9 -140l-9 -99q-2 -17 -8 -23.5t-14 -6.5q-3 0 -10.5 3.5t-11.5 25.5q-1 3 -2.5 19
t-3.5 39t-4 50.5t-4 53t-3 46.5t-1 32q0 19 10 33t30 14t30 -14t10 -33z" />
    <glyph glyph-name="numbersign" unicode="#" 
d="M277 678l-30 -210h127l29 210h65l-30 -210h95v-58h-103l-21 -142h95v-58h-103l-31 -210h-64l31 210h-127l-31 -210h-64l31 210h-105v58h113l21 142h-105v58h113l29 210h65zM239 410l-21 -142h127l21 142h-127z" />
    <glyph glyph-name="dollar" unicode="$" 
d="M379 722h24l-32 -74q15 -6 23 -8.5t13 -2.5q11 0 20 6t17 20q6 10 11.5 23.5t13.5 33.5h25q-8 -20 -13 -33.5t-9 -23.5t-5.5 -17.5t-1.5 -16.5q0 -4 0.5 -11t1 -25.5t2 -54t4.5 -96.5q0 -10 -10 -10q-7 0 -10.5 12t-9.5 29q-5 15 -12.5 32.5t-17.5 32.5l-64 -147
q66 -25 109.5 -74t43.5 -121q0 -44 -18 -79t-48 -59t-69 -37t-80 -13q-23 0 -48.5 5t-47.5 15l-45 -106h-24l47 114q-6 3 -13.5 6t-18.5 3t-19.5 -3.5t-17 -16t-19 -36.5t-26.5 -64h-22q16 40 25.5 69.5t15 51.5t7 38t1.5 29v165q0 11 2.5 18t7.5 7q8 0 11 -10t6.5 -27.5
t9.5 -41t20 -49.5l65 149q-54 32 -84.5 72.5t-30.5 88.5q0 38 14 71t38 57.5t56.5 38.5t70.5 14q27 0 45.5 -4t34.5 -7zM335 625q-11 8 -28 15.5t-40 7.5q-21 0 -40 -7t-33 -20.5t-22.5 -32.5t-8.5 -43q0 -35 21.5 -65t66.5 -47zM272 424l55 -24l71 160q-8 12 -19 24.5
t-25 24.5zM225 314l-74 -165q5 -11 18 -30t22 -30l88 200zM207 68q14 -16 36.5 -29t51.5 -13q54 0 87.5 32.5t33.5 85.5q0 42 -27 75.5t-90 60.5z" />
    <glyph glyph-name="percent" unicode="%" horiz-adv-x="759" 
d="M332 495q0 -39 -11.5 -73.5t-32 -60.5t-48 -41.5t-59.5 -15.5q-31 0 -58.5 15t-48 41t-32.5 60.5t-12 74.5q0 37 11 72t31.5 61t48 42t60.5 16q31 0 59 -15t48 -41t32 -61t12 -74zM570 686h42l-425 -694h-41zM181 322q67 0 67 173t-67 173q-36 0 -51.5 -46t-15.5 -127
q0 -173 67 -173zM729 183q0 -39 -11.5 -73.5t-32 -60.5t-48 -41.5t-59.5 -15.5q-31 0 -58.5 15t-48 41t-32.5 60.5t-12 74.5q0 37 11 72t31.5 61t48 42t60.5 16q31 0 59 -15t48 -41t32 -61t12 -74zM578 10q67 0 67 173t-67 173q-36 0 -51.5 -46t-15.5 -127q0 -173 67 -173z
" />
    <glyph glyph-name="ampersand" unicode="&#x26;" horiz-adv-x="796" 
d="M482 540q0 -51 -29.5 -88t-92.5 -66q33 -22 59 -42t47.5 -41t41.5 -46t41 -56q12 22 20 39.5t12 31.5t5.5 26.5t1.5 25.5q0 39 -13.5 55.5t-29 22.5t-29 7.5t-13.5 9.5t5 10.5t23 2.5l102 -2q5 0 17 0.5t27 0.5t30.5 0.5t26.5 0.5q16 0 22 -2t6 -10t-6 -10t-19 -5
q-22 -5 -37 -14.5t-35 -35.5q-11 -14 -25.5 -36.5t-29.5 -49.5l-49 -91q38 -69 72.5 -105.5t78.5 -36.5q17 0 30.5 5.5t23 14.5t14.5 19t7 19q2 10 4 16.5t8 6.5q11 0 11 -12q0 -15 -7 -35.5t-24 -39.5t-46.5 -32.5t-74.5 -13.5q-58 0 -98 25.5t-77 70.5q-56 -56 -115 -76
t-122 -20q-48 0 -87.5 15.5t-68 42.5t-44.5 63t-16 77q0 29 11.5 58.5t32.5 55t50.5 46t66.5 32.5q-31 28 -48 61t-17 81q0 30 11.5 61.5t35 57.5t58.5 42.5t82 16.5q38 0 69.5 -13t53.5 -35t34 -49.5t12 -56.5zM341 401q19 5 35 18t27.5 31.5t18 41t6.5 46.5q0 27 -6.5 51
t-20 42t-34.5 28.5t-49 10.5q-44 0 -71 -29.5t-27 -83.5q0 -45 33.5 -83t87.5 -73zM317 26q43 0 83.5 21t68.5 53q-23 36 -44 63t-41 49t-39 39t-39 33q-40 32 -66 50.5t-37 27.5q-35 -17 -49 -52.5t-14 -77.5q0 -45 14.5 -83t39.5 -65t56.5 -42.5t66.5 -15.5z" />
    <glyph glyph-name="quotesingle" unicode="'" horiz-adv-x="222" 
d="M151 647q0 -34 -9 -140l-9 -99q-2 -17 -8 -23.5t-14 -6.5q-3 0 -10.5 3.5t-11.5 25.5q-1 3 -2.5 19t-3.5 39t-4 50.5t-4 53t-3 46.5t-1 32q0 19 10 33t30 14t30 -14t10 -33z" />
    <glyph glyph-name="parenleft" unicode="(" horiz-adv-x="407" 
d="M369 723q0 -4 -7 -8.5t-18 -10.5q-32 -18 -52 -37t-37 -42q-27 -40 -43.5 -87.5t-24.5 -96.5t-10.5 -96t-2.5 -86q0 -92 10.5 -161t27.5 -119q12 -35 27 -60.5t30 -43.5t30 -30t27 -20q14 -9 23 -13.5t11 -6.5q2 -1 5.5 -4t3.5 -7q0 -6 -8 -6q-18 0 -49.5 15.5
t-67.5 47.5q-35 31 -66 73t-53.5 94t-35.5 112.5t-13 128.5q0 64 12 123.5t35 113.5q24 55 56.5 98.5t66.5 73.5t64.5 46t50.5 16q8 0 8 -7z" />
    <glyph glyph-name="parenright" unicode=")" horiz-adv-x="407" 
d="M38 -205q0 4 7 8.5t18 10.5q32 18 52 37t37 42q27 40 43.5 87.5t24.5 96.5t10.5 96t2.5 86q0 92 -10.5 161t-27.5 119q-12 35 -27 60.5t-30 43.5t-30 30t-27 20q-14 9 -23 13.5t-11 6.5q-2 1 -5.5 4t-3.5 7q0 6 8 6q18 0 49.5 -15.5t67.5 -47.5q35 -31 66 -73.5t53.5 -94
t35.5 -112t13 -128.5q0 -64 -12 -123.5t-35 -113.5q-24 -56 -56.5 -99.5t-66.5 -73.5t-65 -45.5t-50 -15.5q-8 0 -8 7z" />
    <glyph glyph-name="asterisk" unicode="*" horiz-adv-x="500" 
d="M294 645q0 -12 -4.5 -23t-11 -24l-14.5 -29t-14 -38q-4 18 -11.5 33.5t-14.5 29.5t-12.5 26.5t-5.5 24.5q0 21 12.5 35t32.5 14q19 0 31 -14t12 -35zM222 521q-17 3 -36 4t-36 1t-31 3.5t-25 12.5q-6 5 -11 13t-5 21q0 17 12.5 29.5t35.5 12.5q16 0 28 -10t22.5 -25
t21 -32t24.5 -30zM422 576q0 -23 -19.5 -36.5t-48.5 -13.5q-15 0 -36 -0.5t-38 -4.5l-2 2q15 13 25.5 30t21 31t22 24t27.5 10q23 0 35.5 -12.5t12.5 -29.5zM222 487q-15 -14 -25.5 -30.5t-21 -31t-22 -24t-27.5 -9.5q-23 0 -35.5 12.5t-12.5 28.5q0 23 18.5 37t53.5 14
q32 0 47 1.5t23 3.5zM278 489q17 -3 31.5 -4t23.5 -1q14 0 26.5 -0.5t22.5 -3.5q20 -5 30 -18t10 -29t-12.5 -28.5t-35.5 -12.5q-16 0 -28 10.5t-22.5 25.5t-21.5 31.5t-24 29.5zM250 486q6 -24 14 -39.5t14.5 -28t11 -23t4.5 -23.5q0 -21 -12 -35t-31 -14q-20 0 -32.5 14
t-12.5 35q0 13 4.5 23.5t11 23t14.5 28t14 39.5z" />
    <glyph glyph-name="plus" unicode="+" horiz-adv-x="600" 
d="M341 454v-186h186v-82h-186v-186h-82v186h-186v82h186v186h82z" />
    <glyph glyph-name="comma" unicode="," horiz-adv-x="287" 
d="M215 44q0 -38 -13.5 -68.5t-31 -52t-34.5 -33.5t-24 -12q-6 0 -6 6q0 5 7.5 10.5t16.5 14.5q15 15 28 37t13 44q0 1 -0.5 3t-4.5 2t-10.5 -1.5t-11.5 -1.5q-31 0 -52 18t-21 51q0 26 19 46.5t53 20.5q36 0 54 -24.5t18 -59.5z" />
    <glyph glyph-name="hyphen" unicode="-" horiz-adv-x="333" 
d="M289 273v-92h-246v92h246z" />
    <glyph glyph-name="period" unicode="." horiz-adv-x="287" 
d="M215 64q0 -30 -21 -51t-51 -21t-51 21t-21 51t21 51t51 21t51 -21t21 -51z" />
    <glyph glyph-name="slash" unicode="/" horiz-adv-x="278" 
d="M299 694l-240 -710h-80l240 710h80z" />
    <glyph glyph-name="zero" unicode="0" 
d="M537 339q0 -67 -18.5 -129.5t-51.5 -111t-79 -77.5t-101 -29t-101 29t-79 77.5t-51.5 111t-18.5 129.5q0 66 18.5 128.5t51.5 111t79 78t101 29.5t101 -29.5t79 -78t51.5 -111t18.5 -128.5zM287 16q70 0 103 79t33 244q0 162 -32.5 242.5t-104.5 80.5q-67 0 -101 -77
t-34 -246q0 -165 33 -244t103 -79z" />
    <glyph glyph-name="one" unicode="1" 
d="M359 94q0 -25 6.5 -39t20 -21.5t35 -9.5t51.5 -2q21 0 27.5 -2.5t6.5 -10.5q0 -6 -4.5 -8.5t-17.5 -2.5q-24 0 -51.5 0.5t-54 1t-49 0.5h-35.5l-185 -2q-17 0 -21.5 3.5t-4.5 7.5q0 9 7.5 11t19.5 2q41 0 66 2t39 9.5t19 21.5t5 38v477q0 20 -20 20h-128q-13 0 -13 11
q0 9 22 10q26 2 56.5 5t64.5 13q32 9 55 18.5t37 17.5q15 9 22 15t14 6q5 0 7.5 -8t2.5 -19v-565z" />
    <glyph glyph-name="two" unicode="2" 
d="M497 491q0 -37 -13 -72t-46 -67q-18 -17 -45.5 -35t-59.5 -35q-39 -21 -71 -38.5t-58 -36.5t-47.5 -41t-39.5 -50h256q39 0 59 11.5t29.5 26t14 26t12.5 11.5q2 0 4.5 -1.5t2.5 -7.5q0 -5 -5.5 -25.5t-12.5 -46.5l-29 -110h-396q3 72 48 133q23 31 53.5 57.5t67.5 55.5
q22 17 43.5 34t37.5 31q47 43 64 79.5t17 73.5q0 31 -12 58.5t-32 47t-46 31t-55 11.5q-35 0 -60.5 -9.5t-43 -23.5t-29 -30.5t-18.5 -30.5t-11.5 -23.5t-8.5 -9.5q-8 0 -8 10q0 9 7 28t21 44q29 51 78 85t119 34q49 0 87 -17t69 -48q26 -26 41.5 -61t15.5 -69z" />
    <glyph glyph-name="three" unicode="3" 
d="M469 522q0 -37 -17 -65t-43 -52q54 -34 81 -79.5t27 -97.5q0 -38 -17.5 -79.5t-52 -76t-86 -57.5t-120.5 -23q-48 0 -86 10.5t-65 29t-41.5 43.5t-14.5 53q0 26 14.5 45.5t42.5 19.5q40 0 54.5 -23t23.5 -69t27 -68.5t62 -22.5q66 0 105.5 44t39.5 122q0 41 -12 72.5
t-32.5 52.5t-46.5 32t-54 11q-20 0 -25.5 1.5t-5.5 6.5q0 8 6 8.5t17 2.5q15 2 33 10.5t34 24.5t27 40t11 57q0 57 -32.5 89t-87.5 32q-39 0 -66.5 -18t-48.5 -46q-5 -7 -8 -11t-8 -4q-7 0 -7 8q0 9 11 32t34.5 47t58.5 43t83 19q36 0 69.5 -12.5t59 -34.5t41 -52t15.5 -65z
" />
    <glyph glyph-name="four" unicode="4" 
d="M385 678h28v-437h121l-21 -52h-100v-103q0 -35 20 -49t52 -16q25 -1 25 -12q0 -6 -3.5 -8.5t-22.5 -2.5q-15 0 -34 0.5t-36.5 0.5t-31.5 0.5t-21 0.5l-123 -2q-17 0 -21.5 2t-4.5 9t6 9.5t22 3.5q28 2 45.5 11.5t17.5 39.5v116h-268l-12 40zM301 534l-237 -293h239v293
h-2z" />
    <glyph glyph-name="five" unicode="5" 
d="M496 700q0 -4 -2 -10.5t-5 -15.5l-36 -112h-296l-17 -100h26q76 0 138 -19t106 -53t68 -80t24 -100q0 -43 -19 -82.5t-52 -69.5t-77.5 -48t-94.5 -18q-55 0 -94.5 13.5t-64.5 33t-36.5 42t-11.5 40.5q0 26 16 43t42 17q29 0 46.5 -18t28.5 -60t32 -64.5t64 -22.5
q32 0 56.5 11t40.5 30t24 44.5t8 55.5q0 31 -14.5 65.5t-45.5 63.5t-80 47.5t-118 18.5q-17 0 -29.5 -0.5t-27.5 -5.5q7 29 16 75t17 94t14 92.5t8 70.5h286q18 0 26.5 5t12 10.5t5.5 10.5t8 5q8 0 8 -9z" />
    <glyph glyph-name="six" unicode="6" 
d="M463 679q0 -6 -9.5 -9.5t-26.5 -10.5q-58 -24 -110 -65.5t-90 -102.5q-19 -30 -34 -66.5t-25 -80.5l2 -2q25 25 60 46t87 21q49 0 90.5 -15t72 -43t48 -68t17.5 -89q0 -41 -18 -78t-50.5 -64.5t-77 -43.5t-97.5 -16q-58 0 -105.5 24t-81 64t-51.5 92t-18 107
q0 78 29.5 143t88.5 120q42 39 91 66.5t91.5 45t72.5 25t34 7.5q10 0 10 -7zM298 16q33 0 57.5 10.5t41.5 33.5t25.5 61t8.5 93q0 85 -36.5 128t-100.5 43q-20 0 -45 -7.5t-45 -23.5q-19 -14 -27 -24.5t-14 -21.5q-2 -14 -2.5 -34t-0.5 -55q0 -108 33 -155.5t105 -47.5z" />
    <glyph glyph-name="seven" unicode="7" 
d="M507 678l23 -44q-90 -120 -139 -287q-23 -80 -33.5 -159t-10.5 -166v-28q-41 6 -75 6q-35 0 -75 -6q5 68 20.5 132t43.5 129q58 133 192 307h-301q-29 0 -44 -8t-23 -17t-12 -17t-10 -8q-7 0 -7 10q0 6 4 16l52 140h395z" />
    <glyph glyph-name="eight" unicode="8" 
d="M500 523q0 -51 -26.5 -87.5t-64.5 -64.5q70 -30 97.5 -70.5t27.5 -104.5q0 -47 -19 -84.5t-53 -64t-79.5 -41t-99.5 -14.5q-50 0 -92.5 15t-73.5 40t-48.5 58t-17.5 69q0 57 30.5 100t95.5 76q-19 11 -36 27t-30 35.5t-20.5 41.5t-7.5 45q0 40 17 74.5t46.5 59.5t69 39
t84.5 14t81.5 -14t63 -36.5t41 -52t14.5 -60.5zM384 382q26 17 43 52.5t17 86.5q0 66 -34.5 103.5t-100.5 37.5q-29 0 -52.5 -8t-41 -22t-27 -33t-9.5 -40q0 -91 100 -133zM278 16q69 0 109.5 34t40.5 98q0 42 -28 74t-82 58q-49 23 -80 37t-45 22q-38 -26 -58 -63.5
t-20 -81.5q0 -81 42.5 -129.5t120.5 -48.5z" />
    <glyph glyph-name="nine" unicode="9" 
d="M528 399q0 -78 -29 -142t-89 -121q-43 -41 -107 -76t-141 -58q-14 -5 -26.5 -7.5t-14.5 -2.5q-10 0 -10 7q0 8 20.5 14t59.5 27q35 19 68.5 46.5t62 64t50.5 82t34 100.5l-2 3q-25 -26 -60.5 -46.5t-86.5 -20.5q-50 0 -91.5 15.5t-72 44t-47.5 68t-17 87.5
q0 41 17.5 77.5t50 64.5t77 44t98.5 16q57 0 104.5 -24t81 -63.5t52 -91.5t18.5 -108zM279 293q38 0 75.5 20.5t56.5 56.5q2 14 2.5 34t0.5 55q0 58 -9 97t-27 62.5t-44 33.5t-59 10q-71 0 -101.5 -47.5t-30.5 -150.5q0 -85 36.5 -128t99.5 -43z" />
    <glyph glyph-name="colon" unicode=":" horiz-adv-x="287" 
d="M215 322q0 -30 -21 -51t-51 -21t-51 21t-21 51t21 51t51 21t51 -21t21 -51zM215 64q0 -30 -21 -51t-51 -21t-51 21t-21 51t21 51t51 21t51 -21t21 -51z" />
    <glyph glyph-name="semicolon" unicode=";" horiz-adv-x="287" 
d="M215 322q0 -30 -21 -51t-51 -21t-51 21t-21 51t21 51t51 21t51 -21t21 -51zM215 44q0 -38 -13.5 -68.5t-31 -52t-34.5 -33.5t-24 -12q-6 0 -6 6q0 5 7.5 10.5t16.5 14.5q15 15 28 37t13 44q0 1 -0.5 3t-4.5 2t-10.5 -1.5t-11.5 -1.5q-31 0 -52 18t-21 51q0 26 19 46.5
t53 20.5q36 0 54 -24.5t18 -59.5z" />
    <glyph glyph-name="less" unicode="&#x3c;" horiz-adv-x="600" 
d="M527 378l-339 -151l339 -151v-83l-454 202v64l454 202v-83z" />
    <glyph glyph-name="equal" unicode="=" horiz-adv-x="600" 
d="M527 358v-82h-454v82h454zM527 178v-82h-454v82h454z" />
    <glyph glyph-name="greater" unicode="&#x3e;" horiz-adv-x="600" 
d="M527 259v-64l-454 -202v83l339 151l-339 151v83z" />
    <glyph glyph-name="question" unicode="?" 
d="M511 465q0 -43 -15 -80.5t-42.5 -65.5t-65.5 -44t-84 -16q-9 0 -16.5 0.5t-16.5 2.5v-71l-35 -8q-9 44 -15.5 72.5t-12.5 50t-12 40t-14 43.5l25 15q15 -12 26.5 -20.5t22.5 -13.5t23.5 -7t27.5 -2q37 0 65.5 12.5t47.5 34.5t29 50t10 60q0 28 -11 54t-29.5 45.5
t-43.5 31t-52 11.5q-39 0 -62.5 -20t-40.5 -61t-32.5 -61.5t-45.5 -20.5t-44 19t-14 46t14.5 51t39.5 42t57.5 28.5t67.5 10.5q57 0 103 -19t78 -50.5t49.5 -73t17.5 -86.5zM325 56q0 -30 -21 -51t-51 -21t-51 21t-21 51t21 51t51 21t51 -21t21 -51z" />
    <glyph glyph-name="at" unicode="@" horiz-adv-x="800" 
d="M756 391q0 -39 -12 -82t-36.5 -79t-60.5 -60t-84 -24q-17 0 -33 6t-28 16.5t-20 23.5t-9 28h-2q-9 -13 -22.5 -26t-29.5 -23t-33.5 -16.5t-33.5 -6.5q-45 0 -71.5 32t-26.5 92q0 30 12 73t37 83t63 68t90 28q28 0 43 -12.5t29 -39.5l11 38h72l-28.5 -114t-19 -76.5
t-11.5 -47.5l-6 -25.5t-2.5 -11.5t-0.5 -5q0 -15 8 -29.5t30 -14.5q27 0 49.5 19.5t38 49.5t24.5 66t9 69q0 45 -18.5 87.5t-47.5 75.5q-40 45 -95 70t-123 25q-59 0 -110 -23t-88.5 -66t-58.5 -105t-21 -140q0 -56 22 -106.5t61 -89t92 -61.5t115 -23q25 0 48.5 2.5t47.5 8
t50 15t57 24.5l11 -39q-49 -24 -101.5 -42.5t-113.5 -18.5q-96 0 -168.5 32t-120.5 81.5t-72 110t-24 116.5q0 82 29.5 150t80.5 117t119 76t145 27q70 0 132 -22.5t107.5 -63t72 -96t26.5 -121.5zM392 198q19 0 40 19.5t38 50t28 67.5t11 72q0 67 -43 67q-18 0 -41 -14
t-43.5 -39.5t-34 -60.5t-13.5 -78q0 -45 17 -64.5t41 -19.5z" />
    <glyph glyph-name="A" unicode="A" horiz-adv-x="667" 
d="M608 64q16 -37 51 -42q14 -2 19 -4t5 -8q0 -7 -3.5 -9.5t-17.5 -2.5q-15 0 -32.5 0.5t-34 0.5t-30 0.5t-19.5 0.5l-116 -2q-13 0 -16.5 3.5t-3.5 8.5q0 8 9 10t26 4q35 5 35 35q0 7 -4 20t-19 49l-51 116h-222q-14 -42 -27 -76.5t-13 -58.5q0 -28 7.5 -44t18 -25t22 -12
t18.5 -6q8 -3 12.5 -5.5t4.5 -7.5q0 -7 -3 -9t-14 -2q-14 0 -30.5 0.5t-32 1t-28.5 0.5h-19l-99 -2q-11 0 -14 3.5t-3 8.5q0 7 7 9.5t22 5.5q23 5 36.5 15.5t27.5 30.5q17 23 32 52.5t28 61.5l110 273q2 6 6.5 17t9 22.5t8 21t3.5 11.5q0 3 -4 7.5t-8.5 9.5t-8 10.5
t-3.5 10.5t2.5 8.5t5.5 6.5q5 5 12 14t17 27q8 16 14 30t9 24q4 11 6 15.5t8 4.5q5 0 9 -8.5t9 -23.5t17.5 -47t36.5 -86zM194 268h202l-108 246z" />
    <glyph glyph-name="B" unicode="B" horiz-adv-x="648" 
d="M177 678q8 0 33.5 0.5t53 0.5t49.5 0.5t23 0.5q63 0 110 -12.5t78.5 -35t47.5 -52.5t16 -66q0 -142 -236 -156v-2q136 -2 203 -43.5t67 -134.5q0 -88 -59 -134t-183 -46q-30 0 -80 1t-120 1q-9 0 -24.5 -0.5t-33 -0.5t-34 -0.5t-28.5 -0.5q-17 0 -21 3t-4 11q0 9 13 10.5
t28.5 4t28.5 11.5t13 34v535q0 24 -13 33t-28.5 11.5t-28.5 4t-13 10.5q0 8 4 11t21 3zM299 366q88 0 128.5 34.5t40.5 109.5q0 38 -12 65.5t-32.5 45.5t-48.5 26.5t-61 8.5h-76v-290h61zM237 86q0 -15 4 -27t15 -20.5t30.5 -12.5t49.5 -4q91 0 128.5 41.5t37.5 116.5
q0 83 -48.5 122.5t-142.5 39.5h-74v-256z" />
    <glyph glyph-name="C" unicode="C" horiz-adv-x="741" 
d="M598 635q13 0 18.5 7.5t8 16t5.5 16t11 7.5q7 0 9 -6t2 -11v-252q0 -5 -2 -11t-7 -6q-7 0 -9 6t-7 28q-2 10 -6 24t-11 31q-13 34 -34 67.5t-49.5 59.5t-64.5 42t-78 16q-48 0 -87 -23t-67 -65.5t-43.5 -104t-15.5 -138.5t15 -138.5t42.5 -104t67.5 -65.5t90 -23
q35 0 67.5 12.5t60.5 33.5t50 48t37 56q16 31 22 52.5t8.5 34t5 18.5t11.5 6q5 0 6.5 -6t1.5 -11v-251q0 -6 -3 -11.5t-11 -5.5q-9 0 -11.5 7.5l-5.5 16.5t-9 16.5t-22 7.5q-14 0 -33.5 -7.5t-46.5 -16.5t-62 -16.5t-79 -7.5q-71 0 -132 28t-106 76.5t-70.5 113t-25.5 137.5
q0 75 30 140t78.5 112.5t109.5 75t123 27.5q45 0 80 -9t61 -20.5t45 -20.5t32 -9z" />
    <glyph glyph-name="D" unicode="D" horiz-adv-x="741" 
d="M176 678q18 0 37 0.5t38 0.5t36 0.5t29 0.5q98 0 170.5 -27.5t120.5 -74t71.5 -109.5t23.5 -133q0 -85 -27.5 -148.5t-73.5 -105.5t-105 -63t-123 -21q-12 0 -36.5 0.5t-53.5 0.5t-57.5 0.5t-47.5 0.5q-5 0 -22 -0.5t-36.5 -0.5t-36.5 -0.5t-23 -0.5q-17 0 -21 3t-4 11
q0 9 13 10.5t28.5 4t28.5 11.5t13 33v536q0 25 -13 33.5t-28.5 11t-28.5 4t-13 10.5q0 8 4 11t21 3q11 0 26.5 -0.5t32 -0.5t32 -0.5t25.5 -0.5zM238 109q0 -43 26 -65t83 -22q118 0 170.5 78.5t52.5 228.5q0 79 -16.5 140.5t-46.5 102.5t-71.5 62.5t-91.5 21.5h-106v-547z
" />
    <glyph glyph-name="E" unicode="E" horiz-adv-x="667" 
d="M545 680q23 -95 38.5 -150.5t15.5 -62.5q0 -10 -8 -10t-13.5 17t-24.5 47q-18 30 -39 55t-51.5 42.5t-75.5 27.5t-112 10h-37v-294h22q149 0 151 132q0 10 2 16t10 6q12 0 12 -17v-303q0 -16 -12 -16q-7 0 -9.5 4.5t-2.5 18.5q-1 39 -13 65t-33 41.5t-49 22t-60 6.5h-18
v-262q0 -25 18 -39.5t66 -14.5q71 0 121 21t83 51.5t52 64.5t29 60q7 18 10.5 31t12.5 13t9 -11q0 -4 -0.5 -11t-2.5 -18l-42 -225q-101 1 -201 1.5t-201 0.5q-31 0 -50.5 -0.5t-33 -0.5t-24.5 -0.5t-24 -0.5q-17 0 -21 3t-4 11q0 9 13 10.5t28.5 4t28.5 11.5t13 34v536
q0 24 -13 32.5t-28.5 11t-28.5 4t-13 10.5q0 8 4 11t21 3q6 0 18.5 -0.5t26 -0.5t26 -0.5t18.5 -0.5h121z" />
    <glyph glyph-name="F" unicode="F" horiz-adv-x="611" 
d="M189 678q88 0 174 0.5t174 1.5q18 -72 29 -113.5t16.5 -63t7 -28t1.5 -8.5q0 -7 -2.5 -8.5t-5.5 -1.5q-2 0 -4.5 1.5t-6.5 10.5q-24 51 -50 87t-60.5 58t-80.5 32t-110 10h-33v-294h25q69 0 107.5 31.5t40.5 96.5q0 14 2 20t10 6q12 0 12 -17v-303q0 -16 -12 -16
q-8 0 -10 5.5t-2 17.5q-1 65 -38 100t-111 35h-24v-267q0 -24 13 -33t28.5 -11.5t28.5 -4t13 -10.5q0 -8 -4 -11t-21 -3q-23 0 -48.5 1t-69.5 1t-69.5 -1t-48.5 -1q-17 0 -21 3t-4 11q0 9 13 10.5t28.5 4t28.5 11.5t13 33v537q0 24 -13 32.5t-28.5 11t-28.5 4t-13 10.5
q0 8 4 11t21 3q13 0 24 -0.5t24.5 -0.5t32.5 -0.5t48 -0.5z" />
    <glyph glyph-name="G" unicode="G" horiz-adv-x="796" 
d="M614 635q15 0 20 7.5t7.5 16t4.5 16t10 7.5q6 0 8 -6t2 -11v-252q0 -5 -2 -11t-7 -6q-8 0 -9.5 6.5t-6.5 26.5q-10 43 -30 86t-51.5 77.5t-73.5 56t-95 21.5q-47 0 -87.5 -21.5t-70 -63.5t-46 -103.5t-16.5 -142.5q0 -78 16 -139.5t45.5 -104t71.5 -65t94 -22.5
q44 0 76 11t52.5 29.5t30.5 43.5t10 52v88q0 25 -13 34t-28.5 11.5t-28.5 3.5t-13 11q0 8 4 11t21 3q23 0 48.5 -1t69.5 -1t69.5 1t48.5 1q16 0 20.5 -3t4.5 -11q0 -9 -13 -10.5t-28.5 -4t-28.5 -11.5t-13 -33v-233h-36l-30 56q-42 -33 -101.5 -52.5t-131.5 -19.5
q-63 0 -125.5 24t-112 70t-80.5 111.5t-31 149.5q0 75 30 140t78.5 112.5t111 75t128.5 27.5q42 0 78.5 -9t65.5 -20.5t50 -20.5t33 -9z" />
    <glyph glyph-name="H" unicode="H" horiz-adv-x="759" 
d="M175 678q44 0 69.5 1t48.5 1q16 0 20.5 -3t4.5 -11q0 -9 -13 -10.5t-28.5 -4t-28.5 -11.5t-13 -33v-237h289v238q0 24 -13 32.5t-28.5 11t-28.5 4t-13 10.5q0 8 4 11t21 3q23 0 48.5 -1t69.5 -1t69.5 1t48.5 1q16 0 20.5 -3t4.5 -11q0 -9 -13 -10.5t-28.5 -4t-28.5 -11
t-13 -32.5v-535q0 -26 13 -35t28.5 -11.5t28.5 -4t13 -10.5q0 -8 -4 -11t-21 -3q-23 0 -48.5 1t-69.5 1t-69.5 -1t-48.5 -1q-17 0 -21 3t-4 11q0 9 13 10t28.5 4t28.5 12t13 33v275h-289v-275q0 -24 13 -33t28.5 -11.5t28.5 -4t13 -10.5q0 -8 -4 -11t-21 -3q-23 0 -48.5 1
t-69.5 1t-69.5 -1t-48.5 -1q-17 0 -21 3t-4 11q0 9 13 10.5t28.5 4t28.5 11.5t13 34v535q0 24 -13 33t-28.5 11.5t-28.5 4t-13 10.5q0 8 4 11t21 3q23 0 48.5 -1t69.5 -1z" />
    <glyph glyph-name="I" unicode="I" horiz-adv-x="370" 
d="M185 678q44 0 69.5 1t48.5 1q16 0 20.5 -3t4.5 -11q0 -9 -13 -10.5t-28.5 -4t-28.5 -11.5t-13 -33v-535q0 -25 13 -34t28.5 -11.5t28.5 -4t13 -10.5q0 -8 -4 -11t-21 -3q-23 0 -48.5 1t-69.5 1t-69.5 -1t-48.5 -1q-17 0 -21 3t-4 11q0 9 13 10t28.5 4t28.5 12t13 33v536
q0 24 -13 33t-28.5 12t-28.5 4t-13 10q0 8 4 11t21 3q23 0 48.5 -1t69.5 -1z" />
    <glyph glyph-name="J" unicode="J" horiz-adv-x="463" 
d="M304 678q44 0 69.5 1t48.5 1q16 0 20.5 -3t4.5 -11q0 -9 -13 -10.5t-28.5 -4t-28.5 -11.5t-13 -33v-404q0 -49 -11 -89.5t-34 -69t-59 -44.5t-85 -16q-39 0 -68.5 9.5t-50 26t-30.5 37t-10 43.5q0 27 18.5 44.5t43.5 17.5q27 0 42.5 -16.5t15.5 -39.5q0 -9 -1.5 -15.5
t-3.5 -12.5t-3.5 -13t-1.5 -18q0 -26 16 -35.5t35 -9.5q67 0 67 84v522q0 24 -13 32.5t-28.5 11t-28.5 4t-13 10.5q0 8 4 11t21 3q23 0 48.5 -1t69.5 -1z" />
    <glyph glyph-name="K" unicode="K" horiz-adv-x="667" 
d="M178 678q44 0 69.5 1t48.5 1q16 0 20.5 -3t4.5 -11q0 -9 -13 -10.5t-28.5 -4t-28.5 -11.5t-13 -33v-300h2l153 190q33 40 49.5 64.5t16.5 51.5q0 22 -8.5 30.5t-18.5 11.5t-18.5 4t-8.5 9q0 5 3.5 8.5t20.5 3.5q29 0 54 -1t38 -1q20 0 44.5 1t47.5 1q14 0 19 -2.5
t5 -10.5t-10.5 -9.5t-27.5 -6.5q-20 -6 -45 -21.5t-53 -47.5l-108 -124l193 -356q20 -38 39.5 -53t34.5 -20.5t24 -7.5t9 -12q0 -6 -3.5 -8.5t-20.5 -2.5q-7 0 -25 0.5t-41 0.5t-47.5 0.5t-44.5 0.5l-195 366l-78 -92v-203q0 -24 13 -33t28.5 -11.5t28.5 -4t13 -10.5
q0 -8 -4 -11t-21 -3q-23 0 -48.5 1t-69.5 1t-69.5 -1t-48.5 -1q-17 0 -21 3t-4 11q0 9 13 10.5t28.5 4t28.5 11.5t13 34v535q0 25 -13 33.5t-28.5 11t-28.5 4t-13 10.5q0 8 4.5 11t20.5 3q23 0 48.5 -1t69.5 -1z" />
    <glyph glyph-name="L" unicode="L" horiz-adv-x="630" 
d="M178 678q44 0 69.5 1t48.5 1q16 0 20.5 -3t4.5 -11q0 -9 -13 -10.5t-28.5 -4t-28.5 -11.5t-13 -33v-516q0 -37 17 -53t59 -16q48 0 90 15.5t76 42.5t59.5 65t41.5 83q6 18 9 26.5t11 8.5q9 0 9 -11q0 -7 -1 -15t-5.5 -32l-13.5 -72t-25 -135q-94 1 -188 1.5t-188 0.5
q-29 0 -48 -0.5t-32.5 -0.5t-24.5 -0.5t-24 -0.5q-17 0 -21 3t-4 11q0 10 13 11t28.5 3.5t28.5 11t13 34.5v535q0 24 -13 33t-28.5 11.5t-28.5 4t-13 10.5q0 8 4.5 11t20.5 3q23 0 48.5 -1t69.5 -1z" />
    <glyph glyph-name="M" unicode="M" horiz-adv-x="870" 
d="M38 680q29 0 63 -1t87 -1h38l212 -511l215 511q44 0 70 0.5t42.5 0.5t27 0.5t24.5 0.5q16 0 20.5 -3t4.5 -11q0 -9 -13 -10.5t-28.5 -4t-28.5 -11.5t-13 -33v-536q0 -24 13 -33t28.5 -12t28.5 -4t13 -10q0 -8 -4 -11t-21 -3q-23 0 -48.5 1t-69.5 1t-69.5 -1t-48.5 -1
q-17 0 -21 3t-4 11q0 9 13 10.5t28.5 4t28.5 11.5t13 33v521h-2l-233 -571q-3 -7 -6.5 -14t-8.5 -7t-8 8.5t-5 12.5l-228 563h-2v-418q0 -39 7 -65t18.5 -42.5t26 -24.5t30.5 -11q11 -2 17 -4t6 -10t-5.5 -9.5t-18.5 -1.5q-20 0 -41 1t-55 1q-45 0 -67.5 -1t-34.5 -1
t-18 1.5t-6 8.5q0 11 6.5 12t27.5 6q11 3 26.5 11t29.5 30q13 20 20 57t7 100v362q0 32 -16 45t-35.5 18t-35.5 6.5t-16 10.5q0 8 4 11t15 3z" />
    <glyph glyph-name="N" unicode="N" horiz-adv-x="704" 
d="M21 680q17 0 34 -1t34 -1h99l377 -506h2v340q0 73 -33 111q-15 17 -29.5 23t-26 8.5t-18 4.5t-6.5 10q0 7 5 9t20 2q23 0 47 -1t55 -1t55 1t47 1q15 0 20 -2t5 -9q0 -10 -17 -13q-45 -6 -70.5 -42.5t-25.5 -98.5v-518q0 -4 -3 -8.5t-9 -4.5q-5 0 -10 2t-10 8l-424 564h-2
v-390q0 -22 3.5 -44.5t13 -42.5t26 -35.5t42.5 -21.5q13 -3 20.5 -4.5t7.5 -10.5q0 -7 -5 -9t-20 -2q-23 0 -47 1t-55 1t-55 -1t-47 -1q-15 0 -20 2t-5 9t3.5 8.5t9.5 3.5q15 3 29 7.5t27 15.5q20 17 32 47t12 77v425q-21 31 -41.5 43.5t-36 17t-25 5t-9.5 7.5q0 8 5 11
t19 3z" />
    <glyph glyph-name="O" unicode="O" horiz-adv-x="796" 
d="M757 339q0 -87 -33.5 -153t-85.5 -111t-116 -68t-124 -23q-66 0 -130 24.5t-115 70.5t-82.5 112t-31.5 148q0 83 32 149t83 111.5t115 70t129 24.5q63 0 127 -24t115.5 -69.5t84 -111.5t32.5 -150zM398 8q106 0 166.5 85t60.5 246q0 162 -61 246.5t-167 84.5
q-103 0 -164.5 -84t-61.5 -247q0 -161 60.5 -246t166.5 -85z" />
    <glyph glyph-name="P" unicode="P" horiz-adv-x="593" 
d="M176 678q55 1 87 1.5t40 0.5q132 0 205.5 -51t73.5 -139q0 -93 -77 -141.5t-235 -48.5h-32v-229q0 -24 15 -33t32.5 -11.5t32.5 -4t15 -10.5q0 -8 -6 -11t-22 -3q-32 0 -64.5 1t-64.5 1q-8 0 -25.5 -0.5t-36 -0.5t-34.5 -0.5t-20 -0.5q-17 0 -21 3t-4 11q0 9 13 10.5
t28.5 4t28.5 11.5t13 34v535q0 24 -13 33t-28.5 11.5t-28.5 4t-13 10.5q0 8 4.5 11t20.5 3q11 0 27 -0.5t33 -0.5t32 -0.5t24 -0.5zM238 324h46q92 0 135 37.5t43 131.5q0 84 -42.5 123.5t-108.5 39.5h-73v-332z" />
    <glyph glyph-name="Q" unicode="Q" horiz-adv-x="796" 
d="M757 339q0 -68 -23.5 -128t-65 -106.5t-99.5 -77t-127 -39.5v-2q30 -6 61 -15.5t62 -18.5t60 -15.5t55 -6.5q43 0 65.5 12.5t33 27t14.5 27t11 12.5q8 0 8 -9q0 -20 -15.5 -44.5t-43.5 -45.5t-67 -35.5t-85 -14.5q-51 0 -94.5 15t-99.5 41q-28 13 -51 23.5t-43 17.5
t-38.5 11t-38.5 4q-37 0 -59 -15t-30 -30q-7 -12 -7.5 -20.5t-8.5 -8.5q-10 0 -10 10q0 17 10.5 34.5t28 32.5t41 25.5t50.5 13.5v2q-47 21 -86 53t-67 73.5t-43.5 91t-15.5 105.5q0 86 33 152t85 111t115.5 68.5t125.5 23.5q63 0 127 -24t115.5 -69.5t84 -111.5t32.5 -150z
M398 8q106 0 166.5 85t60.5 246q0 163 -61 247t-167 84q-103 0 -164.5 -84t-61.5 -247q0 -160 60.5 -245.5t166.5 -85.5z" />
    <glyph glyph-name="R" unicode="R" horiz-adv-x="667" 
d="M177 678q42 0 73 1t58 1q70 0 121.5 -14.5t85 -39t50 -57t16.5 -67.5q0 -72 -62 -118t-180 -55v-2q49 -5 85.5 -17.5t63.5 -44.5q20 -25 32 -49.5t31 -61.5q14 -29 24.5 -50.5t18.5 -33.5q17 -25 35.5 -34t34 -12t25.5 -4t10 -11q0 -11 -22 -11l-170 2l-87 162
q-32 58 -52.5 90t-42.5 46q-16 11 -34.5 13.5t-52.5 2.5v-243q0 -24 13 -33t28.5 -12t28.5 -4t13 -10q0 -8 -4 -11t-21 -3q-23 0 -48.5 1t-69.5 1t-69.5 -1t-48.5 -1q-17 0 -21 3t-4 11q0 9 13 10.5t28.5 4t28.5 11.5t13 34v535q0 24 -13 33t-28.5 11.5t-28.5 4t-13 10.5
q0 8 4.5 11t20.5 3q22 0 48 -1t69 -1zM238 338h43q41 0 69 7.5t45 19.5q32 23 43 59t11 75q0 44 -11 74t-30.5 48.5t-47 26.5t-60.5 8h-62v-318z" />
    <glyph glyph-name="S" unicode="S" horiz-adv-x="556" 
d="M432 654q10 0 14.5 5t6.5 11t4.5 11t9.5 5q4 0 5.5 -1.5t3.5 -7.5q1 -4 4 -35t6 -69.5t5.5 -74.5t2.5 -49q0 -14 -11 -14q-4 0 -6 3.5t-4.5 12t-6.5 22t-12 34.5q-28 73 -71.5 118t-113.5 45q-57 0 -89 -30t-32 -78q0 -30 12.5 -52.5t35.5 -40.5t57 -33.5t77 -32.5
t78 -36t59.5 -43t38 -55t13.5 -72q0 -43 -15.5 -81.5t-46 -68t-75 -46.5t-102.5 -17q-27 0 -53 6t-47.5 13t-38.5 13t-27 6q-15 0 -21.5 -5.5t-9.5 -11.5t-5 -11.5t-9 -5.5q-9 0 -9 11v277q0 4 2.5 7.5t7.5 3.5t8 -4.5t5 -18.5q2 -12 5 -32t12 -52q10 -35 25.5 -66t38 -54.5
t53 -37.5t69.5 -14q66 0 105.5 34t39.5 94q0 26 -7 45.5t-21 35.5q-22 26 -58.5 44t-94.5 40q-36 13 -70 29t-61 39t-43 55t-16 78q0 39 16.5 73.5t45 61t67 42t81.5 15.5q34 0 58 -6.5t42 -14t32.5 -13.5t29.5 -6z" />
    <glyph glyph-name="T" unicode="T" horiz-adv-x="685" 
d="M562 678q14 0 21.5 2.5t11 5.5t6.5 5.5t8 2.5q4 0 6 -4.5t3.5 -9.5t2 -10t0.5 -6q2 -8 7.5 -37.5t12.5 -64.5t13.5 -66t6.5 -40q0 -8 -9 -8q-5 0 -10.5 12.5t-17.5 35.5q-11 21 -31.5 48.5t-49 52t-64.5 41t-76 16.5v-583q0 -24 15.5 -33t34 -12t34 -4t15.5 -10
q0 -8 -6 -11t-23 -3l-130 2h-22t-34 -0.5t-38.5 -1t-35.5 -0.5q-17 0 -23 3t-6 11t9.5 9.5t29.5 3.5q21 2 33 7t18 12t7.5 16t1.5 20l-1 574q-39 0 -75 -16t-70 -46q-32 -29 -50 -55t-28 -45.5t-15 -31.5t-11 -12q-9 0 -9 8q0 5 2 15t6.5 31.5t11.5 58t18 93.5q4 20 5.5 30
t9.5 10q4 0 6.5 -2.5t6.5 -5.5t11.5 -5.5t21.5 -2.5h439z" />
    <glyph glyph-name="U" unicode="U" horiz-adv-x="722" 
d="M167 678q44 0 69.5 1t48.5 1q16 0 20.5 -3t4.5 -11q0 -9 -13 -10t-28.5 -4t-28.5 -12t-13 -33v-427q0 -75 48.5 -120.5t133.5 -45.5q91 0 135 51t44 136v316q0 32 -8.5 60t-24.5 46q-16 17 -30.5 23t-25.5 8.5t-17.5 4t-6.5 10.5q0 7 5 9t20 2q23 0 47 -1t55 -1t55 1
t47 1q15 0 20 -2t5 -9q0 -10 -12 -12q-52 -7 -76.5 -45t-24.5 -102v-308q0 -49 -14.5 -89t-44 -68.5t-74 -44.5t-104.5 -16q-70 0 -121.5 15.5t-85 42.5t-49.5 63.5t-16 79.5v422q0 24 -13 33t-28.5 11.5t-28.5 4t-13 10.5q0 8 4 11t21 3q23 0 48.5 -1t69.5 -1z" />
    <glyph glyph-name="V" unicode="V" horiz-adv-x="667" 
d="M119 678q42 0 74 1t58 1q19 0 23 -2.5t4 -9.5q0 -10 -11.5 -11t-25.5 -3.5t-25.5 -10.5t-11.5 -31q0 -4 2 -14.5t9 -27.5l165 -435l119 320q11 29 17 48.5t8.5 32.5t3 22.5t0.5 18.5q0 36 -13.5 50.5t-30 20t-30 7.5t-13.5 13q0 8 4.5 10t17.5 2q15 0 39 -1t55 -1t57 1
t48 1q23 0 27.5 -2.5t4.5 -9.5q0 -10 -14 -12.5t-35 -14t-47 -40t-50 -90.5l-195 -504q-5 -11 -7.5 -17t-10.5 -6q-4 0 -7.5 2.5t-7.5 12.5l-239 592q-9 21 -18 33t-18 18.5t-17 8.5t-15 4q-10 2 -15 4t-5 8t4.5 9.5t20.5 3.5q13 0 40 -1t61 -1z" />
    <glyph glyph-name="W" unicode="W" horiz-adv-x="907" 
d="M129 678q7 0 21 0.5t31 0.5t35 0.5t33 0.5q14 0 18.5 -1.5t4.5 -10.5t-10.5 -10.5t-23.5 -3.5t-23.5 -9.5t-10.5 -26.5q0 -20 6 -38.5t17 -53.5l117 -366h2l94 279q4 12 4 19q0 8 -5 23.5t-12 34t-15 38t-14 37.5q-7 19 -14 30.5t-14 18.5t-13.5 10t-12.5 5
q-11 3 -18.5 4t-7.5 9q0 4 3 8t15 4l119 -2q7 0 19.5 0.5t28 0.5t31.5 0.5t30 0.5q17 0 21 -3t4 -11q0 -7 -11 -8t-24.5 -4t-24.5 -11.5t-11 -30.5q0 -6 2 -15t4 -18.5t4.5 -17.5t4.5 -12l126 -392h2l95 304q15 48 19 75.5t4 39.5q0 29 -13 49q-8 12 -20.5 18.5t-23.5 10
t-19 6.5t-8 8q0 7 4 9.5t17 2.5q25 0 54 -1t63 -1q30 0 49.5 1t32.5 1q18 0 18 -9t-12.5 -12t-30.5 -12t-39 -32t-38 -73l-187 -543q-5 -15 -14 -15q-6 0 -9 5t-5 10l-141 426h-2l-145 -426q-3 -9 -6.5 -12t-7.5 -3q-9 0 -13 12l-200 593q-11 33 -26 46.5t-35 18.5
q-12 3 -21.5 3.5t-9.5 9.5q0 8 3.5 10.5t16.5 2.5z" />
    <glyph glyph-name="X" unicode="X" horiz-adv-x="685" 
d="M52 680q31 0 62 -1t62 -1q30 0 60 1t60 1q16 0 19.5 -3t3.5 -10q0 -6 -8 -8t-25 -4q-31 -4 -31 -28q0 -12 6.5 -25.5t20.5 -34.5l96 -155l83 115q27 37 27 71q0 22 -7.5 34t-18.5 17q-17 9 -30 10t-13 9t4.5 10t18.5 2l98 -2q5 0 16 0.5t24 0.5t26.5 0.5t25.5 0.5
q17 0 22.5 -2.5t5.5 -9.5t-14 -10q-29 -6 -61.5 -27.5t-69.5 -71.5l-124 -168l180 -292q16 -26 42.5 -49t58.5 -28q11 -2 18.5 -4t7.5 -9q0 -8 -3.5 -9.5t-16.5 -1.5q-17 0 -36.5 0.5t-38.5 0.5t-35.5 0.5t-28.5 0.5q-43 0 -76.5 -1t-54.5 -1q-17 0 -21.5 3t-4.5 9
q0 8 8.5 10t25.5 4q35 5 35 35q0 22 -13 43l-121 207q-51 -75 -78.5 -118.5t-34.5 -61.5q-6 -15 -8 -26t-2 -21q0 -20 5.5 -31.5t14.5 -17.5t19.5 -8.5t20.5 -3.5q10 -2 14.5 -4t4.5 -8q0 -5 -3.5 -8t-21.5 -3q-15 0 -32.5 0.5t-34 0.5t-30.5 0.5t-20 0.5l-117 -2
q-17 0 -22.5 2.5t-5.5 7.5q0 7 10 10t28 7q14 3 33 11.5t40 28.5q20 20 42 45.5t47 60.5l116 158l-168 270q-14 22 -27.5 34t-25.5 17.5t-22.5 7l-17.5 2.5q-13 1 -13 9q0 7 5 9t19 2z" />
    <glyph glyph-name="Y" unicode="Y" horiz-adv-x="630" 
d="M17 680q33 0 65 -1t65 -1q28 0 55.5 1t55.5 1q21 0 25.5 -4t4.5 -10q0 -8 -10 -9.5t-22 -4.5t-22 -10.5t-10 -26.5q0 -7 3.5 -22t14.5 -35l117 -212q39 56 65 95.5t41.5 68t22 49.5t6.5 39q0 28 -11 40t-24 16t-24 5.5t-11 9.5q0 7 5 9t19 2l97 -2q6 0 18.5 0.5t26 0.5
t25.5 0.5t18 0.5q14 0 18.5 -3.5t4.5 -8.5q0 -6 -9 -8t-26 -11q-20 -11 -47.5 -35t-59.5 -72l-139 -208v-263q0 -24 14 -33t31.5 -11.5t31.5 -4t14 -10.5q0 -14 -33 -14q-23 0 -48.5 1t-69.5 1t-69.5 -1t-48.5 -1q-17 0 -23 3t-6 11q0 9 13.5 10t30 4t30 12t13.5 35v230
l-164 294q-20 35 -49 49q-18 9 -31.5 11.5t-13.5 11.5q0 6 3.5 8.5t16.5 2.5z" />
    <glyph glyph-name="Z" unicode="Z" horiz-adv-x="611" 
d="M57 469q0 1 5.5 23t14 54t17.5 68.5t17 65.5q27 0 57.5 -0.5t59.5 -0.5t54 -0.5t40 -0.5q58 0 119 1t112 1q13 0 16.5 -2t3.5 -5q0 -5 -5.5 -14.5t-13.5 -21.5l-391 -615h88q49 0 96.5 14.5t82.5 41.5t56.5 56.5t35.5 61.5q7 16 11 28.5t7 21t6 13t8 4.5q9 0 9 -11
q0 -4 -0.5 -11t-2.5 -18l-42 -225q-63 0 -125.5 1t-125.5 1q-54 0 -107 -1t-107 -1q-17 0 -22.5 1t-5.5 8q0 4 4.5 10.5t19.5 30.5l378 608h-31q-44 0 -82.5 -3.5t-71.5 -13.5t-60.5 -28t-50.5 -48q-12 -16 -24.5 -35.5t-23.5 -42.5q-5 -10 -8.5 -19t-9.5 -9q-3 0 -5.5 1.5
t-2.5 10.5z" />
    <glyph glyph-name="bracketleft" unicode="[" horiz-adv-x="407" 
d="M278 693q-11 -1 -21.5 -4t-18.5 -9t-13 -16.5t-5 -27.5v-752q0 -29 12 -40.5t26.5 -15t26.5 -4.5t12 -8q0 -8 -5 -9t-8 -1h-140q-24 0 -24 18v870q0 9 6.5 13.5t13.5 4.5h144q13 0 13 -10q0 -8 -19 -9z" />
    <glyph glyph-name="backslash" unicode="\" horiz-adv-x="278" 
d="M59 694l240 -710h-80l-240 710h80z" />
    <glyph glyph-name="bracketright" unicode="]" horiz-adv-x="407" 
d="M129 693q-19 1 -19 9q0 10 13 10h144q7 0 13.5 -4.5t6.5 -13.5v-870q0 -18 -24 -18h-140q-3 0 -8 1t-5 9q0 7 12 8t26.5 4.5t26.5 15t12 40.5v752q0 17 -5 27.5t-13 16.5t-18.5 9t-21.5 4z" />
    <glyph glyph-name="asciicircum" unicode="^" horiz-adv-x="600" 
d="M336 678l162 -326h-91l-107 222l-108 -224h-90l161 328h73z" />
    <glyph glyph-name="underscore" unicode="_" horiz-adv-x="500" 
d="M500 -75v-50h-500v50h500z" />
    <glyph glyph-name="grave" unicode="`" horiz-adv-x="296" 
d="M224 510h-47l-142 90q-15 10 -27 21.5t-12 28.5q0 16 11 27t25 11q18 0 30.5 -11.5t26.5 -25.5z" />
    <glyph glyph-name="a" unicode="a" horiz-adv-x="500" 
d="M415 57q0 -7 4 -15.5t15 -8.5q13 0 22 5.5t15 12t10 12t9 5.5q10 0 10 -8t-9.5 -19.5t-24.5 -22.5t-34 -18.5t-39 -7.5q-37 0 -57 15t-28 57q-54 -38 -93.5 -55t-78.5 -17q-48 0 -77 23t-29 66q0 31 16 57t49.5 48.5t85.5 43.5t124 43v131q0 15 -9 24.5t-29 9.5
q-37 0 -62.5 -23t-33.5 -68t-24 -62t-52 -17q-24 0 -37 14.5t-13 34.5q0 25 21 51t56 47t79.5 34t91.5 13q66 0 94 -31.5t28 -83.5v-290zM195 32q15 0 32 6t32.5 15t27.5 19t18 18v163q-7 -3 -29 -10.5t-60 -27.5q-76 -40 -76 -102q0 -36 14.5 -58.5t40.5 -22.5z" />
    <glyph glyph-name="b" unicode="b" horiz-adv-x="556" 
d="M186 410q26 22 58.5 37t75.5 15t80 -16.5t64 -45.5t42.5 -68.5t15.5 -84.5q0 -59 -21 -106t-55.5 -80t-79 -51t-90.5 -18q-38 0 -76.5 11t-70.5 35q-11 -13 -17.5 -21.5t-10.5 -14t-7.5 -8t-8.5 -2.5q-9 0 -9 10v578q0 29 -12.5 42t-27.5 19t-27.5 8.5t-12.5 9.5q0 6 4 9
t11 5q10 3 28 7t41.5 10.5t50 16t55.5 23.5v-320zM186 106q0 -15 4.5 -31t15 -29t27 -21.5t40.5 -8.5q60 0 94.5 48.5t34.5 139.5q0 105 -33.5 161.5t-93.5 56.5q-26 0 -51 -13t-38 -27v-276z" />
    <glyph glyph-name="c" unicode="c" horiz-adv-x="500" 
d="M451 316q0 -32 -14 -49t-43 -17q-32 0 -45.5 19.5t-13.5 41.5q0 11 1 25.5t1 31.5q0 37 -18 53.5t-53 16.5t-59 -12.5t-39.5 -35t-22.5 -54t-7 -70.5q0 -41 11.5 -77.5t33 -63.5t52.5 -43t69 -16q46 0 73 15t42 33t21.5 33t11.5 15q10 0 10 -9q0 -14 -10.5 -41
t-34.5 -53.5t-62 -46.5t-92 -20q-69 0 -112.5 25.5t-68.5 60.5t-34.5 73t-9.5 62q0 54 17.5 99.5t48.5 78.5t72.5 52t89.5 19q41 0 75 -12t58.5 -32t38 -46.5t13.5 -55.5z" />
    <glyph glyph-name="d" unicode="d" horiz-adv-x="556" 
d="M480 111q0 -20 10 -29.5t22 -15t22 -9t10 -10.5q0 -6 -7.5 -8.5t-26.5 -6.5t-52.5 -12.5t-85.5 -27.5v79h-2q-29 -37 -68.5 -58t-81.5 -21q-47 0 -82 17.5t-58 47t-34.5 67t-11.5 77.5q0 60 20.5 108.5t55.5 82.5t81.5 52t98.5 18q23 0 41.5 -3t38.5 -5v126
q0 29 -12.5 42t-27.5 19t-27.5 8.5t-12.5 9.5q0 10 12.5 13.5t33.5 8.5q26 6 63.5 17t80.5 32v-619zM275 44q14 0 29 4.5t28 13.5t23 21.5t15 27.5v239q0 33 -23 60.5t-68 27.5q-58 0 -96.5 -50t-38.5 -152q0 -88 36.5 -140t94.5 -52z" />
    <glyph glyph-name="e" unicode="e" horiz-adv-x="500" 
d="M140 256v-13q0 -30 11 -61t32 -57t51.5 -42.5t69.5 -16.5q37 0 63 8t43 22t25.5 26t12.5 21t6.5 14t8.5 5q7 0 7 -9q0 -12 -11 -39t-36 -54t-65.5 -47.5t-98.5 -20.5q-50 0 -92 17.5t-72.5 48.5t-47.5 74.5t-17 96.5q0 45 17.5 87t48.5 74.5t74 52t94 19.5q43 0 80 -13.5
t64.5 -40t43.5 -65t16 -87.5h-328zM358 280v17q0 72 -24 106.5t-75 34.5q-26 0 -47.5 -13t-37 -35t-24.5 -50.5t-10 -59.5h218z" />
    <glyph glyph-name="f" unicode="f" horiz-adv-x="296" 
d="M338 662q0 -32 -18.5 -48.5t-39.5 -16.5q-28 0 -39.5 14t-11.5 35q0 17 4.5 28t4.5 26q0 28 -25 28q-22 0 -31.5 -21t-9.5 -57q0 -27 3 -54t7 -52.5t7 -48t3 -41.5h110l-15 -52h-95v-335q0 -24 11.5 -33t25.5 -11.5t25.5 -4t11.5 -10.5q0 -5 -4 -7.5t-20 -2.5l-105 2
h-17.5t-27.5 -0.5t-31 -1t-29 -0.5q-16 0 -20 2.5t-4 7.5q0 9 11.5 10.5t25.5 4t25.5 11t11.5 32.5v336h-52q15 13 26 29.5t21 39.5t19 55t21 75q22 80 51 115.5t75 35.5q19 0 36.5 -7t30.5 -19t20.5 -28.5t7.5 -35.5z" />
    <glyph glyph-name="g" unicode="g" horiz-adv-x="481" 
d="M396 537q0 -47 -50 -47q-20 0 -34 8t-28 8q-19 0 -27 -14.5t-10 -29.5q96 -8 142 -44t46 -96q0 -27 -9 -53t-30.5 -47t-58 -35t-91.5 -17q-27 -2 -50.5 -4t-41.5 -9t-28.5 -19t-10.5 -33q0 -11 3 -20.5t11 -17t22.5 -12.5t37.5 -5l138 -3q84 -2 118 -35t34 -86
q0 -75 -64 -106.5t-190 -31.5q-103 0 -156 32.5t-53 77.5q0 50 72 68q-47 29 -47 90q0 49 37 81.5t100 37.5v2q-57 10 -93 41.5t-36 94.5q0 61 46.5 103t133.5 46q14 67 39 98.5t65 31.5q32 0 47.5 -14.5t15.5 -40.5zM241 188q47 0 65.5 34t18.5 93q0 60 -18 94.5t-66 34.5
q-43 0 -62.5 -32t-19.5 -95q0 -60 18.5 -94.5t63.5 -34.5zM231 -194q91 0 132.5 21.5t41.5 57.5q0 29 -23.5 39.5t-58.5 12.5q-26 1 -54 1t-57 1.5t-57 6t-54 14.5q-17 -5 -29 -22.5t-12 -33.5q0 -19 9.5 -36.5t29.5 -31t52.5 -22t79.5 -8.5z" />
    <glyph glyph-name="h" unicode="h" horiz-adv-x="593" 
d="M203 382q33 25 59 40.5t47 24.5t39.5 12t37.5 3q60 0 87 -30.5t27 -78.5v-288q0 -21 11.5 -29.5t25.5 -12.5t25.5 -6t11.5 -9q0 -4 -4 -7.5t-20 -2.5l-105 2l-105 -2q-16 -1 -20 2.5t-4 7.5q0 9 11.5 10.5t25.5 4t25.5 11t11.5 31.5v288q0 31 -20 47t-43 16
q-25 0 -58 -16.5t-66 -45.5v-288q0 -24 11.5 -32.5t25.5 -11t25.5 -4t11.5 -10.5q0 -5 -4 -7.5t-20 -2.5l-105 2q-5 0 -17 -0.5t-27 -0.5t-31.5 -0.5t-29.5 -0.5q-16 0 -20 2.5t-4 7.5q0 9 11.5 10.5t25.5 4t25.5 11.5t11.5 33v512q0 30 -12.5 43.5t-27.5 19t-27.5 8
t-12.5 9.5q0 10 12.5 13.5t35.5 8.5q25 6 62.5 17.5t79.5 31.5v-348z" />
    <glyph glyph-name="i" unicode="i" horiz-adv-x="296" 
d="M213 602q0 -29 -20 -48.5t-48 -19.5t-48 19.5t-20 48.5t20 48.5t48 19.5t48 -19.5t20 -48.5zM203 66q0 -24 11.5 -32.5t25.5 -11t25.5 -4t11.5 -10.5q0 -5 -4 -7.5t-20 -2.5l-105 2q-3 0 -17.5 -0.5t-31.5 -0.5t-33 -0.5t-23 -0.5q-16 0 -20 2.5t-4 7.5q0 9 11.5 10.5
t25.5 4t25.5 11.5t11.5 33v250q0 26 -12.5 38.5t-27.5 18.5t-27.5 8.5t-12.5 8.5q0 9 10.5 12.5t29.5 8.5q23 6 59.5 17t90.5 33v-396z" />
    <glyph glyph-name="j" unicode="j" horiz-adv-x="296" 
d="M230 602q0 -28 -19.5 -48t-48.5 -20t-48.5 20t-19.5 48t19.5 48t48.5 20t48.5 -20t19.5 -48zM220 -1q0 -41 -9.5 -79t-31 -67.5t-56 -47t-84.5 -17.5q-52 0 -85.5 24t-33.5 57q0 28 18.5 43t47.5 15q34 0 45 -19.5t13 -44.5q1 -20 6 -35.5t27 -15.5q20 0 39 13.5t19 36.5
q0 12 -4 23t-8.5 21.5t-8.5 22t-4 24.5v358q0 30 -12.5 43.5t-27.5 19t-27.5 8t-12.5 9.5q0 11 18.5 15t49.5 12q26 7 56.5 17t65.5 27v-463z" />
    <glyph glyph-name="k" unicode="k" horiz-adv-x="556" 
d="M203 222q90 60 130.5 103.5t40.5 66.5q0 21 -11.5 28.5t-25 10t-25 3.5t-11.5 10q0 5 3 8.5t15 3.5q23 0 51 -1t39 -1l102 2q19 0 19 -11q0 -6 -3 -7.5t-9.5 -2.5t-16 -2.5t-22.5 -6.5q-14 -6 -28.5 -13.5t-37.5 -29.5q-12 -11 -27.5 -29t-35.5 -43l151 -265
q8 -15 20 -19t23 -5t19 -3t8 -12q0 -7 -5 -8t-15 -1l-109 2q-6 0 -18.5 -0.5t-27.5 -0.5t-31 -0.5t-30 -0.5q-17 0 -22 3t-5 8q0 10 9.5 11.5t21 2.5t21 6t9.5 21q0 5 -2.5 13.5t-6.5 15.5t-25 47.5t-62 119.5l-70 -49v-132q0 -23 11.5 -31.5t25.5 -11t25.5 -4t11.5 -10.5
q0 -5 -4 -7.5t-20 -2.5l-105 2q-8 0 -20.5 -0.5t-27 -0.5t-29.5 -0.5t-28 -0.5q-16 0 -20 2.5t-4 7.5q0 9 11.5 10.5t25.5 4t25.5 11t11.5 32.5v513q0 29 -12.5 42.5t-27.5 19.5t-27.5 8.5t-12.5 9.5q0 8 8.5 11.5t22.5 6.5q26 6 68 17.5t91 35.5v-508z" />
    <glyph glyph-name="l" unicode="l" horiz-adv-x="296" 
d="M203 66q0 -24 11.5 -32.5t25.5 -11t25.5 -4t11.5 -10.5q0 -5 -4 -7.5t-20 -2.5q-13 0 -29 0.5t-31 0.5t-27 0.5t-18 0.5l-105 -2q-16 0 -20 2.5t-4 7.5q0 9 11.5 10.5t25.5 4t25.5 11t11.5 32.5v513q0 30 -12.5 43.5t-27.5 19t-27.5 8t-12.5 9.5q0 10 12.5 13.5t35.5 8.5
q26 6 63.5 17.5t78.5 31.5v-664z" />
    <glyph glyph-name="m" unicode="m" horiz-adv-x="889" 
d="M205 382q33 25 57.5 40.5t45.5 24.5t39.5 12t38.5 3q48 0 75 -21.5t31 -66.5q38 33 84 60.5t100 27.5q67 0 92 -33.5t25 -93.5v-270q0 -23 11.5 -31.5t25.5 -11t25.5 -4t11.5 -10.5q0 -5 -4 -7.5t-20 -2.5l-105 2l-105 -2q-16 0 -20 2.5t-4 7.5q0 9 11.5 10.5t25.5 4
t25.5 11t11.5 31.5v287q0 26 -18 45t-45 19q-28 0 -61 -20.5t-60 -49.5v-281q0 -23 11.5 -31.5t25.5 -11t25.5 -4t11.5 -10.5q0 -5 -4 -7.5t-20 -2.5q-13 0 -29.5 0.5t-32 0.5t-27.5 0.5t-16 0.5l-105 -2q-16 0 -20 2.5t-4 7.5q0 9 11.5 10.5t25.5 4t25.5 11t11.5 31.5v287
q0 32 -18.5 48t-41.5 16q-24 0 -57.5 -16.5t-66.5 -45.5v-288q0 -24 11.5 -32.5t25.5 -11t25.5 -4t11.5 -10.5q0 -5 -4 -7.5t-20 -2.5q-13 0 -29 0.5t-31 0.5t-27 0.5t-18 0.5l-105 -2q-16 0 -20 2.5t-4 7.5q0 9 11.5 10.5t25.5 4t25.5 11t11.5 32.5v245q0 30 -12.5 43
t-27.5 19t-27.5 8.5t-12.5 10.5q0 7 7.5 10t22.5 7q26 6 68.5 17.5t91.5 35.5v-80z" />
    <glyph glyph-name="n" unicode="n" horiz-adv-x="593" 
d="M203 382q33 25 58.5 40.5t46.5 24.5t39.5 12t38.5 3q60 0 87 -30.5t27 -78.5v-287q0 -24 11.5 -32.5t25.5 -11t25.5 -4t11.5 -10.5q0 -5 -3.5 -7.5t-19.5 -2.5q-13 0 -29.5 0.5t-31.5 0.5t-27.5 0.5t-17.5 0.5l-105 -2q-16 0 -20 2.5t-4 7.5q0 9 11.5 10.5t25.5 4
t25.5 11t11.5 32.5v287q0 31 -20 47t-43 16q-26 0 -58 -16.5t-66 -45.5v-288q0 -23 11.5 -31.5t25.5 -11.5t25.5 -4.5t11.5 -10.5q0 -5 -4 -7.5t-20 -2.5q-13 0 -29 0.5t-31 0.5t-27 0.5t-18 0.5l-105 -2q-16 0 -20 2.5t-4 7.5q0 9 11.5 10.5t25.5 4t25.5 11t11.5 31.5v246
q0 29 -12.5 42.5t-27.5 19.5t-27.5 8.5t-12.5 9.5q0 11 15.5 14t44.5 11q26 7 57 16.5t73 29.5v-80z" />
    <glyph glyph-name="o" unicode="o" horiz-adv-x="556" 
d="M522 227q0 -48 -19 -90.5t-52 -75t-77.5 -51t-95.5 -18.5q-50 0 -94.5 18.5t-77.5 50t-52.5 74.5t-19.5 92t19 91.5t52 74.5t77.5 50.5t95.5 18.5t95.5 -18.5t77.5 -51t52 -75t19 -90.5zM278 16q63 0 93.5 51.5t30.5 159.5q0 106 -30 158.5t-95 52.5q-58 0 -90.5 -49.5
t-32.5 -161.5q0 -108 30.5 -159.5t93.5 -51.5z" />
    <glyph glyph-name="p" unicode="p" horiz-adv-x="556" 
d="M186 390q47 37 84.5 54.5t81.5 17.5q38 0 69 -14t53.5 -41t35 -65t12.5 -86q0 -55 -18.5 -103t-52.5 -84t-80.5 -56.5t-103.5 -20.5q-22 0 -38 2.5t-43 7.5v-128q0 -24 11.5 -32.5t25.5 -11t25.5 -4t11.5 -10.5q0 -5 -4 -7.5t-20 -2.5q-13 0 -29.5 0.5t-31.5 0.5t-27 0.5
t-17 0.5l-105 -2q-16 0 -20 2.5t-4 7.5q0 9 11.5 10.5t25.5 4t25.5 11t11.5 32.5v437q0 29 -12.5 42.5t-27.5 19.5t-27.5 8.5t-12.5 9.5q0 6 4 9t12 5q26 8 71.5 18.5t102.5 38.5v-72zM186 138q0 -60 22.5 -91t61.5 -31q34 0 60.5 15.5t44.5 44t27.5 68t9.5 87.5
q0 87 -36.5 133t-93.5 46q-23 0 -47.5 -13t-48.5 -35v-224z" />
    <glyph glyph-name="q" unicode="q" horiz-adv-x="556" 
d="M424 415q13 14 26.5 26t29.5 21v-588q0 -24 11.5 -32.5t25.5 -11t25.5 -4t11.5 -10.5q0 -5 -4 -7.5t-20 -2.5q-13 0 -29 0.5t-31 0.5t-27.5 0.5t-17.5 0.5l-105 -2q-16 0 -20 2.5t-4 7.5q0 9 11.5 10.5t25.5 4t25.5 11t11.5 31.5v194h-2q-25 -32 -65.5 -53.5t-89.5 -21.5
q-45 0 -78.5 16t-56 44.5t-33.5 66.5t-11 83q0 55 19 102.5t52.5 82.5t78.5 55t97 20q18 0 34 -2t32.5 -7t35 -14t41.5 -24zM265 44q45 0 69.5 22.5t35.5 54.5v205q0 54 -23 83t-73 29q-58 0 -94 -51.5t-36 -150.5q0 -41 9 -76t24.5 -60.5t38 -40.5t49.5 -15z" />
    <glyph glyph-name="r" unicode="r" horiz-adv-x="426" 
d="M207 328h2q22 63 58.5 98.5t81.5 35.5q34 0 56.5 -19.5t22.5 -52.5q0 -27 -18.5 -41.5t-40.5 -14.5q-18 0 -27.5 7.5t-17 16.5t-15.5 16.5t-22 7.5t-28 -11.5t-25 -33.5t-17.5 -53t-6.5 -70v-146q0 -25 11.5 -34t25.5 -11.5t25.5 -4t11.5 -10.5q0 -5 -4 -7.5t-20 -2.5
q-13 0 -29 0.5t-31 0.5t-27.5 0.5t-17.5 0.5l-105 -2q-16 0 -20 2.5t-4 7.5q0 9 11.5 10.5t25.5 4t25.5 11t11.5 32.5v257q0 27 -12.5 39.5t-27.5 18t-27.5 8.5t-12.5 12q0 7 8.5 8.5l25.5 4.5q23 4 61 14t92 34v-134z" />
    <glyph glyph-name="s" unicode="s" horiz-adv-x="426" 
d="M361 312q0 -9 -8 -9q-5 0 -7.5 7t-7.5 18q-6 15 -14.5 34t-23.5 36t-37.5 28.5t-55.5 11.5q-35 0 -54 -15.5t-19 -35.5q0 -28 22.5 -46.5t68.5 -37.5q32 -13 57.5 -24t44.5 -24q35 -23 50 -50.5t15 -62.5q0 -66 -48 -108t-138 -42q-48 0 -85 9t-72 22v148q0 8 7 8
q4 0 6 -2.5t4 -10.5q6 -23 19.5 -50.5t33.5 -50.5q19 -22 45 -35.5t61 -13.5q38 0 61.5 19.5t23.5 51.5q0 30 -22.5 51t-69.5 41q-33 14 -59.5 25.5t-45.5 24.5q-35 23 -48 49.5t-13 56.5q0 23 9.5 45.5t29.5 40.5t49.5 29.5t70.5 11.5q32 0 73.5 -7.5t76.5 -24.5v-118z" />
    <glyph glyph-name="t" unicode="t" horiz-adv-x="370" 
d="M210 454h137l-24 -52h-113v-262q0 -48 16.5 -75t54.5 -27q26 0 45 14.5t32 35.5q2 4 3.5 6t4.5 2q6 0 6 -7t-8 -25t-29 -36q-41 -36 -101 -36q-68 0 -101 34.5t-33 83.5v292h-74q51 46 96.5 94t87.5 108v-150z" />
    <glyph glyph-name="u" unicode="u" 
d="M197 99q0 -30 17 -45.5t41 -15.5q17 0 35.5 5t35 14t30 20.5t21.5 23.5v222q0 27 -12.5 39.5t-27.5 18.5t-27.5 9.5t-12.5 12.5q0 7 12 8.5t36 5.5t59.5 13t82.5 32v-338q0 -29 11.5 -42t25.5 -18t25.5 -7t11.5 -9q0 -5 -12.5 -8t-36.5 -7.5t-58 -13.5t-76 -27v84
q-42 -40 -84.5 -62t-98.5 -22q-52 0 -80 26.5t-28 66.5v238q0 27 -12.5 39.5t-27.5 18.5t-27.5 9.5t-12.5 12.5q0 7 12 8.5t36 5.5t59.5 13t82.5 32v-363z" />
    <glyph glyph-name="v" unicode="v" horiz-adv-x="519" 
d="M123 454q34 0 54.5 1t37.5 1q16 0 21 -2t5 -8t-6.5 -8t-20.5 -5q-26 -6 -26 -32q0 -9 6 -25l105 -253q28 57 46.5 97.5t28.5 66.5t15 47t5 42q0 27 -9 38.5t-19.5 16t-19.5 6t-9 9.5q0 5 4 7.5t15 2.5q16 0 35.5 -1t46.5 -1q23 0 34 1t22 1q20 0 20 -10q0 -6 -8.5 -10
t-19.5 -12q-13 -9 -26.5 -26.5t-27.5 -45.5l-154 -321q-7 -15 -11 -23.5t-6.5 -13t-5 -5.5t-5.5 -1q-7 0 -10 6l-6 12l-171 380q-12 27 -22.5 35t-19.5 11t-13 4.5t-4 9.5q0 5 4 7.5t15 2.5q19 0 43.5 -1t56.5 -1z" />
    <glyph glyph-name="w" unicode="w" horiz-adv-x="759" 
d="M120 454q21 0 46 1t42 1q14 0 18 -1.5t4 -8.5t-6.5 -9t-15 -4t-15 -8t-6.5 -21q0 -14 4 -24t9 -22l87 -219l83 177l-29 70q-10 23 -21 33t-20.5 13.5t-16 5t-6.5 8.5t4.5 8.5t12.5 1.5q37 0 58.5 -1t44.5 -1q32 0 54 1t35 1q16 0 20 -2t4 -8q0 -8 -8 -10t-17.5 -3.5
t-17.5 -6.5t-8 -20q0 -14 3 -23t7 -17l94 -234q38 91 57 142t22 62q7 22 7 48q0 25 -9.5 35.5t-21 14t-21 4.5t-9.5 8q0 5 4 7.5t15 2.5l71 -2h11.5t20 0.5t23.5 1t21 0.5t12 -2.5t3 -6.5q0 -7 -9 -8.5t-23 -10.5t-32.5 -30t-37.5 -67l-135 -320q-5 -11 -8.5 -17t-9.5 -6
q-9 0 -16 16l-117 290l-130 -290q-5 -12 -8.5 -14t-6.5 -2q-7 0 -11 6.5t-7 14.5l-152 382q-8 20 -18 29.5t-18.5 14t-14.5 6t-6 5.5q0 5 3.5 7.5t14.5 2.5q14 0 38.5 -1t54.5 -1z" />
    <glyph glyph-name="x" unicode="x" horiz-adv-x="556" 
d="M156 454q14 0 44 1t55 1q34 0 34 -11q0 -9 -8.5 -11t-18 -4t-18 -7.5t-8.5 -20.5q0 -19 18.5 -44t53.5 -76q24 29 37.5 47.5t21 30t9.5 19.5t2 16q0 18 -7.5 25.5t-16.5 10.5t-16.5 5t-7.5 10q0 4 5 7t21 3l73 -2q10 0 32.5 1t35.5 1q16 0 21.5 -2.5t5.5 -8.5t-4 -8
t-12.5 -4.5t-20 -6.5t-26.5 -14q-11 -7 -20.5 -15t-27.5 -28l-94 -101l144 -207q11 -17 25 -26t27 -12q18 -5 28 -6t10 -9q0 -10 -14 -10q-12 0 -30.5 0.5t-37.5 0.5t-35.5 0.5t-23.5 0.5l-122 -2q-12 0 -16 2t-4 8q0 9 9 10.5t20.5 2t20.5 4.5t9 19q0 10 -6 22.5t-17.5 31
t-29 43t-40.5 58.5q-27 -35 -48.5 -67t-21.5 -60q0 -23 8.5 -33.5t19 -15t19 -7t8.5 -8.5q0 -10 -15 -10q-6 0 -18.5 0.5t-27 0.5t-27.5 0.5t-19 0.5l-90 -2q-13 0 -17.5 1t-4.5 8q0 10 8.5 11t23 4t34 14t43.5 40l113 139l-116 175q-11 17 -23 25.5t-23 11.5
q-15 5 -25.5 5.5t-10.5 12.5q0 6 5 8.5t23 2.5z" />
    <glyph glyph-name="y" unicode="y" horiz-adv-x="519" 
d="M208 456q19 0 25 -2t6 -8q0 -8 -7.5 -10.5t-16 -5t-16 -7.5t-7.5 -18q0 -8 13 -37l106 -241q3 8 14 34t25 61q14 36 27 73.5t13 69.5t-12 45t-27 17.5t-27 6.5t-12 11q0 3 3.5 7t22.5 4q25 0 45 -1t36 -1t36.5 1t47.5 1q14 0 18.5 -4t4.5 -7q0 -11 -9.5 -12t-25.5 -9
q-15 -8 -32.5 -24.5t-34.5 -57.5l-181 -433q-14 -33 -26 -56.5t-25 -37.5t-26.5 -20.5t-30.5 -6.5q-27 0 -48.5 18.5t-21.5 54.5q0 26 15 43.5t37 17.5q19 0 29 -8.5t16.5 -18.5t11 -18.5t13.5 -8.5q7 0 12.5 3.5t11.5 14.5q6 12 16 35.5t28 63.5l-113 251q-17 37 -33 73.5
t-34 74.5q-11 23 -23 32.5t-22 13.5t-16.5 6t-6.5 9q0 8 4.5 9.5t12.5 1.5q29 0 58 -1t43 -1z" />
    <glyph glyph-name="z" unicode="z" horiz-adv-x="500" 
d="M99 456q24 0 51 -0.5t53 -0.5t47 -0.5t33 -0.5l182 2l-309 -440q78 0 139 33.5t100 84.5q16 21 25.5 40t14.5 33t8.5 22t10.5 8q8 0 8 -8t-4 -24l-45 -207q-24 0 -52.5 0.5t-55.5 0.5t-50.5 0.5t-38.5 0.5l-196 -2l313 440h-4q-44 0 -87 -14.5t-73 -36.5
q-26 -19 -46.5 -40t-32.5 -40q-14 -22 -19.5 -37t-14.5 -15q-7 0 -7 10q0 2 2 10.5t8 29.5t15.5 57.5t24.5 93.5z" />
    <glyph glyph-name="braceleft" unicode="{" horiz-adv-x="407" 
d="M310 710q-53 -3 -71.5 -35.5t-18.5 -80.5v-203q0 -63 -22.5 -91.5t-76.5 -39.5v-2q26 -6 44.5 -15t30.5 -24t18 -37.5t6 -54.5v-203q0 -48 18.5 -80.5t71.5 -35.5v-20h-10q-51 0 -85.5 8t-55.5 26t-30 47t-9 70v203q0 50 -19 76t-73 41q50 13 71 38.5t21 78.5v202
q0 44 10 73t31.5 46.5t56.5 25t86 7.5h6v-20z" />
    <glyph glyph-name="bar" unicode="|" horiz-adv-x="222" 
d="M152 730v-730h-82v730h82z" />
    <glyph glyph-name="braceright" unicode="}" horiz-adv-x="407" 
d="M97 -192q53 3 71.5 35.5t18.5 80.5v203q0 63 22.5 91.5t76.5 39.5v2q-26 6 -44.5 15t-30.5 24t-18 37.5t-6 54.5v203q0 48 -18.5 80.5t-71.5 35.5v20h10q50 0 84.5 -7.5t55.5 -25.5t30.5 -47t9.5 -71v-203q0 -50 19 -76t73 -41q-50 -13 -71 -38.5t-21 -78.5v-202
q0 -44 -10 -73t-31.5 -46.5t-56.5 -25t-86 -7.5h-6v20z" />
    <glyph glyph-name="asciitilde" unicode="~" horiz-adv-x="600" 
d="M511 231q-34 -44 -59.5 -61t-56.5 -17q-27 0 -49 9.5t-44 21.5t-45.5 21.5t-54.5 9.5q-29 0 -47 -19.5t-30 -44.5l-36 70q26 42 53.5 60t62.5 18q24 0 50.5 -9.5t52 -20.5t48.5 -20.5t40 -9.5q27 0 45 20t34 44z" />
    <glyph glyph-name="uni00A0" unicode="&#xa0;" horiz-adv-x="287" 
 />
    <glyph glyph-name="exclamdown" unicode="&#xa1;" horiz-adv-x="407" 
d="M267 -94q0 -34 -5 -57t-13.5 -36.5t-20 -19t-24.5 -5.5q-33 0 -48 30t-15 88q0 28 2.5 53t7 49.5t10.5 50.5t12 58q3 17 6 33t5.5 33.5t4.5 37.5t5 45q2 13 5 15.5t5 2.5q6 0 8 -8t4 -25q2 -25 6.5 -62t18.5 -102q6 -29 11 -52t8 -44t5 -41t2 -44zM276 426q0 -30 -21 -51
t-51 -21t-51 21t-21 51t21 51t51 21t51 -21t21 -51z" />
    <glyph glyph-name="cent" unicode="&#xa2;" 
d="M464 678h31l-79 -144q29 -17 49 -45.5t20 -63.5q0 -32 -19 -47.5t-40 -15.5q-28 0 -43.5 21t-17.5 48h-2l-110 -199q12 -14 40.5 -23t53.5 -9q43 0 67.5 12.5t38 27t19 26.5t11.5 12q7 0 7 -10q0 -6 -9.5 -30t-31 -51t-57.5 -48t-89 -21q-33 0 -57 6.5t-43 16.5l-80 -143
h-32l88 158q-19 13 -35.5 32.5t-29 43t-20 49t-7.5 51.5q0 48 17.5 89.5t47 72.5t69 49.5t83.5 18.5q30 0 49 -4t38 -14zM365 498q-10 46 -66 46q-53 0 -85.5 -42.5t-32.5 -112.5q0 -40 13.5 -77.5t35.5 -57.5z" />
    <glyph glyph-name="sterling" unicode="&#xa3;" 
d="M414 648q13 0 17.5 4.5t6 10.5t3 10.5t7.5 4.5q5 0 6 -2.5t3 -13.5q3 -24 7 -56.5t8 -63t6.5 -53.5t2.5 -27q0 -14 -8 -14q-5 0 -7 3t-9 19q-3 7 -7 17.5t-11 24.5q-39 85 -85.5 120.5t-88.5 35.5q-46 0 -73 -29t-27 -69q0 -24 5.5 -41.5t14 -30.5t20 -24t23.5 -21
q19 -17 38.5 -34.5t36.5 -34.5h127v-46h-100q11 -23 15.5 -49t4.5 -45q0 -31 -8.5 -60.5t-23.5 -56.5q27 -18 48 -26.5t44 -8.5q34 0 55.5 13t34.5 34t19 48.5t10 57.5q1 5 2.5 8.5t6.5 3.5q7 0 9.5 -3t2.5 -15q0 -54 -13 -100.5t-36 -81t-54 -54t-68 -19.5q-40 0 -67 16
t-46 33q-18 -12 -32 -20t-26 -12.5t-23.5 -6.5t-24.5 -2q-45 0 -75 24.5t-30 72.5q0 15 5.5 33t18 33.5t33.5 26.5t52 11q34 0 69 -16.5t68 -38.5q7 14 7 25q0 42 -32.5 89t-98.5 86h-143v46h92q-19 26 -29 52.5t-10 58.5q0 37 13.5 71.5t37.5 61t57 42.5t73 16q27 0 48 -6
t38 -13t31.5 -13t28.5 -6zM155 16q31 0 53.5 9.5t41.5 25.5q-31 38 -56 63t-59 25q-23 0 -39.5 -15.5t-16.5 -38.5q0 -26 21.5 -47.5t54.5 -21.5z" />
    <glyph glyph-name="currency" unicode="&#xa4;" 
d="M146 529q27 23 65 35.5t76 12.5t76 -12.5t65 -35.5l54 54l49 -49l-53 -53q23 -26 35 -63t12 -79q0 -28 -5 -51t-12 -41.5t-15.5 -31.5t-14.5 -20l53 -52l-49 -49l-54 54q-27 -23 -63 -35t-78 -12q-38 0 -76 12t-65 35l-54 -54l-49 49l53 52q-23 28 -35 65t-12 79t12 79
t35 63l-53 53l49 49zM287 167q35 0 65 14t52.5 37.5t35.5 54.5t13 65t-12.5 65.5t-35 55.5t-53 38t-66.5 14q-34 0 -64 -14t-52.5 -37.5t-35.5 -55t-13 -66.5t13 -66t35.5 -54t52.5 -37t65 -14z" />
    <glyph glyph-name="yen" unicode="&#xa5;" 
d="M120 678q6 0 19 0.5t28.5 0.5t32 0.5t30.5 0.5q13 0 17.5 -3.5t4.5 -9.5q0 -7 -10 -9t-22 -5t-22 -11t-10 -27q0 -10 6 -27t27 -55l106 -191q42 63 70.5 104t45.5 69.5t24 49t7 41.5q0 25 -12 35t-27 13.5t-27 4.5t-12 9t8 10t24 2l89 -2h13.5t21.5 0.5t24.5 1t23.5 0.5
q28 0 28 -12q0 -6 -10 -8.5t-28.5 -13.5t-46 -36.5t-62.5 -77.5l-94 -140h129v-46h-159l-15 -22v-63h174v-46h-174v-143q0 -26 15 -34.5t33 -11t33 -3.5t15 -11q0 -14 -33 -14q-23 0 -48.5 1t-69.5 1t-69.5 -1t-48.5 -1q-17 0 -23 3t-6 11q0 9 14.5 10.5t31.5 4t31.5 11.5
t14.5 33v144h-168v46h168v50l-19 35h-149v46h123l-120 214q-11 19 -22 29t-23 15q-10 4 -19.5 6t-17 3t-12 2.5t-4.5 5.5q0 7 4 10t24 3z" />
    <glyph glyph-name="brokenbar" unicode="&#xa6;" horiz-adv-x="222" 
d="M152 730v-272h-82v272h82zM152 272v-272h-82v272h82z" />
    <glyph glyph-name="section" unicode="&#xa7;" horiz-adv-x="500" 
d="M373 662q9 0 16 3.5t12.5 8t9.5 8.5t7 4q5 0 6.5 -3.5t1.5 -7.5v-164q0 -9 -9 -9q-6 0 -9 12t-11 37q-13 40 -28.5 61t-38.5 36q-33 22 -74 22q-33 0 -57.5 -19.5t-24.5 -48.5q0 -31 25.5 -56.5t76.5 -53.5q33 -18 61.5 -33.5t49.5 -31.5q42 -32 58.5 -62.5t16.5 -63.5
q0 -52 -24.5 -87.5t-84.5 -61.5q48 -23 69 -52.5t21 -65.5q0 -25 -10 -52.5t-32.5 -51t-60.5 -39t-93 -15.5q-32 0 -56.5 6t-42.5 13.5t-30.5 14t-19.5 6.5t-13.5 -4.5t-13 -10.5t-12.5 -10.5t-10 -4.5q-11 0 -11 12v188q0 4 1 8t7 4t10.5 -12t16.5 -40q12 -27 27 -53
t36 -47t48.5 -33.5t63.5 -12.5q48 0 71.5 24t23.5 56t-26 54t-80 45q-31 14 -56.5 25t-45.5 23q-49 29 -70 63t-21 76q0 57 36 97.5t102 54.5q-30 21 -50.5 38t-33 34t-18.5 35t-6 41q0 55 43 91.5t120 36.5q30 0 52.5 -5t38.5 -11t27 -11t18 -5zM328 162q23 14 36.5 34
t13.5 46q0 41 -41.5 75.5t-130.5 82.5q-15 0 -29.5 -7t-25 -18.5t-17 -26t-6.5 -28.5q0 -35 23.5 -56.5t57.5 -40.5q27 -15 57.5 -30.5t61.5 -30.5z" />
    <glyph glyph-name="dieresis" unicode="&#xa8;" horiz-adv-x="296" 
d="M100 579q0 -22 -15.5 -37.5t-37.5 -15.5t-37.5 15.5t-15.5 37.5t15.5 37.5t37.5 15.5t37.5 -15.5t15.5 -37.5zM302 579q0 -22 -15.5 -37.5t-37.5 -15.5t-37.5 15.5t-15.5 37.5t15.5 37.5t37.5 15.5t37.5 -15.5t15.5 -37.5z" />
    <glyph glyph-name="copyright" unicode="&#xa9;" horiz-adv-x="800" 
d="M748 339q0 -74 -26.5 -139t-73.5 -113t-110.5 -75.5t-137.5 -27.5t-138 28t-110.5 76t-73 112.5t-26.5 138.5q0 73 26.5 138t73 113t110 76t138.5 28q74 0 138 -28t110.5 -76t73 -113t26.5 -138zM400 40q58 0 108 24t87 65t58 95t21 114t-21 114.5t-58 95.5t-87.5 65.5
t-108.5 24.5q-57 0 -107 -24.5t-87 -65.5t-58 -95.5t-21 -114.5q0 -61 21.5 -115t58.5 -94.5t87 -64.5t107 -24zM554 436h-18q-13 42 -39.5 65t-69.5 23q-50 0 -81.5 -41t-31.5 -128q0 -98 27.5 -141.5t87.5 -43.5q45 0 75.5 26t47.5 64h18l-16 -80q-3 -5 -17 -11t-33 -11
t-41 -8.5t-43 -3.5q-103 0 -160.5 52.5t-57.5 151.5q0 43 15.5 79.5t44.5 63t71 41t95 14.5q24 0 46.5 -3.5t40.5 -9t28.5 -12.5t10.5 -13v-74z" />
    <glyph glyph-name="ordfeminine" unicode="&#xaa;" horiz-adv-x="300" 
d="M264 448q0 -14 12 -14q8 0 14 3t10 7t6 7t7 3q8 0 8 -9q0 -5 -5.5 -12t-15 -13.5t-23 -11t-28.5 -4.5q-26 0 -38 9.5t-17 28.5q-24 -15 -51.5 -26.5t-60.5 -11.5q-30 0 -49 14t-19 40q0 40 45 64.5t133 50.5v74q0 9 -5.5 15t-18.5 6q-25 0 -39.5 -12t-19.5 -26
q-4 -11 -6 -21.5t-6.5 -19t-13.5 -14t-27 -5.5q-16 0 -24.5 8.5t-8.5 20.5q0 15 14 30.5t36.5 28t51.5 20.5t59 8q44 0 62 -19t18 -51v-168zM121 428q11 0 22.5 4t21.5 10t17.5 12t9.5 9v94q-5 -2 -16.5 -6t-25.5 -10q-22 -9 -43 -24t-21 -40q0 -16 7 -32.5t28 -16.5z" />
    <glyph glyph-name="guillemotleft" unicode="&#xab;" horiz-adv-x="463" 
d="M258 414q0 -2 -2.5 -7l-4.5 -9l-97 -151q-2 -3 -7 -10t-5 -11q0 -2 4.5 -8t10.5 -16q13 -20 32 -49t36 -57q11 -19 22 -34.5t11 -21.5t-6 -6q-5 0 -8 2.5t-8 7.5l-163 170q-5 5 -6 7.5t-1 5.5q0 6 3.5 9t8.5 9l143 149q11 12 17.5 19t13.5 7q6 0 6 -6zM397 414
q0 -2 -2.5 -7l-4.5 -9l-97 -151q-2 -3 -7 -10t-5 -11q0 -2 4.5 -8t10.5 -16q13 -20 32 -49t36 -57q11 -19 22 -34.5t11 -21.5t-6 -6q-5 0 -8 2.5t-8 7.5l-163 170q-5 5 -6 7.5t-1 5.5q0 6 3.5 9t8.5 9l143 149q11 12 17.5 19t13.5 7q6 0 6 -6z" />
    <glyph glyph-name="logicalnot" unicode="&#xac;" horiz-adv-x="600" 
d="M527 358v-262h-82v180h-372v82h454z" />
    <glyph glyph-name="uni00AD" unicode="&#xad;" horiz-adv-x="333" 
d="M289 273v-92h-246v92h246z" />
    <glyph glyph-name="registered" unicode="&#xae;" horiz-adv-x="800" 
d="M748 339q0 -74 -26.5 -138.5t-73 -112.5t-110.5 -76t-138 -28t-138 28t-110.5 76t-73 112.5t-26.5 138.5q0 73 26.5 138t73 113t110 76t138.5 28t138.5 -28t110 -76t73 -113t26.5 -138zM400 40q58 0 108 24t87 65t58 95t21 114t-21 114.5t-57.5 95.5t-87 65.5
t-109.5 24.5q-57 0 -107 -24t-87 -65.5t-58 -96t-21 -114.5q0 -61 21.5 -115t58.5 -94.5t87 -64.5t107 -24zM424 535q51 0 83 -25t32 -71q0 -37 -21 -65.5t-53 -39.5l51 -72q46 -65 73 -91v-15h-75q-8 0 -14.5 5.5t-13.5 13.5q-10 12 -21 30.5t-22 39t-23 41t-23 36.5h-34
v-110q0 -13 1 -20t6 -11t14 -5t26 -2v-18h-176v18q15 1 23.5 2.5t13 5.5t5.5 11.5t1 20.5v260q0 13 -1 20.5t-5.5 12t-13 6.5t-23.5 4v18h190zM363 346h30q28 0 43 19t15 70q0 37 -12 56.5t-44 19.5h-32v-165z" />
    <glyph glyph-name="macron" unicode="&#xaf;" horiz-adv-x="296" 
d="M306 610v-60h-316v60h316z" />
    <glyph glyph-name="degree" unicode="&#xb0;" horiz-adv-x="400" 
d="M343 543q0 -29 -11 -55t-30 -45.5t-45 -31t-57 -11.5q-30 0 -56 11t-45.5 30.5t-30.5 45.5t-11 56t11 56.5t30.5 45.5t45.5 30t56 11t56.5 -11t45.5 -30.5t30 -45.5t11 -56zM200 450q19 0 35 8t28 20.5t19 29.5t7 35t-7 35t-19 29.5t-28.5 20.5t-35.5 8q-18 0 -34 -7.5
t-28 -20.5t-19 -30t-7 -35t7 -35t19 -29.5t28 -20.5t35 -8z" />
    <glyph glyph-name="plusminus" unicode="&#xb1;" horiz-adv-x="600" 
d="M341 454v-129h186v-82h-186v-129h-82v129h-186v82h186v129h82zM527 82v-82h-454v82h454z" />
    <glyph glyph-name="uni00B2" unicode="&#xb2;" horiz-adv-x="344" 
d="M316 568q0 -47 -27 -75.5t-77 -53.5q-31 -15 -52 -27t-35.5 -23t-24.5 -21.5t-19 -23.5h150q22 0 34.5 7.5t20 17t11.5 17t10 7.5q8 0 8 -8q0 -3 -3.5 -15.5t-8 -29t-10 -34.5t-9.5 -32h-257q2 43 26.5 77.5t76.5 72.5q52 37 78 65t26 63q0 37 -25.5 59.5t-60.5 22.5
q-33 0 -52 -11.5t-29.5 -25t-16.5 -25t-13 -11.5q-10 0 -10 10q0 7 8 25.5t26 38.5t47 35.5t70 15.5q26 0 50 -8t43 -24q20 -17 32.5 -39.5t12.5 -46.5z" />
    <glyph glyph-name="uni00B3" unicode="&#xb3;" horiz-adv-x="344" 
d="M297 587q0 -21 -10.5 -38t-28.5 -32q33 -19 52 -46.5t19 -59.5q0 -21 -11 -46t-33.5 -46.5t-56.5 -36t-80 -14.5q-66 0 -101 25.5t-35 57.5q0 15 9.5 27t28.5 12q23 0 34.5 -11.5t16.5 -37.5q5 -28 17.5 -41.5t40.5 -13.5q38 0 63 26t25 68q0 43 -22.5 70t-69.5 27
q-20 0 -20 8q0 7 3.5 8.5t5.5 1.5q28 0 49.5 20t21.5 56q0 24 -17.5 45.5t-54.5 21.5q-20 0 -33.5 -7.5t-23.5 -16.5t-16.5 -16.5t-11.5 -7.5q-8 0 -8 9q0 7 8 21.5t24 29t39.5 25.5t54.5 11q23 0 45 -7.5t39 -20.5t27 -31t10 -40z" />
    <glyph glyph-name="acute" unicode="&#xb4;" horiz-adv-x="296" 
d="M300 650q0 -25 -33 -46l-148 -94h-47l133 139q22 23 33 31t25 8t25.5 -10.5t11.5 -27.5z" />
    <glyph glyph-name="uni00B5" unicode="&#xb5;" 
d="M197 98q0 -30 17 -45t41 -15q17 0 35.5 5t35 14t30 20.5t21.5 23.5v222q0 27 -12.5 39.5t-27.5 18.5t-27.5 9.5t-12.5 12.5q0 7 9 8.5t26 3.5q20 3 60 12t95 35v-339q0 -28 11.5 -41t25.5 -18.5t25.5 -7.5t11.5 -8q0 -5 -12.5 -8t-36.5 -7.5t-58 -13.5t-76 -27v84
q-42 -40 -84 -62t-97 -22q0 -27 2 -61t2 -60q0 -45 -18 -64t-44 -19q-28 0 -43 19t-15 61q0 15 1 43t2 61.5t2 69.5t1 68v213q0 27 -12.5 39.5t-27.5 18.5t-27.5 9.5t-12.5 12.5q0 7 12 8.5t36 5.5t59.5 13t82.5 32v-364z" />
    <glyph glyph-name="paragraph" unicode="&#xb6;" horiz-adv-x="600" 
d="M530 678v-24q-38 0 -54 -17t-16 -43v-716h-82v770h-59v-770h-82v389q-88 0 -134.5 57t-46.5 156q0 97 53 147.5t154 50.5h267z" />
    <glyph glyph-name="periodcentered" unicode="&#xb7;" horiz-adv-x="287" 
d="M215 227q0 -30 -21 -51t-51 -21t-51 21t-21 51t21 51t51 21t51 -21t21 -51z" />
    <glyph glyph-name="cedilla" unicode="&#xb8;" horiz-adv-x="296" 
d="M130 0h37l-28 -64q7 2 16.5 3t16.5 1q40 0 60.5 -20.5t20.5 -50.5q0 -42 -32 -63.5t-92 -21.5q-23 0 -41.5 3t-44.5 14l14 33q12 -5 25.5 -8.5t30.5 -3.5q62 0 62 40t-46 40q-7 0 -15 -1.5t-13 -4.5l-14 6z" />
    <glyph glyph-name="uni00B9" unicode="&#xb9;" horiz-adv-x="344" 
d="M222 339q0 -13 2.5 -22t10.5 -14.5t23 -8t39 -2.5q17 0 17 -10q0 -5 -2.5 -7.5t-12.5 -2.5q-19 0 -50.5 1t-71.5 1t-72.5 -1t-52.5 -1q-13 0 -13 10t13 10q30 0 47 2.5t25 8t10 14.5t2 23v268q0 12 -12 12h-78q-10 0 -10 10q0 8 14 9t42 5q26 4 39 7.5t25 7.5q29 9 39 18
t18 9q9 0 9 -10v-337z" />
    <glyph glyph-name="ordmasculine" unicode="&#xba;" horiz-adv-x="334" 
d="M326 545q0 -29 -12.5 -54.5t-34 -45t-50.5 -30.5t-62 -11t-62 11t-50.5 30t-34 45t-12.5 55q0 30 12.5 55.5t34.5 44.5t51 30t61 11q33 0 62 -11t50.5 -30t34 -45t12.5 -55zM167 422q38 0 59.5 33t21.5 90t-20.5 90t-61.5 33q-36 0 -58 -31.5t-22 -91.5q0 -57 21.5 -90
t59.5 -33z" />
    <glyph glyph-name="guillemotright" unicode="&#xbb;" horiz-adv-x="463" 
d="M66 414q0 6 6 6q7 0 13.5 -7t17.5 -19l143 -149q5 -6 8.5 -9t3.5 -9q0 -3 -1 -5.5t-6 -7.5l-163 -170q-5 -5 -8 -7.5t-8 -2.5q-6 0 -6 6t11 21.5t22 34.5q17 28 36 57t32 49q6 10 10.5 16t4.5 8q0 4 -5 11t-7 10l-97 151l-4.5 9t-2.5 7zM205 414q0 6 6 6q7 0 13.5 -7
t17.5 -19l143 -149q5 -6 8.5 -9t3.5 -9q0 -3 -1 -5.5t-6 -7.5l-163 -170q-5 -5 -8 -7.5t-8 -2.5q-6 0 -6 6t11 21.5t22 34.5q17 28 36 57t32 49q6 10 10.5 16t4.5 8q0 4 -5 11t-7 10l-97 151l-4.5 9t-2.5 7z" />
    <glyph glyph-name="onequarter" unicode="&#xbc;" horiz-adv-x="861" 
d="M746 408h28v-258h79l-18 -42h-61v-52q0 -12 5 -19.5t12.5 -11.5t16 -5.5t16.5 -2.5q14 -2 14 -7q0 -8 -3 -10t-15 -2q-11 0 -23.5 0.5t-24 0.5t-21.5 0.5t-14 0.5l-80 -2q-12 0 -14.5 2.5t-2.5 9.5t13 8q6 1 14 1.5t15 3t11.5 8.5t4.5 17v60h-169l-18 29zM560 150h138
v158h-2zM214 339q0 -13 2.5 -22t10.5 -14.5t23 -8t39 -2.5q17 0 17 -10q0 -5 -2.5 -7.5t-12.5 -2.5q-19 0 -50.5 1t-71.5 1t-72.5 -1t-52.5 -1q-13 0 -13 10t13 10q30 0 47 2.5t25 8t10 14.5t2 23v268q0 12 -12 12h-78q-10 0 -10 10q0 8 14 9t42 5q26 4 39 7.5t25 7.5
q29 9 39 18t18 9q9 0 9 -10v-337zM708 686l-428 -694h-73l430 694h71z" />
    <glyph glyph-name="onehalf" unicode="&#xbd;" horiz-adv-x="861" 
d="M214 339q0 -13 2.5 -22t10.5 -14.5t23 -8t39 -2.5q17 0 17 -10q0 -5 -2.5 -7.5t-12.5 -2.5q-19 0 -50.5 1t-71.5 1t-72.5 -1t-52.5 -1q-13 0 -13 10t13 10q30 0 47 2.5t25 8t10 14.5t2 23v268q0 12 -12 12h-78q-10 0 -10 10q0 8 14 9t42 5q26 4 39 7.5t25 7.5q29 9 39 18
t18 9q9 0 9 -10v-337zM684 686l-428 -694h-73l430 694h71zM840 293q0 -47 -27 -75.5t-77 -53.5q-31 -15 -52 -27t-35.5 -23t-24.5 -21.5t-19 -23.5h150q22 0 34.5 7.5t20 17t11.5 17t10 7.5q8 0 8 -8q0 -3 -3.5 -15.5t-8 -29t-10 -34.5t-9.5 -32h-257q2 43 26.5 77.5
t76.5 72.5q52 37 78 65t26 63q0 37 -25.5 59.5t-60.5 22.5q-33 0 -52 -11.5t-29.5 -25t-16.5 -25t-13 -11.5q-10 0 -10 10q0 7 8 25.5t26 38.5t47 35.5t70 15.5q26 0 50 -8t43 -24q20 -17 32.5 -39.5t12.5 -46.5z" />
    <glyph glyph-name="threequarters" unicode="&#xbe;" horiz-adv-x="861" 
d="M746 408h28v-258h79l-18 -42h-61v-52q0 -12 5 -19.5t12.5 -11.5t16 -5.5t16.5 -2.5q14 -2 14 -7q0 -8 -3 -10t-15 -2q-11 0 -23.5 0.5t-24 0.5t-21.5 0.5t-14 0.5l-80 -2q-12 0 -14.5 2.5t-2.5 9.5t13 8q6 1 14 1.5t15 3t11.5 8.5t4.5 17v60h-169l-18 29zM560 150h138
v158h-2zM311 587q0 -21 -10.5 -38t-28.5 -32q33 -19 52 -46.5t19 -59.5q0 -21 -11 -46t-33.5 -46.5t-56.5 -36t-80 -14.5q-66 0 -101 25.5t-35 57.5q0 15 9.5 27t28.5 12q23 0 34.5 -11.5t16.5 -37.5q5 -28 17.5 -41.5t40.5 -13.5q38 0 63 26t25 68q0 43 -22.5 70t-69.5 27
q-20 0 -20 8q0 7 3.5 8.5t5.5 1.5q28 0 49.5 20t21.5 56q0 24 -17.5 45.5t-54.5 21.5q-20 0 -33.5 -7.5t-23.5 -16.5t-16.5 -16.5t-11.5 -7.5q-8 0 -8 9q0 7 8 21.5t24 29t39.5 25.5t54.5 11q23 0 45 -7.5t39 -20.5t27 -31t10 -40zM716 686l-428 -694h-73l430 694h71z" />
    <glyph glyph-name="questiondown" unicode="&#xbf;" 
d="M63 17q0 43 15 80.5t42.5 65.5t65.5 44t84 16q9 0 16.5 -0.5t16.5 -2.5v71l35 8q9 -44 15.5 -72.5t12.5 -50t12 -40t14 -43.5l-25 -15q-15 12 -26.5 20.5t-23 13.5t-23.5 7t-27 2q-37 0 -65.5 -12.5t-47.5 -34.5t-29 -50.5t-10 -59.5q0 -28 11 -54t29.5 -45.5t43.5 -31
t52 -11.5q39 0 62.5 20t40.5 61t32.5 61.5t45.5 20.5t44 -19t14 -46t-15 -51t-39.5 -42t-57 -28.5t-67.5 -10.5q-57 0 -103 19t-78 50.5t-49.5 73t-17.5 86.5zM249 426q0 30 21 51t51 21t51 -21t21 -51t-21 -51t-51 -21t-51 21t-21 51z" />
    <glyph glyph-name="Agrave" unicode="&#xc0;" horiz-adv-x="667" 
d="M608 64q16 -37 51 -42q14 -2 19 -4t5 -8q0 -7 -3.5 -9.5t-17.5 -2.5q-15 0 -32.5 0.5t-34 0.5t-30 0.5t-19.5 0.5l-116 -2q-13 0 -16.5 3.5t-3.5 8.5q0 8 9 10t26 4q35 5 35 35q0 7 -4 20t-19 49l-51 116h-222q-14 -42 -27 -76.5t-13 -58.5q0 -28 7.5 -44t18 -25t22 -12
t18.5 -6q8 -3 12.5 -5.5t4.5 -7.5q0 -7 -3 -9t-14 -2q-14 0 -30.5 0.5t-32 1t-28.5 0.5h-19l-99 -2q-11 0 -14 3.5t-3 8.5q0 7 7 9.5t22 5.5q23 5 36.5 15.5t27.5 30.5q17 23 32 52.5t28 61.5l110 273q2 6 6.5 17t9 22.5t8 21t3.5 11.5q0 3 -4 7.5t-8.5 9.5t-8 10.5
t-3.5 10.5t2.5 8.5t5.5 6.5q5 5 12 14t17 27q8 16 14 30t9 24q4 11 6 15.5t8 4.5q5 0 9 -8.5t9 -23.5t17.5 -47t36.5 -86zM194 268h202l-108 246zM393 718h-47l-142 90q-15 10 -27 21.5t-12 28.5q0 16 11 27t25 11q18 0 30.5 -11.5t26.5 -25.5z" />
    <glyph glyph-name="Aacute" unicode="&#xc1;" horiz-adv-x="667" 
d="M608 64q16 -37 51 -42q14 -2 19 -4t5 -8q0 -7 -3.5 -9.5t-17.5 -2.5q-15 0 -32.5 0.5t-34 0.5t-30 0.5t-19.5 0.5l-116 -2q-13 0 -16.5 3.5t-3.5 8.5q0 8 9 10t26 4q35 5 35 35q0 7 -4 20t-19 49l-51 116h-222q-14 -42 -27 -76.5t-13 -58.5q0 -28 7.5 -44t18 -25t22 -12
t18.5 -6q8 -3 12.5 -5.5t4.5 -7.5q0 -7 -3 -9t-14 -2q-14 0 -30.5 0.5t-32 1t-28.5 0.5h-19l-99 -2q-11 0 -14 3.5t-3 8.5q0 7 7 9.5t22 5.5q23 5 36.5 15.5t27.5 30.5q17 23 32 52.5t28 61.5l110 273q2 6 6.5 17t9 22.5t8 21t3.5 11.5q0 3 -4 7.5t-8.5 9.5t-8 10.5
t-3.5 10.5t2.5 8.5t5.5 6.5q5 5 12 14t17 27q8 16 14 30t9 24q4 11 6 15.5t8 4.5q5 0 9 -8.5t9 -23.5t17.5 -47t36.5 -86zM194 268h202l-108 246zM469 858q0 -25 -33 -46l-148 -94h-47l133 139q22 23 33 31t25 8t25.5 -10.5t11.5 -27.5z" />
    <glyph glyph-name="Acircumflex" unicode="&#xc2;" horiz-adv-x="667" 
d="M608 64q16 -37 51 -42q14 -2 19 -4t5 -8q0 -7 -3.5 -9.5t-17.5 -2.5q-15 0 -32.5 0.5t-34 0.5t-30 0.5t-19.5 0.5l-116 -2q-13 0 -16.5 3.5t-3.5 8.5q0 8 9 10t26 4q35 5 35 35q0 7 -4 20t-19 49l-51 116h-222q-14 -42 -27 -76.5t-13 -58.5q0 -28 7.5 -44t18 -25t22 -12
t18.5 -6q8 -3 12.5 -5.5t4.5 -7.5q0 -7 -3 -9t-14 -2q-14 0 -30.5 0.5t-32 1t-28.5 0.5h-19l-99 -2q-11 0 -14 3.5t-3 8.5q0 7 7 9.5t22 5.5q23 5 36.5 15.5t27.5 30.5q17 23 32 52.5t28 61.5l110 273q2 6 6.5 17t9 22.5t8 21t3.5 11.5q0 3 -4 7.5t-8.5 9.5t-8 10.5
t-3.5 10.5t2.5 8.5t5.5 6.5q5 5 12 14t17 27q8 16 14 30t9 24q4 11 6 15.5t8 4.5q5 0 9 -8.5t9 -23.5t17.5 -47t36.5 -86zM194 268h202l-108 246zM351 886l124 -168h-43l-115 102l-115 -102h-43l124 168h68z" />
    <glyph glyph-name="Atilde" unicode="&#xc3;" horiz-adv-x="667" 
d="M608 64q16 -37 51 -42q14 -2 19 -4t5 -8q0 -7 -3.5 -9.5t-17.5 -2.5q-15 0 -32.5 0.5t-34 0.5t-30 0.5t-19.5 0.5l-116 -2q-13 0 -16.5 3.5t-3.5 8.5q0 8 9 10t26 4q35 5 35 35q0 7 -4 20t-19 49l-51 116h-222q-14 -42 -27 -76.5t-13 -58.5q0 -28 7.5 -44t18 -25t22 -12
t18.5 -6q8 -3 12.5 -5.5t4.5 -7.5q0 -7 -3 -9t-14 -2q-14 0 -30.5 0.5t-32 1t-28.5 0.5h-19l-99 -2q-11 0 -14 3.5t-3 8.5q0 7 7 9.5t22 5.5q23 5 36.5 15.5t27.5 30.5q17 23 32 52.5t28 61.5l110 273q2 6 6.5 17t9 22.5t8 21t3.5 11.5q0 3 -4 7.5t-8.5 9.5t-8 10.5
t-3.5 10.5t2.5 8.5t5.5 6.5q5 5 12 14t17 27q8 16 14 30t9 24q4 11 6 15.5t8 4.5q5 0 9 -8.5t9 -23.5t17.5 -47t36.5 -86zM194 268h202l-108 246zM488 854q-17 -52 -40 -81t-70 -29q-25 0 -44 7t-35.5 16t-33 16t-35.5 7q-22 0 -34 -13.5t-18 -34.5h-32q11 51 39.5 80.5
t69.5 29.5q23 0 42 -7.5t36 -16.5t33.5 -16.5t34.5 -7.5q15 0 28 9t25 41h34z" />
    <glyph glyph-name="Adieresis" unicode="&#xc4;" horiz-adv-x="667" 
d="M608 64q16 -37 51 -42q14 -2 19 -4t5 -8q0 -7 -3.5 -9.5t-17.5 -2.5q-15 0 -32.5 0.5t-34 0.5t-30 0.5t-19.5 0.5l-116 -2q-13 0 -16.5 3.5t-3.5 8.5q0 8 9 10t26 4q35 5 35 35q0 7 -4 20t-19 49l-51 116h-222q-14 -42 -27 -76.5t-13 -58.5q0 -28 7.5 -44t18 -25t22 -12
t18.5 -6q8 -3 12.5 -5.5t4.5 -7.5q0 -7 -3 -9t-14 -2q-14 0 -30.5 0.5t-32 1t-28.5 0.5h-19l-99 -2q-11 0 -14 3.5t-3 8.5q0 7 7 9.5t22 5.5q23 5 36.5 15.5t27.5 30.5q17 23 32 52.5t28 61.5l110 273q2 6 6.5 17t9 22.5t8 21t3.5 11.5q0 3 -4 7.5t-8.5 9.5t-8 10.5
t-3.5 10.5t2.5 8.5t5.5 6.5q5 5 12 14t17 27q8 16 14 30t9 24q4 11 6 15.5t8 4.5q5 0 9 -8.5t9 -23.5t17.5 -47t36.5 -86zM194 268h202l-108 246zM269 787q0 -22 -15.5 -37.5t-37.5 -15.5t-37.5 15.5t-15.5 37.5t15.5 37.5t37.5 15.5t37.5 -15.5t15.5 -37.5zM471 787
q0 -22 -15.5 -37.5t-37.5 -15.5t-37.5 15.5t-15.5 37.5t15.5 37.5t37.5 15.5t37.5 -15.5t15.5 -37.5z" />
    <glyph glyph-name="Aring" unicode="&#xc5;" horiz-adv-x="667" 
d="M608 64q16 -37 51 -42q14 -2 19 -4t5 -8q0 -7 -3.5 -9.5t-17.5 -2.5q-15 0 -32.5 0.5t-34 0.5t-30 0.5t-19.5 0.5l-116 -2q-13 0 -16.5 3.5t-3.5 8.5q0 8 9 10t26 4q35 5 35 35q0 7 -4 20t-19 49l-51 116h-222q-14 -42 -27 -76.5t-13 -58.5q0 -28 7.5 -44t18 -25t22 -12
t18.5 -6q8 -3 12.5 -5.5t4.5 -7.5q0 -7 -3 -9t-14 -2q-14 0 -30.5 0.5t-32 1t-28.5 0.5h-19l-99 -2q-11 0 -14 3.5t-3 8.5q0 7 7 9.5t22 5.5q23 5 36.5 15.5t27.5 30.5q17 23 32 52.5t28 61.5l110 273q2 6 6.5 17t9 22.5t8 21t3.5 11.5q0 3 -4 7.5t-8.5 9.5t-8 10.5
t-3.5 10.5t2.5 8.5t5.5 6.5q5 5 12 14t17 27q8 16 14 30t9 24q4 11 6 15.5t8 4.5q5 0 9 -8.5t9 -23.5t17.5 -47t36.5 -86zM194 268h202l-108 246zM418 820q0 -21 -8 -39.5t-22 -32.5t-32.5 -22t-38.5 -8t-38.5 8t-32.5 22t-22 32.5t-8 39.5t8 39t22 31.5t32 21.5t39 8
t39.5 -8t32 -22t21.5 -32t8 -38zM317 756q27 0 45 18t18 45t-18 45t-46 18q-26 0 -44 -18t-18 -45t18 -45t45 -18z" />
    <glyph glyph-name="AE" unicode="&#xc6;" horiz-adv-x="1000" 
d="M607 678q20 0 50.5 0.5t65.5 0.5t71 0.5t68 0.5q7 -27 16 -62.5t17.5 -68.5t14.5 -56.5t6 -25.5q0 -10 -8 -10q-4 0 -6.5 4.5t-6.5 12.5t-10 20.5t-16 28.5q-16 26 -33 47.5t-42 38.5q-15 10 -33.5 19t-43 15t-56.5 9.5t-74 3.5h-32v-302h26q31 0 58 7.5t46.5 23t31 40.5
t11.5 61q0 9 2 15.5t10 6.5q12 0 12 -17v-303q0 -16 -12 -16q-7 0 -9.5 4.5t-2.5 18.5q-1 64 -37.5 99.5t-114.5 35.5h-21v-254q0 -25 18 -39.5t66 -14.5q72 0 122 21.5t83.5 52t52.5 65t28 60.5q7 18 10 30t12 12t9 -11q0 -4 -0.5 -11t-2.5 -18l-42 -225q-101 1 -201.5 1.5
t-201.5 0.5q-31 0 -50 -0.5t-32.5 -0.5t-24.5 -0.5t-24 -0.5q-16 0 -20.5 3t-4.5 11q0 9 13 10t28.5 4t28.5 12t13 33v259h-199q-35 -58 -56.5 -92.5t-33.5 -57t-16 -38.5t-4 -37q0 -38 13 -53.5t28.5 -21.5t28.5 -8.5t13 -12.5q0 -7 -5 -9t-24 -2q-8 0 -24 0.5t-34 0.5
t-35 0.5t-27 0.5q-34 0 -67.5 -0.5t-67.5 -1.5q-11 0 -14 3t-3 9q0 4 6.5 7t18 7t28 11.5t36.5 21.5q29 20 64 57t76 102l210 337q13 21 20 34t7 33q0 19 -11 25.5t-24.5 8.5t-24.5 4t-11 12q0 7 4.5 8.5t21.5 1.5zM252 354h183v296h-4z" />
    <glyph glyph-name="Ccedilla" unicode="&#xc7;" horiz-adv-x="741" 
d="M598 635q13 0 18.5 7.5t8.5 16t5.5 16t10.5 7.5q7 0 9 -6t2 -11v-252q0 -5 -2 -11t-7 -6t-8 4t-5 16q-8 43 -28 88t-51 82t-73 60.5t-94 23.5q-46 0 -85 -22t-67.5 -64t-44.5 -103.5t-16 -141.5q0 -77 15 -138.5t43 -104t67.5 -65.5t89.5 -23q34 0 66.5 12.5t60.5 33.5
t50.5 48t37.5 56q16 30 22 51t8.5 34.5t5 19.5t10.5 6q5 0 7 -6t2 -11v-251q0 -6 -3 -11.5t-11 -5.5q-9 0 -11.5 7.5l-5.5 16.5t-9 16.5t-22 7.5q-13 0 -31.5 -7t-42.5 -15t-55 -16t-70 -9l-21 -49q8 2 17 3t16 1q40 0 60.5 -20.5t20.5 -50.5q0 -42 -32 -63.5t-92 -21.5
q-17 0 -38 2.5t-48 14.5l14 33q12 -5 25.5 -8.5t30.5 -3.5q62 0 62 40t-46 40q-7 0 -15 -1.5t-13 -4.5l-14 6l36 82q-69 3 -127 32.5t-101 77.5t-67 111t-24 134q0 74 29.5 138.5t78 112.5t109.5 76t124 28q46 0 81 -9t60.5 -20.5t44 -20.5t32.5 -9z" />
    <glyph glyph-name="Egrave" unicode="&#xc8;" horiz-adv-x="667" 
d="M545 680q23 -95 38.5 -150.5t15.5 -62.5q0 -10 -8 -10t-13.5 17t-24.5 47q-18 30 -39 55t-51.5 42.5t-75.5 27.5t-112 10h-37v-294h22q149 0 151 132q0 10 2 16t10 6q12 0 12 -17v-303q0 -16 -12 -16q-7 0 -9.5 4.5t-2.5 18.5q-1 39 -13 65t-33 41.5t-49 22t-60 6.5h-18
v-262q0 -25 18 -39.5t66 -14.5q71 0 121 21t83 51.5t52 64.5t29 60q7 18 10.5 31t12.5 13t9 -11q0 -4 -0.5 -11t-2.5 -18l-42 -225q-101 1 -201 1.5t-201 0.5q-31 0 -50.5 -0.5t-33 -0.5t-24.5 -0.5t-24 -0.5q-17 0 -21 3t-4 11q0 9 13 10.5t28.5 4t28.5 11.5t13 34v536
q0 24 -13 32.5t-28.5 11t-28.5 4t-13 10.5q0 8 4 11t21 3q6 0 18.5 -0.5t26 -0.5t26 -0.5t18.5 -0.5h121zM398 718h-47l-142 90q-15 10 -27 21.5t-12 28.5q0 16 11 27t25 11q18 0 30.5 -11.5t26.5 -25.5z" />
    <glyph glyph-name="Eacute" unicode="&#xc9;" horiz-adv-x="667" 
d="M545 680q23 -95 38.5 -150.5t15.5 -62.5q0 -10 -8 -10t-13.5 17t-24.5 47q-18 30 -39 55t-51.5 42.5t-75.5 27.5t-112 10h-37v-294h22q149 0 151 132q0 10 2 16t10 6q12 0 12 -17v-303q0 -16 -12 -16q-7 0 -9.5 4.5t-2.5 18.5q-1 39 -13 65t-33 41.5t-49 22t-60 6.5h-18
v-262q0 -25 18 -39.5t66 -14.5q71 0 121 21t83 51.5t52 64.5t29 60q7 18 10.5 31t12.5 13t9 -11q0 -4 -0.5 -11t-2.5 -18l-42 -225q-101 1 -201 1.5t-201 0.5q-31 0 -50.5 -0.5t-33 -0.5t-24.5 -0.5t-24 -0.5q-17 0 -21 3t-4 11q0 9 13 10.5t28.5 4t28.5 11.5t13 34v536
q0 24 -13 32.5t-28.5 11t-28.5 4t-13 10.5q0 8 4 11t21 3q6 0 18.5 -0.5t26 -0.5t26 -0.5t18.5 -0.5h121zM474 858q0 -25 -33 -46l-148 -94h-47l133 139q22 23 33 31t25 8t25.5 -10.5t11.5 -27.5z" />
    <glyph glyph-name="Ecircumflex" unicode="&#xca;" horiz-adv-x="667" 
d="M545 680q23 -95 38.5 -150.5t15.5 -62.5q0 -10 -8 -10t-13.5 17t-24.5 47q-18 30 -39 55t-51.5 42.5t-75.5 27.5t-112 10h-37v-294h22q149 0 151 132q0 10 2 16t10 6q12 0 12 -17v-303q0 -16 -12 -16q-7 0 -9.5 4.5t-2.5 18.5q-1 39 -13 65t-33 41.5t-49 22t-60 6.5h-18
v-262q0 -25 18 -39.5t66 -14.5q71 0 121 21t83 51.5t52 64.5t29 60q7 18 10.5 31t12.5 13t9 -11q0 -4 -0.5 -11t-2.5 -18l-42 -225q-101 1 -201 1.5t-201 0.5q-31 0 -50.5 -0.5t-33 -0.5t-24.5 -0.5t-24 -0.5q-17 0 -21 3t-4 11q0 9 13 10.5t28.5 4t28.5 11.5t13 34v536
q0 24 -13 32.5t-28.5 11t-28.5 4t-13 10.5q0 8 4 11t21 3q6 0 18.5 -0.5t26 -0.5t26 -0.5t18.5 -0.5h121zM356 886l124 -168h-43l-115 102l-115 -102h-43l124 168h68z" />
    <glyph glyph-name="Edieresis" unicode="&#xcb;" horiz-adv-x="667" 
d="M545 680q23 -95 38.5 -150.5t15.5 -62.5q0 -10 -8 -10t-13.5 17t-24.5 47q-18 30 -39 55t-51.5 42.5t-75.5 27.5t-112 10h-37v-294h22q149 0 151 132q0 10 2 16t10 6q12 0 12 -17v-303q0 -16 -12 -16q-7 0 -9.5 4.5t-2.5 18.5q-1 39 -13 65t-33 41.5t-49 22t-60 6.5h-18
v-262q0 -25 18 -39.5t66 -14.5q71 0 121 21t83 51.5t52 64.5t29 60q7 18 10.5 31t12.5 13t9 -11q0 -4 -0.5 -11t-2.5 -18l-42 -225q-101 1 -201 1.5t-201 0.5q-31 0 -50.5 -0.5t-33 -0.5t-24.5 -0.5t-24 -0.5q-17 0 -21 3t-4 11q0 9 13 10.5t28.5 4t28.5 11.5t13 34v536
q0 24 -13 32.5t-28.5 11t-28.5 4t-13 10.5q0 8 4 11t21 3q6 0 18.5 -0.5t26 -0.5t26 -0.5t18.5 -0.5h121zM274 787q0 -22 -15.5 -37.5t-37.5 -15.5t-37.5 15.5t-15.5 37.5t15.5 37.5t37.5 15.5t37.5 -15.5t15.5 -37.5zM476 787q0 -22 -15.5 -37.5t-37.5 -15.5t-37.5 15.5
t-15.5 37.5t15.5 37.5t37.5 15.5t37.5 -15.5t15.5 -37.5z" />
    <glyph glyph-name="Igrave" unicode="&#xcc;" horiz-adv-x="370" 
d="M185 678q44 0 69.5 1t48.5 1q16 0 20.5 -3t4.5 -11q0 -9 -13 -10.5t-28.5 -4t-28.5 -11.5t-13 -33v-535q0 -25 13 -34t28.5 -11.5t28.5 -4t13 -10.5q0 -8 -4 -11t-21 -3q-23 0 -48.5 1t-69.5 1t-69.5 -1t-48.5 -1q-17 0 -21 3t-4 11q0 9 13 10t28.5 4t28.5 12t13 33v536
q0 24 -13 33t-28.5 12t-28.5 4t-13 10q0 8 4 11t21 3q23 0 48.5 -1t69.5 -1zM261 718h-47l-142 90q-15 10 -27 21.5t-12 28.5q0 16 11 27t25 11q18 0 30.5 -11.5t26.5 -25.5z" />
    <glyph glyph-name="Iacute" unicode="&#xcd;" horiz-adv-x="370" 
d="M185 678q44 0 69.5 1t48.5 1q16 0 20.5 -3t4.5 -11q0 -9 -13 -10.5t-28.5 -4t-28.5 -11.5t-13 -33v-535q0 -25 13 -34t28.5 -11.5t28.5 -4t13 -10.5q0 -8 -4 -11t-21 -3q-23 0 -48.5 1t-69.5 1t-69.5 -1t-48.5 -1q-17 0 -21 3t-4 11q0 9 13 10t28.5 4t28.5 12t13 33v536
q0 24 -13 33t-28.5 12t-28.5 4t-13 10q0 8 4 11t21 3q23 0 48.5 -1t69.5 -1zM337 858q0 -25 -33 -46l-148 -94h-47l133 139q22 23 33 31t25 8t25.5 -10.5t11.5 -27.5z" />
    <glyph glyph-name="Icircumflex" unicode="&#xce;" horiz-adv-x="370" 
d="M185 678q44 0 69.5 1t48.5 1q16 0 20.5 -3t4.5 -11q0 -9 -13 -10.5t-28.5 -4t-28.5 -11.5t-13 -33v-535q0 -25 13 -34t28.5 -11.5t28.5 -4t13 -10.5q0 -8 -4 -11t-21 -3q-23 0 -48.5 1t-69.5 1t-69.5 -1t-48.5 -1q-17 0 -21 3t-4 11q0 9 13 10t28.5 4t28.5 12t13 33v536
q0 24 -13 33t-28.5 12t-28.5 4t-13 10q0 8 4 11t21 3q23 0 48.5 -1t69.5 -1zM219 886l124 -168h-43l-115 102l-115 -102h-43l124 168h68z" />
    <glyph glyph-name="Idieresis" unicode="&#xcf;" horiz-adv-x="370" 
d="M185 678q44 0 69.5 1t48.5 1q16 0 20.5 -3t4.5 -11q0 -9 -13 -10.5t-28.5 -4t-28.5 -11.5t-13 -33v-535q0 -25 13 -34t28.5 -11.5t28.5 -4t13 -10.5q0 -8 -4 -11t-21 -3q-23 0 -48.5 1t-69.5 1t-69.5 -1t-48.5 -1q-17 0 -21 3t-4 11q0 9 13 10t28.5 4t28.5 12t13 33v536
q0 24 -13 33t-28.5 12t-28.5 4t-13 10q0 8 4 11t21 3q23 0 48.5 -1t69.5 -1zM137 787q0 -22 -15.5 -37.5t-37.5 -15.5t-37.5 15.5t-15.5 37.5t15.5 37.5t37.5 15.5t37.5 -15.5t15.5 -37.5zM339 787q0 -22 -15.5 -37.5t-37.5 -15.5t-37.5 15.5t-15.5 37.5t15.5 37.5
t37.5 15.5t37.5 -15.5t15.5 -37.5z" />
    <glyph glyph-name="Eth" unicode="&#xd0;" horiz-adv-x="741" 
d="M176 678q60 1 100 1.5t48 0.5q81 0 150.5 -23t120 -67t79 -108t28.5 -146q0 -73 -22.5 -135t-66 -107t-106.5 -70.5t-145 -25.5h-23.5t-36.5 0.5t-52.5 1t-71.5 0.5q-12 0 -27.5 -0.5t-32 -0.5t-31.5 -0.5t-27 -0.5q-16 0 -20.5 3t-4.5 11q0 9 13 10.5t28.5 4t28.5 11.5
t13 33v263h-93v36h93v237q0 24 -13 33t-28.5 11.5t-28.5 4t-13 10.5q0 8 4 11t21 3q11 0 27 -0.5t32.5 -0.5t31.5 -0.5t25 -0.5zM411 370v-36h-173v-222q0 -46 26 -68t83 -22q60 0 102.5 20.5t69.5 59.5t39 96t12 131q0 79 -16 140t-46 102.5t-72 63t-94 21.5h-104v-286h173
z" />
    <glyph glyph-name="Ntilde" unicode="&#xd1;" horiz-adv-x="704" 
d="M21 680q17 0 34 -1t34 -1h99l377 -506h2v340q0 73 -33 111q-15 17 -29.5 23t-26 8.5t-18 4.5t-6.5 10q0 7 5 9t20 2q23 0 47 -1t55 -1t55 1t47 1q15 0 20 -2t5 -9q0 -10 -17 -13q-45 -6 -70.5 -42.5t-25.5 -98.5v-518q0 -4 -3 -8.5t-9 -4.5q-5 0 -10 2t-10 8l-424 564h-2
v-390q0 -22 3.5 -44.5t13 -42.5t26 -35.5t42.5 -21.5q13 -3 20.5 -4.5t7.5 -10.5q0 -7 -5 -9t-20 -2q-23 0 -47 1t-55 1t-55 -1t-47 -1q-15 0 -20 2t-5 9t3.5 8.5t9.5 3.5q15 3 29 7.5t27 15.5q20 17 32 47t12 77v425q-21 31 -41.5 43.5t-36 17t-25 5t-9.5 7.5q0 8 5 11
t19 3zM529 854q-17 -52 -40 -81t-70 -29q-25 0 -44 7t-35.5 16t-33 16t-35.5 7q-22 0 -34 -13.5t-18 -34.5h-32q11 51 39.5 80.5t69.5 29.5q23 0 42 -7.5t36 -16.5t33.5 -16.5t34.5 -7.5q15 0 28 9t25 41h34z" />
    <glyph glyph-name="Ograve" unicode="&#xd2;" horiz-adv-x="796" 
d="M757 339q0 -87 -33.5 -153t-85.5 -111t-116 -68t-124 -23q-66 0 -130 24.5t-115 70.5t-82.5 112t-31.5 148q0 83 32 149t83 111.5t115 70t129 24.5q63 0 127 -24t115.5 -69.5t84 -111.5t32.5 -150zM398 8q106 0 166.5 85t60.5 246q0 162 -61 246.5t-167 84.5
q-103 0 -164.5 -84t-61.5 -247q0 -161 60.5 -246t166.5 -85zM474 718h-47l-142 90q-15 10 -27 21.5t-12 28.5q0 16 11 27t25 11q18 0 30.5 -11.5t26.5 -25.5z" />
    <glyph glyph-name="Oacute" unicode="&#xd3;" horiz-adv-x="796" 
d="M757 339q0 -87 -33.5 -153t-85.5 -111t-116 -68t-124 -23q-66 0 -130 24.5t-115 70.5t-82.5 112t-31.5 148q0 83 32 149t83 111.5t115 70t129 24.5q63 0 127 -24t115.5 -69.5t84 -111.5t32.5 -150zM398 8q106 0 166.5 85t60.5 246q0 162 -61 246.5t-167 84.5
q-103 0 -164.5 -84t-61.5 -247q0 -161 60.5 -246t166.5 -85zM550 858q0 -25 -33 -46l-148 -94h-47l133 139q22 23 33 31t25 8t25.5 -10.5t11.5 -27.5z" />
    <glyph glyph-name="Ocircumflex" unicode="&#xd4;" horiz-adv-x="796" 
d="M757 339q0 -87 -33.5 -153t-85.5 -111t-116 -68t-124 -23q-66 0 -130 24.5t-115 70.5t-82.5 112t-31.5 148q0 83 32 149t83 111.5t115 70t129 24.5q63 0 127 -24t115.5 -69.5t84 -111.5t32.5 -150zM398 8q106 0 166.5 85t60.5 246q0 162 -61 246.5t-167 84.5
q-103 0 -164.5 -84t-61.5 -247q0 -161 60.5 -246t166.5 -85zM432 886l124 -168h-43l-115 102l-115 -102h-43l124 168h68z" />
    <glyph glyph-name="Otilde" unicode="&#xd5;" horiz-adv-x="796" 
d="M757 339q0 -87 -33.5 -153t-85.5 -111t-116 -68t-124 -23q-66 0 -130 24.5t-115 70.5t-82.5 112t-31.5 148q0 83 32 149t83 111.5t115 70t129 24.5q63 0 127 -24t115.5 -69.5t84 -111.5t32.5 -150zM398 8q106 0 166.5 85t60.5 246q0 162 -61 246.5t-167 84.5
q-103 0 -164.5 -84t-61.5 -247q0 -161 60.5 -246t166.5 -85zM569 854q-17 -52 -40 -81t-70 -29q-25 0 -44 7t-35.5 16t-33 16t-35.5 7q-22 0 -34 -13.5t-18 -34.5h-32q11 51 39.5 80.5t69.5 29.5q23 0 42 -7.5t36 -16.5t33.5 -16.5t34.5 -7.5q15 0 28 9t25 41h34z" />
    <glyph glyph-name="Odieresis" unicode="&#xd6;" horiz-adv-x="796" 
d="M757 339q0 -87 -33.5 -153t-85.5 -111t-116 -68t-124 -23q-66 0 -130 24.5t-115 70.5t-82.5 112t-31.5 148q0 83 32 149t83 111.5t115 70t129 24.5q63 0 127 -24t115.5 -69.5t84 -111.5t32.5 -150zM398 8q106 0 166.5 85t60.5 246q0 162 -61 246.5t-167 84.5
q-103 0 -164.5 -84t-61.5 -247q0 -161 60.5 -246t166.5 -85zM350 787q0 -22 -15.5 -37.5t-37.5 -15.5t-37.5 15.5t-15.5 37.5t15.5 37.5t37.5 15.5t37.5 -15.5t15.5 -37.5zM552 787q0 -22 -15.5 -37.5t-37.5 -15.5t-37.5 15.5t-15.5 37.5t15.5 37.5t37.5 15.5t37.5 -15.5
t15.5 -37.5z" />
    <glyph glyph-name="multiply" unicode="&#xd7;" horiz-adv-x="600" 
d="M300 285l168 169l59 -58l-169 -169l169 -169l-59 -58l-168 169l-169 -169l-58 58l169 169l-169 169l58 58z" />
    <glyph glyph-name="Oslash" unicode="&#xd8;" horiz-adv-x="796" 
d="M588 746h44l-53 -101q85 -48 131.5 -127t46.5 -179q0 -82 -31.5 -148t-82.5 -112t-115 -70.5t-130 -24.5q-37 0 -75 8t-73 25l-52 -100h-46l62 118q-88 52 -131.5 131t-43.5 173q0 81 31 147t81.5 112t115 71t131.5 25q38 0 74 -8t72 -24zM525 626q-26 23 -58.5 33.5
t-69.5 10.5q-103 0 -164.5 -84t-61.5 -247q0 -90 18.5 -153t50.5 -102zM269 53q26 -23 59 -34t70 -11q106 0 166.5 85t60.5 246q0 91 -19.5 155t-51.5 103z" />
    <glyph glyph-name="Ugrave" unicode="&#xd9;" horiz-adv-x="722" 
d="M167 678q44 0 69.5 1t48.5 1q16 0 20.5 -3t4.5 -11q0 -9 -13 -10t-28.5 -4t-28.5 -12t-13 -33v-427q0 -75 48.5 -120.5t133.5 -45.5q91 0 135 51t44 136v316q0 32 -8.5 60t-24.5 46q-16 17 -30.5 23t-25.5 8.5t-17.5 4t-6.5 10.5q0 7 5 9t20 2q23 0 47 -1t55 -1t55 1
t47 1q15 0 20 -2t5 -9q0 -10 -12 -12q-52 -7 -76.5 -45t-24.5 -102v-308q0 -49 -14.5 -89t-44 -68.5t-74 -44.5t-104.5 -16q-70 0 -121.5 15.5t-85 42.5t-49.5 63.5t-16 79.5v422q0 24 -13 33t-28.5 11.5t-28.5 4t-13 10.5q0 8 4 11t21 3q23 0 48.5 -1t69.5 -1zM446 718h-47
l-142 90q-15 10 -27 21.5t-12 28.5q0 16 11 27t25 11q18 0 30.5 -11.5t26.5 -25.5z" />
    <glyph glyph-name="Uacute" unicode="&#xda;" horiz-adv-x="722" 
d="M167 678q44 0 69.5 1t48.5 1q16 0 20.5 -3t4.5 -11q0 -9 -13 -10t-28.5 -4t-28.5 -12t-13 -33v-427q0 -75 48.5 -120.5t133.5 -45.5q91 0 135 51t44 136v316q0 32 -8.5 60t-24.5 46q-16 17 -30.5 23t-25.5 8.5t-17.5 4t-6.5 10.5q0 7 5 9t20 2q23 0 47 -1t55 -1t55 1
t47 1q15 0 20 -2t5 -9q0 -10 -12 -12q-52 -7 -76.5 -45t-24.5 -102v-308q0 -49 -14.5 -89t-44 -68.5t-74 -44.5t-104.5 -16q-70 0 -121.5 15.5t-85 42.5t-49.5 63.5t-16 79.5v422q0 24 -13 33t-28.5 11.5t-28.5 4t-13 10.5q0 8 4 11t21 3q23 0 48.5 -1t69.5 -1zM522 858
q0 -25 -33 -46l-148 -94h-47l133 139q22 23 33 31t25 8t25.5 -10.5t11.5 -27.5z" />
    <glyph glyph-name="Ucircumflex" unicode="&#xdb;" horiz-adv-x="722" 
d="M167 678q44 0 69.5 1t48.5 1q16 0 20.5 -3t4.5 -11q0 -9 -13 -10t-28.5 -4t-28.5 -12t-13 -33v-427q0 -75 48.5 -120.5t133.5 -45.5q91 0 135 51t44 136v316q0 32 -8.5 60t-24.5 46q-16 17 -30.5 23t-25.5 8.5t-17.5 4t-6.5 10.5q0 7 5 9t20 2q23 0 47 -1t55 -1t55 1
t47 1q15 0 20 -2t5 -9q0 -10 -12 -12q-52 -7 -76.5 -45t-24.5 -102v-308q0 -49 -14.5 -89t-44 -68.5t-74 -44.5t-104.5 -16q-70 0 -121.5 15.5t-85 42.5t-49.5 63.5t-16 79.5v422q0 24 -13 33t-28.5 11.5t-28.5 4t-13 10.5q0 8 4 11t21 3q23 0 48.5 -1t69.5 -1zM404 886
l124 -168h-43l-115 102l-115 -102h-43l124 168h68z" />
    <glyph glyph-name="Udieresis" unicode="&#xdc;" horiz-adv-x="722" 
d="M167 678q44 0 69.5 1t48.5 1q16 0 20.5 -3t4.5 -11q0 -9 -13 -10t-28.5 -4t-28.5 -12t-13 -33v-427q0 -75 48.5 -120.5t133.5 -45.5q91 0 135 51t44 136v316q0 32 -8.5 60t-24.5 46q-16 17 -30.5 23t-25.5 8.5t-17.5 4t-6.5 10.5q0 7 5 9t20 2q23 0 47 -1t55 -1t55 1
t47 1q15 0 20 -2t5 -9q0 -10 -12 -12q-52 -7 -76.5 -45t-24.5 -102v-308q0 -49 -14.5 -89t-44 -68.5t-74 -44.5t-104.5 -16q-70 0 -121.5 15.5t-85 42.5t-49.5 63.5t-16 79.5v422q0 24 -13 33t-28.5 11.5t-28.5 4t-13 10.5q0 8 4 11t21 3q23 0 48.5 -1t69.5 -1zM322 787
q0 -22 -15.5 -37.5t-37.5 -15.5t-37.5 15.5t-15.5 37.5t15.5 37.5t37.5 15.5t37.5 -15.5t15.5 -37.5zM524 787q0 -22 -15.5 -37.5t-37.5 -15.5t-37.5 15.5t-15.5 37.5t15.5 37.5t37.5 15.5t37.5 -15.5t15.5 -37.5z" />
    <glyph glyph-name="Yacute" unicode="&#xdd;" horiz-adv-x="630" 
d="M17 680q33 0 65 -1t65 -1q28 0 55.5 1t55.5 1q21 0 25.5 -4t4.5 -10q0 -8 -10 -9.5t-22 -4.5t-22 -10.5t-10 -26.5q0 -7 3.5 -22t14.5 -35l117 -212q39 56 65 95.5t41.5 68t22 49.5t6.5 39q0 28 -11 40t-24 16t-24 5.5t-11 9.5q0 7 5 9t19 2l97 -2q6 0 18.5 0.5t26 0.5
t25.5 0.5t18 0.5q14 0 18.5 -3.5t4.5 -8.5q0 -6 -9 -8t-26 -11q-20 -11 -47.5 -35t-59.5 -72l-139 -208v-263q0 -24 14 -33t31.5 -11.5t31.5 -4t14 -10.5q0 -14 -33 -14q-23 0 -48.5 1t-69.5 1t-69.5 -1t-48.5 -1q-17 0 -23 3t-6 11q0 9 13.5 10t30 4t30 12t13.5 35v230
l-164 294q-20 35 -49 49q-18 9 -31.5 11.5t-13.5 11.5q0 6 3.5 8.5t16.5 2.5zM461 858q0 -25 -33 -46l-148 -94h-47l133 139q22 23 33 31t25 8t25.5 -10.5t11.5 -27.5z" />
    <glyph glyph-name="Thorn" unicode="&#xde;" horiz-adv-x="593" 
d="M178 678q44 0 69.5 1t48.5 1q16 0 20.5 -3t4.5 -11q0 -9 -13 -10.5t-28.5 -4t-28.5 -11.5t-13 -34v-71q11 1 25 1h39q70 0 122.5 -14.5t87.5 -40t52.5 -60t17.5 -75.5q0 -42 -17 -76.5t-54 -60t-95 -39.5t-140 -14h-38v-85q0 -24 15 -33t32.5 -11.5t32.5 -4t15 -10.5
q0 -8 -6 -11t-22 -3l-129 2q-10 0 -25.5 -0.5t-32 -0.5t-32 -0.5t-26.5 -0.5q-17 0 -21 3t-4 11q0 9 13 10.5t28.5 4t28.5 11.5t13 34v535q0 24 -13 33t-28.5 11.5t-28.5 4t-13 10.5q0 8 4 11t21 3q23 0 48.5 -1t69.5 -1zM238 180h52q54 0 88 13.5t52.5 37t25 54t6.5 64.5
q0 84 -42.5 123.5t-108.5 39.5h-73v-332z" />
    <glyph glyph-name="germandbls" unicode="&#xdf;" 
d="M439 593q0 -20 -4.5 -36t-13.5 -31q-13 -21 -42 -44q-17 -14 -32.5 -26.5t-15.5 -29.5q0 -18 17 -28t49 -24q24 -11 46.5 -23.5t40.5 -29.5q30 -29 47 -66.5t17 -79.5q0 -41 -14 -74.5t-38 -57.5t-56.5 -37.5t-69.5 -13.5q-50 0 -83.5 26.5t-33.5 66.5q0 25 14.5 43
t37.5 18q21 0 34.5 -14.5t13.5 -38.5q0 -17 -7.5 -29t-7.5 -28q0 -11 9 -18.5t25 -7.5q20 0 30.5 10.5t15.5 27.5q8 26 9 58t1 54q0 38 -5.5 66.5t-14.5 51.5q-12 30 -29 48.5t-33 33t-27.5 29t-11.5 37.5q0 18 4.5 29t11 20.5t14 19t14.5 23.5q8 16 13 39.5t5 59.5
q0 48 -19 76.5t-64 28.5q-42 0 -66.5 -33t-24.5 -85q0 -30 7.5 -80t7.5 -110v-414q-40 0 -80 -0.5t-80 -1.5q-16 0 -20 2.5t-4 8.5q0 8 11.5 9.5t25.5 4t25.5 11.5t11.5 32v331h-82q16 10 29 27t25.5 40.5t25.5 54t28 68.5q32 80 71.5 119.5t97.5 39.5q30 0 56 -13t45.5 -35
t31 -49.5t11.5 -55.5z" />
    <glyph glyph-name="agrave" unicode="&#xe0;" horiz-adv-x="500" 
d="M415 57q0 -7 4 -15.5t15 -8.5q13 0 22 5.5t15 12t10 12t9 5.5q10 0 10 -8t-9.5 -19.5t-24.5 -22.5t-34 -18.5t-39 -7.5q-37 0 -57 15t-28 57q-54 -38 -93.5 -55t-78.5 -17q-48 0 -77 23t-29 66q0 31 16 57t49.5 48.5t85.5 43.5t124 43v131q0 15 -9 24.5t-29 9.5
q-37 0 -62.5 -23t-33.5 -68t-24 -62t-52 -17q-24 0 -37 14.5t-13 34.5q0 25 21 51t56 47t79.5 34t91.5 13q66 0 94 -31.5t28 -83.5v-290zM195 32q15 0 32 6t32.5 15t27.5 19t18 18v163q-7 -3 -29 -10.5t-60 -27.5q-76 -40 -76 -102q0 -36 14.5 -58.5t40.5 -22.5zM326 510
h-47l-142 90q-15 10 -27 21.5t-12 28.5q0 16 11 27t25 11q18 0 30.5 -11.5t26.5 -25.5z" />
    <glyph glyph-name="aacute" unicode="&#xe1;" horiz-adv-x="500" 
d="M415 57q0 -7 4 -15.5t15 -8.5q13 0 22 5.5t15 12t10 12t9 5.5q10 0 10 -8t-9.5 -19.5t-24.5 -22.5t-34 -18.5t-39 -7.5q-37 0 -57 15t-28 57q-54 -38 -93.5 -55t-78.5 -17q-48 0 -77 23t-29 66q0 31 16 57t49.5 48.5t85.5 43.5t124 43v131q0 15 -9 24.5t-29 9.5
q-37 0 -62.5 -23t-33.5 -68t-24 -62t-52 -17q-24 0 -37 14.5t-13 34.5q0 25 21 51t56 47t79.5 34t91.5 13q66 0 94 -31.5t28 -83.5v-290zM195 32q15 0 32 6t32.5 15t27.5 19t18 18v163q-7 -3 -29 -10.5t-60 -27.5q-76 -40 -76 -102q0 -36 14.5 -58.5t40.5 -22.5zM402 650
q0 -25 -33 -46l-148 -94h-47l133 139q22 23 33 31t25 8t25.5 -10.5t11.5 -27.5z" />
    <glyph glyph-name="acircumflex" unicode="&#xe2;" horiz-adv-x="500" 
d="M415 57q0 -7 4 -15.5t15 -8.5q13 0 22 5.5t15 12t10 12t9 5.5q10 0 10 -8t-9.5 -19.5t-24.5 -22.5t-34 -18.5t-39 -7.5q-37 0 -57 15t-28 57q-54 -38 -93.5 -55t-78.5 -17q-48 0 -77 23t-29 66q0 31 16 57t49.5 48.5t85.5 43.5t124 43v131q0 15 -9 24.5t-29 9.5
q-37 0 -62.5 -23t-33.5 -68t-24 -62t-52 -17q-24 0 -37 14.5t-13 34.5q0 25 21 51t56 47t79.5 34t91.5 13q66 0 94 -31.5t28 -83.5v-290zM195 32q15 0 32 6t32.5 15t27.5 19t18 18v163q-7 -3 -29 -10.5t-60 -27.5q-76 -40 -76 -102q0 -36 14.5 -58.5t40.5 -22.5zM284 678
l124 -168h-43l-115 102l-115 -102h-43l124 168h68z" />
    <glyph glyph-name="atilde" unicode="&#xe3;" horiz-adv-x="500" 
d="M415 57q0 -7 4 -15.5t15 -8.5q13 0 22 5.5t15 12t10 12t9 5.5q10 0 10 -8t-9.5 -19.5t-24.5 -22.5t-34 -18.5t-39 -7.5q-37 0 -57 15t-28 57q-54 -38 -93.5 -55t-78.5 -17q-48 0 -77 23t-29 66q0 31 16 57t49.5 48.5t85.5 43.5t124 43v131q0 15 -9 24.5t-29 9.5
q-37 0 -62.5 -23t-33.5 -68t-24 -62t-52 -17q-24 0 -37 14.5t-13 34.5q0 25 21 51t56 47t79.5 34t91.5 13q66 0 94 -31.5t28 -83.5v-290zM195 32q15 0 32 6t32.5 15t27.5 19t18 18v163q-7 -3 -29 -10.5t-60 -27.5q-76 -40 -76 -102q0 -36 14.5 -58.5t40.5 -22.5zM421 646
q-17 -52 -40 -81t-70 -29q-25 0 -44 7t-35.5 16t-33 16t-35.5 7q-22 0 -34 -13.5t-18 -34.5h-32q11 51 39.5 80.5t69.5 29.5q23 0 42 -7.5t36 -16.5t33.5 -16.5t34.5 -7.5q15 0 28 9t25 41h34z" />
    <glyph glyph-name="adieresis" unicode="&#xe4;" horiz-adv-x="500" 
d="M415 57q0 -7 4 -15.5t15 -8.5q13 0 22 5.5t15 12t10 12t9 5.5q10 0 10 -8t-9.5 -19.5t-24.5 -22.5t-34 -18.5t-39 -7.5q-37 0 -57 15t-28 57q-54 -38 -93.5 -55t-78.5 -17q-48 0 -77 23t-29 66q0 31 16 57t49.5 48.5t85.5 43.5t124 43v131q0 15 -9 24.5t-29 9.5
q-37 0 -62.5 -23t-33.5 -68t-24 -62t-52 -17q-24 0 -37 14.5t-13 34.5q0 25 21 51t56 47t79.5 34t91.5 13q66 0 94 -31.5t28 -83.5v-290zM195 32q15 0 32 6t32.5 15t27.5 19t18 18v163q-7 -3 -29 -10.5t-60 -27.5q-76 -40 -76 -102q0 -36 14.5 -58.5t40.5 -22.5zM202 579
q0 -22 -15.5 -37.5t-37.5 -15.5t-37.5 15.5t-15.5 37.5t15.5 37.5t37.5 15.5t37.5 -15.5t15.5 -37.5zM404 579q0 -22 -15.5 -37.5t-37.5 -15.5t-37.5 15.5t-15.5 37.5t15.5 37.5t37.5 15.5t37.5 -15.5t15.5 -37.5z" />
    <glyph glyph-name="aring" unicode="&#xe5;" horiz-adv-x="500" 
d="M415 57q0 -7 4 -15.5t15 -8.5q13 0 22 5.5t15 12t10 12t9 5.5q10 0 10 -8t-9.5 -19.5t-24.5 -22.5t-34 -18.5t-39 -7.5q-37 0 -57 15t-28 57q-54 -38 -93.5 -55t-78.5 -17q-48 0 -77 23t-29 66q0 31 16 57t49.5 48.5t85.5 43.5t124 43v131q0 15 -9 24.5t-29 9.5
q-37 0 -62.5 -23t-33.5 -68t-24 -62t-52 -17q-24 0 -37 14.5t-13 34.5q0 25 21 51t56 47t79.5 34t91.5 13q66 0 94 -31.5t28 -83.5v-290zM195 32q15 0 32 6t32.5 15t27.5 19t18 18v163q-7 -3 -29 -10.5t-60 -27.5q-76 -40 -76 -102q0 -36 14.5 -58.5t40.5 -22.5zM351 612
q0 -21 -8 -39.5t-22 -32.5t-32.5 -22t-38.5 -8t-38.5 8t-32.5 22t-22 32.5t-8 39.5t8 39t22 31.5t32 21.5t39 8t39.5 -8t32 -22t21.5 -32t8 -38zM250 548q27 0 45 18t18 45t-18 45t-46 18q-26 0 -44 -18t-18 -45t18 -45t45 -18z" />
    <glyph glyph-name="ae" unicode="&#xe6;" horiz-adv-x="759" 
d="M383 415q28 22 63 34.5t77 12.5q44 0 81 -14t64 -40t42 -64.5t16 -87.5h-327v-10q0 -33 11.5 -65.5t33 -58t51.5 -41t67 -15.5q60 0 92 20t52 57q5 9 7.5 14t7.5 5q7 0 7 -9q0 -16 -14.5 -45.5t-40.5 -55.5q-29 -28 -68 -44t-88 -16q-61 0 -111 26.5t-80 74.5
q-60 -50 -108.5 -75.5t-97.5 -25.5q-48 0 -77 23t-29 66q0 31 16 56.5t49.5 48.5t85.5 44t124 43v131q0 15 -9 24.5t-29 9.5q-77 0 -96 -91q-8 -45 -24.5 -62t-51.5 -17q-24 0 -37 14.5t-13 34.5q0 23 19 48.5t57 48.5q38 24 85 36t87 12t65.5 -12t40.5 -35zM616 280v19
q0 67 -22.5 103t-74.5 36q-29 0 -51 -14.5t-37 -37.5t-23 -51t-8 -55h216zM179 32q16 0 34 7t34 16.5t27.5 19t14.5 15.5v163q-14 -5 -37 -13.5t-52 -24.5q-38 -21 -57 -45t-19 -57q0 -36 14.5 -58.5t40.5 -22.5z" />
    <glyph glyph-name="ccedilla" unicode="&#xe7;" horiz-adv-x="500" 
d="M451 316q0 -66 -57 -66q-32 0 -45.5 20t-13.5 42q0 11 1 25t1 31q0 37 -18 53.5t-53 16.5t-59 -12.5t-39.5 -35t-22.5 -54t-7 -70.5t10.5 -75t31.5 -63.5t52 -44.5t72 -17q46 0 73 15t42 33t21 33t12 15q10 0 10 -9q0 -8 -3.5 -21t-11 -28.5t-19.5 -32t-28 -30.5
q-23 -20 -55 -33.5t-70 -15.5l-25 -56q7 2 16.5 3t16.5 1q40 0 60.5 -20.5t20.5 -50.5q0 -42 -32 -63.5t-92 -21.5q-14 0 -35.5 2t-50.5 15l14 33q12 -5 25.5 -8.5t30.5 -3.5q62 0 62 40q0 18 -11.5 29t-34.5 11q-7 0 -15 -1.5t-13 -4.5l-14 6l40 92q-51 4 -89 25.5
t-62.5 53t-36.5 68.5t-12 72q0 54 17.5 99.5t48 78.5t72.5 52t90 19q42 0 76.5 -12.5t58.5 -33t37 -47t13 -53.5z" />
    <glyph glyph-name="egrave" unicode="&#xe8;" horiz-adv-x="500" 
d="M140 256v-13q0 -30 11 -61t32 -57t51.5 -42.5t69.5 -16.5q37 0 63 8t43 22t25.5 26t12.5 21t6.5 14t8.5 5q7 0 7 -9q0 -12 -11 -39t-36 -54t-65.5 -47.5t-98.5 -20.5q-50 0 -92 17.5t-72.5 48.5t-47.5 74.5t-17 96.5q0 45 17.5 87t48.5 74.5t74 52t94 19.5q43 0 80 -13.5
t64.5 -40t43.5 -65t16 -87.5h-328zM358 280v17q0 72 -24 106.5t-75 34.5q-26 0 -47.5 -13t-37 -35t-24.5 -50.5t-10 -59.5h218zM338 510h-47l-142 90q-15 10 -27 21.5t-12 28.5q0 16 11 27t25 11q18 0 30.5 -11.5t26.5 -25.5z" />
    <glyph glyph-name="eacute" unicode="&#xe9;" horiz-adv-x="500" 
d="M140 256v-13q0 -30 11 -61t32 -57t51.5 -42.5t69.5 -16.5q37 0 63 8t43 22t25.5 26t12.5 21t6.5 14t8.5 5q7 0 7 -9q0 -12 -11 -39t-36 -54t-65.5 -47.5t-98.5 -20.5q-50 0 -92 17.5t-72.5 48.5t-47.5 74.5t-17 96.5q0 45 17.5 87t48.5 74.5t74 52t94 19.5q43 0 80 -13.5
t64.5 -40t43.5 -65t16 -87.5h-328zM358 280v17q0 72 -24 106.5t-75 34.5q-26 0 -47.5 -13t-37 -35t-24.5 -50.5t-10 -59.5h218zM414 650q0 -25 -33 -46l-148 -94h-47l133 139q22 23 33 31t25 8t25.5 -10.5t11.5 -27.5z" />
    <glyph glyph-name="ecircumflex" unicode="&#xea;" horiz-adv-x="500" 
d="M140 256v-13q0 -30 11 -61t32 -57t51.5 -42.5t69.5 -16.5q37 0 63 8t43 22t25.5 26t12.5 21t6.5 14t8.5 5q7 0 7 -9q0 -12 -11 -39t-36 -54t-65.5 -47.5t-98.5 -20.5q-50 0 -92 17.5t-72.5 48.5t-47.5 74.5t-17 96.5q0 45 17.5 87t48.5 74.5t74 52t94 19.5q43 0 80 -13.5
t64.5 -40t43.5 -65t16 -87.5h-328zM358 280v17q0 72 -24 106.5t-75 34.5q-26 0 -47.5 -13t-37 -35t-24.5 -50.5t-10 -59.5h218zM296 678l124 -168h-43l-115 102l-115 -102h-43l124 168h68z" />
    <glyph glyph-name="edieresis" unicode="&#xeb;" horiz-adv-x="500" 
d="M140 256v-13q0 -30 11 -61t32 -57t51.5 -42.5t69.5 -16.5q37 0 63 8t43 22t25.5 26t12.5 21t6.5 14t8.5 5q7 0 7 -9q0 -12 -11 -39t-36 -54t-65.5 -47.5t-98.5 -20.5q-50 0 -92 17.5t-72.5 48.5t-47.5 74.5t-17 96.5q0 45 17.5 87t48.5 74.5t74 52t94 19.5q43 0 80 -13.5
t64.5 -40t43.5 -65t16 -87.5h-328zM358 280v17q0 72 -24 106.5t-75 34.5q-26 0 -47.5 -13t-37 -35t-24.5 -50.5t-10 -59.5h218zM214 579q0 -22 -15.5 -37.5t-37.5 -15.5t-37.5 15.5t-15.5 37.5t15.5 37.5t37.5 15.5t37.5 -15.5t15.5 -37.5zM416 579q0 -22 -15.5 -37.5
t-37.5 -15.5t-37.5 15.5t-15.5 37.5t15.5 37.5t37.5 15.5t37.5 -15.5t15.5 -37.5z" />
    <glyph glyph-name="igrave" unicode="&#xec;" horiz-adv-x="296" 
d="M203 66q0 -24 11.5 -32.5t25.5 -11t25.5 -4t11.5 -10.5q0 -5 -3.5 -7.5t-19.5 -2.5l-106 2h-16t-27.5 -0.5t-32 -1t-29.5 -0.5q-16 0 -20 2.5t-4 7.5q0 9 11.5 10.5t25.5 4t25.5 11t11.5 32.5v251q0 26 -12.5 38.5t-27.5 18.5t-27.5 8.5t-12.5 9.5q0 8 14.5 12.5
t44.5 12.5q23 6 55.5 17t75.5 28v-396zM224 510h-47l-142 90q-15 10 -27 21.5t-12 28.5q0 16 11 27t25 11q18 0 30.5 -11.5t26.5 -25.5z" />
    <glyph glyph-name="iacute" unicode="&#xed;" horiz-adv-x="296" 
d="M203 66q0 -24 11.5 -32.5t25.5 -11t25.5 -4t11.5 -10.5q0 -5 -3.5 -7.5t-19.5 -2.5l-106 2h-16t-27.5 -0.5t-32 -1t-29.5 -0.5q-16 0 -20 2.5t-4 7.5q0 9 11.5 10.5t25.5 4t25.5 11t11.5 32.5v251q0 26 -12.5 38.5t-27.5 18.5t-27.5 8.5t-12.5 9.5q0 8 14.5 12.5
t44.5 12.5q23 6 55.5 17t75.5 28v-396zM300 650q0 -25 -33 -46l-148 -94h-47l133 139q22 23 33 31t25 8t25.5 -10.5t11.5 -27.5z" />
    <glyph glyph-name="icircumflex" unicode="&#xee;" horiz-adv-x="296" 
d="M203 66q0 -24 11.5 -32.5t25.5 -11t25.5 -4t11.5 -10.5q0 -5 -3.5 -7.5t-19.5 -2.5l-106 2h-16t-27.5 -0.5t-32 -1t-29.5 -0.5q-16 0 -20 2.5t-4 7.5q0 9 11.5 10.5t25.5 4t25.5 11t11.5 32.5v251q0 26 -12.5 38.5t-27.5 18.5t-27.5 8.5t-12.5 9.5q0 8 14.5 12.5
t44.5 12.5q23 6 55.5 17t75.5 28v-396zM182 678l124 -168h-43l-115 102l-115 -102h-43l124 168h68z" />
    <glyph glyph-name="idieresis" unicode="&#xef;" horiz-adv-x="296" 
d="M203 66q0 -24 11.5 -32.5t25.5 -11t25.5 -4t11.5 -10.5q0 -5 -3.5 -7.5t-19.5 -2.5l-106 2h-16t-27.5 -0.5t-32 -1t-29.5 -0.5q-16 0 -20 2.5t-4 7.5q0 9 11.5 10.5t25.5 4t25.5 11t11.5 32.5v251q0 26 -12.5 38.5t-27.5 18.5t-27.5 8.5t-12.5 9.5q0 8 14.5 12.5
t44.5 12.5q23 6 55.5 17t75.5 28v-396zM100 579q0 -22 -15.5 -37.5t-37.5 -15.5t-37.5 15.5t-15.5 37.5t15.5 37.5t37.5 15.5t37.5 -15.5t15.5 -37.5zM302 579q0 -22 -15.5 -37.5t-37.5 -15.5t-37.5 15.5t-15.5 37.5t15.5 37.5t37.5 15.5t37.5 -15.5t15.5 -37.5z" />
    <glyph glyph-name="eth" unicode="&#xf0;" horiz-adv-x="556" 
d="M462 710v-34l-122 -62q85 -72 133.5 -163t48.5 -197q0 -62 -19 -111t-52 -82.5t-77.5 -51t-95.5 -17.5q-50 0 -94.5 18.5t-77.5 50t-52.5 74.5t-19.5 92t19 91.5t52 74.5t77.5 50.5t95.5 18.5q20 0 38 -2.5t36 -7.5q-13 35 -30.5 68.5t-40.5 61.5l-155 -76v34l134 67
q-21 25 -43.5 42.5t-44.5 31.5q-20 12 -34 18.5t-22.5 10t-12 5.5t-3.5 6t1.5 6.5t7.5 2.5q13 0 35 -7t49 -20t57.5 -30t60.5 -37zM278 16q63 0 93.5 51.5t30.5 159.5q0 106 -30 158.5t-95 52.5q-59 0 -91 -49.5t-32 -161.5q0 -108 30.5 -159.5t93.5 -51.5z" />
    <glyph glyph-name="ntilde" unicode="&#xf1;" horiz-adv-x="593" 
d="M203 382q33 25 58.5 40.5t46.5 24.5t39.5 12t38.5 3q60 0 87 -30.5t27 -78.5v-287q0 -24 11.5 -32.5t25.5 -11t25.5 -4t11.5 -10.5q0 -5 -3.5 -7.5t-19.5 -2.5q-13 0 -29.5 0.5t-31.5 0.5t-27.5 0.5t-17.5 0.5l-105 -2q-16 0 -20 2.5t-4 7.5q0 9 11.5 10.5t25.5 4
t25.5 11t11.5 32.5v287q0 31 -20 47t-43 16q-26 0 -58 -16.5t-66 -45.5v-288q0 -23 11.5 -31.5t25.5 -11.5t25.5 -4.5t11.5 -10.5q0 -5 -4 -7.5t-20 -2.5q-13 0 -29 0.5t-31 0.5t-27 0.5t-18 0.5l-105 -2q-16 0 -20 2.5t-4 7.5q0 9 11.5 10.5t25.5 4t25.5 11t11.5 31.5v246
q0 29 -12.5 42.5t-27.5 19.5t-27.5 8.5t-12.5 9.5q0 11 15.5 14t44.5 11q26 7 57 16.5t73 29.5v-80zM468 646q-17 -52 -40 -81t-70 -29q-25 0 -44 7t-35.5 16t-33 16t-35.5 7q-22 0 -34 -13.5t-18 -34.5h-32q11 51 39.5 80.5t69.5 29.5q23 0 42 -7.5t36 -16.5t33.5 -16.5
t34.5 -7.5q15 0 28 9t25 41h34z" />
    <glyph glyph-name="ograve" unicode="&#xf2;" horiz-adv-x="556" 
d="M522 227q0 -48 -19 -90.5t-52 -75t-77.5 -51t-95.5 -18.5q-50 0 -94.5 18.5t-77.5 50t-52.5 74.5t-19.5 92t19 91.5t52 74.5t77.5 50.5t95.5 18.5t95.5 -18.5t77.5 -51t52 -75t19 -90.5zM278 16q63 0 93.5 51.5t30.5 159.5q0 106 -30 158.5t-95 52.5q-58 0 -90.5 -49.5
t-32.5 -161.5q0 -108 30.5 -159.5t93.5 -51.5zM354 510h-47l-142 90q-15 10 -27 21.5t-12 28.5q0 16 11 27t25 11q18 0 30.5 -11.5t26.5 -25.5z" />
    <glyph glyph-name="oacute" unicode="&#xf3;" horiz-adv-x="556" 
d="M522 227q0 -48 -19 -90.5t-52 -75t-77.5 -51t-95.5 -18.5q-50 0 -94.5 18.5t-77.5 50t-52.5 74.5t-19.5 92t19 91.5t52 74.5t77.5 50.5t95.5 18.5t95.5 -18.5t77.5 -51t52 -75t19 -90.5zM278 16q63 0 93.5 51.5t30.5 159.5q0 106 -30 158.5t-95 52.5q-58 0 -90.5 -49.5
t-32.5 -161.5q0 -108 30.5 -159.5t93.5 -51.5zM430 650q0 -25 -33 -46l-148 -94h-47l133 139q22 23 33 31t25 8t25.5 -10.5t11.5 -27.5z" />
    <glyph glyph-name="ocircumflex" unicode="&#xf4;" horiz-adv-x="556" 
d="M522 227q0 -48 -19 -90.5t-52 -75t-77.5 -51t-95.5 -18.5q-50 0 -94.5 18.5t-77.5 50t-52.5 74.5t-19.5 92t19 91.5t52 74.5t77.5 50.5t95.5 18.5t95.5 -18.5t77.5 -51t52 -75t19 -90.5zM278 16q63 0 93.5 51.5t30.5 159.5q0 106 -30 158.5t-95 52.5q-58 0 -90.5 -49.5
t-32.5 -161.5q0 -108 30.5 -159.5t93.5 -51.5zM312 678l124 -168h-43l-115 102l-115 -102h-43l124 168h68z" />
    <glyph glyph-name="otilde" unicode="&#xf5;" horiz-adv-x="556" 
d="M522 227q0 -48 -19 -90.5t-52 -75t-77.5 -51t-95.5 -18.5q-50 0 -94.5 18.5t-77.5 50t-52.5 74.5t-19.5 92t19 91.5t52 74.5t77.5 50.5t95.5 18.5t95.5 -18.5t77.5 -51t52 -75t19 -90.5zM278 16q63 0 93.5 51.5t30.5 159.5q0 106 -30 158.5t-95 52.5q-58 0 -90.5 -49.5
t-32.5 -161.5q0 -108 30.5 -159.5t93.5 -51.5zM449 646q-17 -52 -40 -81t-70 -29q-25 0 -44 7t-35.5 16t-33 16t-35.5 7q-22 0 -34 -13.5t-18 -34.5h-32q11 51 39.5 80.5t69.5 29.5q23 0 42 -7.5t36 -16.5t33.5 -16.5t34.5 -7.5q15 0 28 9t25 41h34z" />
    <glyph glyph-name="odieresis" unicode="&#xf6;" horiz-adv-x="556" 
d="M522 227q0 -48 -19 -90.5t-52 -75t-77.5 -51t-95.5 -18.5q-50 0 -94.5 18.5t-77.5 50t-52.5 74.5t-19.5 92t19 91.5t52 74.5t77.5 50.5t95.5 18.5t95.5 -18.5t77.5 -51t52 -75t19 -90.5zM278 16q63 0 93.5 51.5t30.5 159.5q0 106 -30 158.5t-95 52.5q-58 0 -90.5 -49.5
t-32.5 -161.5q0 -108 30.5 -159.5t93.5 -51.5zM230 579q0 -22 -15.5 -37.5t-37.5 -15.5t-37.5 15.5t-15.5 37.5t15.5 37.5t37.5 15.5t37.5 -15.5t15.5 -37.5zM432 579q0 -22 -15.5 -37.5t-37.5 -15.5t-37.5 15.5t-15.5 37.5t15.5 37.5t37.5 15.5t37.5 -15.5t15.5 -37.5z" />
    <glyph glyph-name="divide" unicode="&#xf7;" horiz-adv-x="600" 
d="M365 413q0 -27 -19 -46t-46 -19t-46 19t-19 46t19 46t46 19t46 -19t19 -46zM527 268v-82h-454v82h454zM365 41q0 -27 -19 -46t-46 -19t-46 19t-19 46t19 46t46 19t46 -19t19 -46z" />
    <glyph glyph-name="oslash" unicode="&#xf8;" horiz-adv-x="556" 
d="M412 516h39l-47 -88q54 -31 86 -84.5t32 -116.5q0 -50 -19.5 -92.5t-52.5 -74.5t-77.5 -50t-94.5 -18q-51 0 -96 20l-43 -80h-38l51 95q-54 30 -86 83t-32 117q0 49 19.5 92t52.5 74.5t77.5 50t94.5 18.5q26 0 49 -5t46 -14zM354 407q-30 31 -77 31q-57 0 -90 -48.5
t-33 -162.5q0 -98 26 -148zM201 48q15 -17 34.5 -24.5t42.5 -7.5q63 0 93.5 51.5t30.5 159.5q0 99 -26 148z" />
    <glyph glyph-name="ugrave" unicode="&#xf9;" 
d="M197 99q0 -30 17 -45.5t41 -15.5q17 0 35.5 5t35 14t30 20.5t21.5 23.5v222q0 27 -12.5 39.5t-27.5 18.5t-27.5 9.5t-12.5 12.5q0 7 12 8.5t36 5.5t59.5 13t82.5 32v-338q0 -29 11.5 -42t25.5 -18t25.5 -7t11.5 -9q0 -5 -12.5 -8t-36.5 -7.5t-58 -13.5t-76 -27v84
q-42 -40 -84.5 -62t-98.5 -22q-52 0 -80 26.5t-28 66.5v238q0 27 -12.5 39.5t-27.5 18.5t-27.5 9.5t-12.5 12.5q0 7 12 8.5t36 5.5t59.5 13t82.5 32v-363zM363 510h-47l-142 90q-15 10 -27 21.5t-12 28.5q0 16 11 27t25 11q18 0 30.5 -11.5t26.5 -25.5z" />
    <glyph glyph-name="uacute" unicode="&#xfa;" 
d="M197 99q0 -30 17 -45.5t41 -15.5q17 0 35.5 5t35 14t30 20.5t21.5 23.5v222q0 27 -12.5 39.5t-27.5 18.5t-27.5 9.5t-12.5 12.5q0 7 12 8.5t36 5.5t59.5 13t82.5 32v-338q0 -29 11.5 -42t25.5 -18t25.5 -7t11.5 -9q0 -5 -12.5 -8t-36.5 -7.5t-58 -13.5t-76 -27v84
q-42 -40 -84.5 -62t-98.5 -22q-52 0 -80 26.5t-28 66.5v238q0 27 -12.5 39.5t-27.5 18.5t-27.5 9.5t-12.5 12.5q0 7 12 8.5t36 5.5t59.5 13t82.5 32v-363zM439 650q0 -25 -33 -46l-148 -94h-47l133 139q22 23 33 31t25 8t25.5 -10.5t11.5 -27.5z" />
    <glyph glyph-name="ucircumflex" unicode="&#xfb;" 
d="M197 99q0 -30 17 -45.5t41 -15.5q17 0 35.5 5t35 14t30 20.5t21.5 23.5v222q0 27 -12.5 39.5t-27.5 18.5t-27.5 9.5t-12.5 12.5q0 7 12 8.5t36 5.5t59.5 13t82.5 32v-338q0 -29 11.5 -42t25.5 -18t25.5 -7t11.5 -9q0 -5 -12.5 -8t-36.5 -7.5t-58 -13.5t-76 -27v84
q-42 -40 -84.5 -62t-98.5 -22q-52 0 -80 26.5t-28 66.5v238q0 27 -12.5 39.5t-27.5 18.5t-27.5 9.5t-12.5 12.5q0 7 12 8.5t36 5.5t59.5 13t82.5 32v-363zM321 678l124 -168h-43l-115 102l-115 -102h-43l124 168h68z" />
    <glyph glyph-name="udieresis" unicode="&#xfc;" 
d="M197 99q0 -30 17 -45.5t41 -15.5q17 0 35.5 5t35 14t30 20.5t21.5 23.5v222q0 27 -12.5 39.5t-27.5 18.5t-27.5 9.5t-12.5 12.5q0 7 12 8.5t36 5.5t59.5 13t82.5 32v-338q0 -29 11.5 -42t25.5 -18t25.5 -7t11.5 -9q0 -5 -12.5 -8t-36.5 -7.5t-58 -13.5t-76 -27v84
q-42 -40 -84.5 -62t-98.5 -22q-52 0 -80 26.5t-28 66.5v238q0 27 -12.5 39.5t-27.5 18.5t-27.5 9.5t-12.5 12.5q0 7 12 8.5t36 5.5t59.5 13t82.5 32v-363zM239 579q0 -22 -15.5 -37.5t-37.5 -15.5t-37.5 15.5t-15.5 37.5t15.5 37.5t37.5 15.5t37.5 -15.5t15.5 -37.5z
M441 579q0 -22 -15.5 -37.5t-37.5 -15.5t-37.5 15.5t-15.5 37.5t15.5 37.5t37.5 15.5t37.5 -15.5t15.5 -37.5z" />
    <glyph glyph-name="yacute" unicode="&#xfd;" horiz-adv-x="519" 
d="M208 456q19 0 25 -2t6 -8q0 -8 -7.5 -10.5t-16 -5t-16 -7.5t-7.5 -18q0 -8 13 -37l106 -241q3 8 14 34t25 61q14 36 27 73.5t13 69.5t-12 45t-27 17.5t-27 6.5t-12 11q0 3 3.5 7t22.5 4q25 0 45 -1t36 -1t36.5 1t47.5 1q14 0 18.5 -4t4.5 -7q0 -11 -9.5 -12t-25.5 -9
q-15 -8 -32.5 -24.5t-34.5 -57.5l-181 -433q-14 -33 -26 -56.5t-25 -37.5t-26.5 -20.5t-30.5 -6.5q-27 0 -48.5 18.5t-21.5 54.5q0 26 15 43.5t37 17.5q19 0 29 -8.5t16.5 -18.5t11 -18.5t13.5 -8.5q7 0 12.5 3.5t11.5 14.5q6 12 16 35.5t28 63.5l-113 251q-17 37 -33 73.5
t-34 74.5q-11 23 -23 32.5t-22 13.5t-16.5 6t-6.5 9q0 8 4.5 9.5t12.5 1.5q29 0 58 -1t43 -1zM412 650q0 -25 -33 -46l-148 -94h-47l133 139q22 23 33 31t25 8t25.5 -10.5t11.5 -27.5z" />
    <glyph glyph-name="thorn" unicode="&#xfe;" horiz-adv-x="556" 
d="M186 390q47 37 84.5 54.5t81.5 17.5q38 0 69 -14t53.5 -41t35 -65t12.5 -86q0 -55 -18.5 -103t-52 -84t-80.5 -56.5t-104 -20.5q-22 0 -38 2.5t-43 7.5v-128q0 -24 11.5 -32.5t25.5 -11t25.5 -4t11.5 -10.5q0 -5 -4 -7.5t-20 -2.5q-13 0 -28.5 0.5t-30.5 0.5t-27.5 0.5
t-18.5 0.5l-105 -2q-16 0 -20 2.5t-4 7.5q0 9 11.5 10.5t25.5 4t25.5 11.5t11.5 33v704q0 30 -12.5 43.5t-27.5 19t-27.5 8t-12.5 9.5q0 6 4 9t12 5q12 4 28 7.5t37.5 9t48.5 15t60 25.5v-340zM186 138q0 -60 22.5 -91t61.5 -31q35 0 61.5 16.5t44.5 45t27 68t9 85.5
q0 86 -36 132.5t-94 46.5q-23 0 -47.5 -13t-48.5 -35v-224z" />
    <glyph glyph-name="ydieresis" unicode="&#xff;" horiz-adv-x="519" 
d="M208 456q19 0 25 -2t6 -8q0 -8 -7.5 -10.5t-16 -5t-16 -7.5t-7.5 -18q0 -8 13 -37l106 -241q3 8 14 34t25 61q14 36 27 73.5t13 69.5t-12 45t-27 17.5t-27 6.5t-12 11q0 3 3.5 7t22.5 4q25 0 45 -1t36 -1t36.5 1t47.5 1q14 0 18.5 -4t4.5 -7q0 -11 -9.5 -12t-25.5 -9
q-15 -8 -32.5 -24.5t-34.5 -57.5l-181 -433q-14 -33 -26 -56.5t-25 -37.5t-26.5 -20.5t-30.5 -6.5q-27 0 -48.5 18.5t-21.5 54.5q0 26 15 43.5t37 17.5q19 0 29 -8.5t16.5 -18.5t11 -18.5t13.5 -8.5q7 0 12.5 3.5t11.5 14.5q6 12 16 35.5t28 63.5l-113 251q-17 37 -33 73.5
t-34 74.5q-11 23 -23 32.5t-22 13.5t-16.5 6t-6.5 9q0 8 4.5 9.5t12.5 1.5q29 0 58 -1t43 -1zM212 579q0 -22 -15.5 -37.5t-37.5 -15.5t-37.5 15.5t-15.5 37.5t15.5 37.5t37.5 15.5t37.5 -15.5t15.5 -37.5zM414 579q0 -22 -15.5 -37.5t-37.5 -15.5t-37.5 15.5t-15.5 37.5
t15.5 37.5t37.5 15.5t37.5 -15.5t15.5 -37.5z" />
    <glyph glyph-name="dotlessi" unicode="&#x131;" horiz-adv-x="296" 
d="M203 66q0 -24 11.5 -32.5t25.5 -11t25.5 -4t11.5 -10.5q0 -5 -3.5 -7.5t-19.5 -2.5l-106 2h-16t-27.5 -0.5t-32 -1t-29.5 -0.5q-16 0 -20 2.5t-4 7.5q0 9 11.5 10.5t25.5 4t25.5 11t11.5 32.5v251q0 26 -12.5 38.5t-27.5 18.5t-27.5 8.5t-12.5 9.5q0 8 14.5 12.5
t44.5 12.5q23 6 55.5 17t75.5 28v-396z" />
    <glyph glyph-name="Lslash" unicode="&#x141;" horiz-adv-x="630" 
d="M178 678q44 0 69.5 1t48.5 1q16 0 20.5 -3t4.5 -11q0 -9 -13 -10.5t-28.5 -4t-28.5 -11.5t-13 -33v-219l206 83v-40l-206 -82v-255q0 -41 17 -56.5t59 -15.5q70 0 131 34t106 107q15 24 22 42.5t11 31.5t7.5 19.5t9.5 6.5q9 0 9 -11q0 -4 -0.5 -11t-2.5 -18l-42 -225
q-94 1 -188 1.5t-188 0.5q-29 0 -48 -0.5t-32.5 -0.5t-24.5 -0.5t-24 -0.5q-17 0 -21 3t-4 11q0 9 13 10t28.5 4t28.5 12t13 33v230l-114 -45v38l114 46v267q0 24 -13 33t-28.5 12t-28.5 4t-13 10q0 8 4 11t21 3q23 0 48.5 -1t69.5 -1z" />
    <glyph glyph-name="lslash" unicode="&#x142;" horiz-adv-x="296" 
d="M203 452l104 53v-32l-104 -53v-354q0 -23 11.5 -32t25.5 -11.5t25.5 -4t11.5 -9.5q0 -6 -4 -8.5t-20 -2.5q-13 0 -29 0.5t-31 0.5t-27.5 0.5t-17.5 0.5l-105 -2q-16 0 -20 2.5t-4 7.5q0 9 11.5 10.5t25.5 4t25.5 11.5t11.5 33v296l-104 -54v32l104 54v184
q0 30 -12.5 43.5t-27.5 19t-27.5 8t-12.5 9.5q0 8 6.5 11t15.5 5q24 6 68.5 17.5t99.5 37.5v-278z" />
    <glyph glyph-name="OE" unicode="&#x152;" horiz-adv-x="1167" 
d="M618 678h213t214 2q7 -27 16 -62.5t17.5 -68.5t14.5 -56.5t6 -25.5q0 -10 -8 -10q-5 0 -9 8t-12 25q-24 46 -50 78t-60 51.5t-78.5 28t-105.5 8.5h-38v-294h23q45 0 79.5 13.5t52.5 45.5q8 14 12.5 30.5t5.5 44.5q0 20 12 20t12 -17v-303q0 -16 -12 -16q-8 0 -10 5.5
t-2 17.5q-3 135 -151 135h-22v-262q0 -25 18 -39.5t66 -14.5q78 0 130.5 25t86 59.5t50.5 71t24 59.5q4 12 7 19t10 7q9 0 9 -11q0 -4 -0.5 -11t-2.5 -18l-42 -225q-120 1 -238 1.5t-238 0.5v64q-51 -39 -109.5 -59.5t-118.5 -20.5q-58 0 -120 23.5t-113.5 68.5t-84.5 111
t-33 152q0 87 36.5 159.5t102.5 121.5q47 35 101 54.5t111 19.5q60 0 118.5 -20.5t109.5 -59.5v64zM390 8q111 0 173 84.5t62 246.5q0 160 -61 245.5t-175 85.5q-48 0 -88.5 -21.5t-69 -63t-44.5 -103.5t-16 -143q0 -80 16 -142t44.5 -104t69 -63.5t89.5 -21.5z" />
    <glyph glyph-name="oe" unicode="&#x153;" horiz-adv-x="889" 
d="M470 373q32 39 77.5 64t105.5 25q44 0 81 -14t64 -40t42 -64.5t16 -87.5h-327v-6q0 -39 13 -73t35 -58.5t51.5 -38.5t63.5 -14q37 0 62.5 7.5t42.5 21.5q16 13 24.5 25t13.5 21.5t8 15t8 5.5q7 0 7 -9q0 -13 -11.5 -40t-36.5 -54t-65.5 -47t-97.5 -20q-54 0 -101.5 21.5
t-78.5 63.5q-34 -39 -83.5 -62t-109.5 -23q-51 0 -95.5 18.5t-77.5 50.5t-52 74.5t-19 91.5t19.5 92t52.5 75t77.5 50t94.5 18q60 0 111.5 -23.5t84.5 -65.5zM284 16q70 0 102.5 51t32.5 160q0 106 -32 158.5t-104 52.5q-64 0 -98.5 -48t-34.5 -163q0 -111 32.5 -161
t101.5 -50zM746 280v19q0 66 -22 102.5t-75 36.5q-26 0 -47.5 -12.5t-37 -34.5t-24.5 -50.5t-10 -60.5h216z" />
    <glyph glyph-name="Scaron" unicode="&#x160;" horiz-adv-x="556" 
d="M432 654q10 0 14.5 5t6.5 11t4.5 11t9.5 5q4 0 5.5 -1.5t3.5 -7.5q1 -4 4 -35t6 -69.5t5.5 -74.5t2.5 -49q0 -14 -11 -14q-4 0 -6 3.5t-4.5 12t-6.5 22t-12 34.5q-28 73 -71.5 118t-113.5 45q-57 0 -89 -30t-32 -78q0 -30 12.5 -52.5t35.5 -40.5t57 -33.5t77 -32.5
t78 -36t59.5 -43t38 -55t13.5 -72q0 -43 -15.5 -81.5t-46 -68t-75 -46.5t-102.5 -17q-27 0 -53 6t-47.5 13t-38.5 13t-27 6q-15 0 -21.5 -5.5t-9.5 -11.5t-5 -11.5t-9 -5.5q-9 0 -9 11v277q0 4 2.5 7.5t7.5 3.5t8 -4.5t5 -18.5q2 -12 5 -32t12 -52q10 -35 25.5 -66t38 -54.5
t53 -37.5t69.5 -14q66 0 105.5 34t39.5 94q0 26 -7 45.5t-21 35.5q-22 26 -58.5 44t-94.5 40q-36 13 -70 29t-61 39t-43 55t-16 78q0 39 16.5 73.5t45 61t67 42t81.5 15.5q34 0 58 -6.5t42 -14t32.5 -13.5t29.5 -6zM114 886h43l115 -102l115 102h43l-124 -168h-68z" />
    <glyph glyph-name="scaron" unicode="&#x161;" horiz-adv-x="426" 
d="M361 312q0 -9 -8 -9q-5 0 -7.5 7t-7.5 18q-6 15 -14.5 34t-23.5 36t-37.5 28.5t-55.5 11.5q-35 0 -54 -15.5t-19 -35.5q0 -28 22.5 -46.5t68.5 -37.5q32 -13 57.5 -24t44.5 -24q35 -23 50 -50.5t15 -62.5q0 -66 -48 -108t-138 -42q-48 0 -85 9t-72 22v148q0 8 7 8
q4 0 6 -2.5t4 -10.5q6 -23 19.5 -50.5t33.5 -50.5q19 -22 45 -35.5t61 -13.5q38 0 61.5 19.5t23.5 51.5q0 30 -22.5 51t-69.5 41q-33 14 -59.5 25.5t-45.5 24.5q-35 23 -48 49.5t-13 56.5q0 23 9.5 45.5t29.5 40.5t49.5 29.5t70.5 11.5q32 0 73.5 -7.5t76.5 -24.5v-118z
M55 678h43l115 -102l115 102h43l-124 -168h-68z" />
    <glyph glyph-name="Ydieresis" unicode="&#x178;" horiz-adv-x="630" 
d="M17 680q33 0 65 -1t65 -1q28 0 55.5 1t55.5 1q21 0 25.5 -4t4.5 -10q0 -8 -10 -9.5t-22 -4.5t-22 -10.5t-10 -26.5q0 -7 3.5 -22t14.5 -35l117 -212q39 56 65 95.5t41.5 68t22 49.5t6.5 39q0 28 -11 40t-24 16t-24 5.5t-11 9.5q0 7 5 9t19 2l97 -2q6 0 18.5 0.5t26 0.5
t25.5 0.5t18 0.5q14 0 18.5 -3.5t4.5 -8.5q0 -6 -9 -8t-26 -11q-20 -11 -47.5 -35t-59.5 -72l-139 -208v-263q0 -24 14 -33t31.5 -11.5t31.5 -4t14 -10.5q0 -14 -33 -14q-23 0 -48.5 1t-69.5 1t-69.5 -1t-48.5 -1q-17 0 -23 3t-6 11q0 9 13.5 10t30 4t30 12t13.5 35v230
l-164 294q-20 35 -49 49q-18 9 -31.5 11.5t-13.5 11.5q0 6 3.5 8.5t16.5 2.5zM279 787q0 -22 -15.5 -37.5t-37.5 -15.5t-37.5 15.5t-15.5 37.5t15.5 37.5t37.5 15.5t37.5 -15.5t15.5 -37.5zM481 787q0 -22 -15.5 -37.5t-37.5 -15.5t-37.5 15.5t-15.5 37.5t15.5 37.5
t37.5 15.5t37.5 -15.5t15.5 -37.5z" />
    <glyph glyph-name="Zcaron" unicode="&#x17d;" horiz-adv-x="611" 
d="M57 469q0 1 5.5 23t14 54t17.5 68.5t17 65.5q27 0 57.5 -0.5t59.5 -0.5t54 -0.5t40 -0.5q58 0 119 1t112 1q13 0 16.5 -2t3.5 -5q0 -5 -5.5 -14.5t-13.5 -21.5l-391 -615h88q49 0 96.5 14.5t82.5 41.5t56.5 56.5t35.5 61.5q7 16 11 28.5t7 21t6 13t8 4.5q9 0 9 -11
q0 -4 -0.5 -11t-2.5 -18l-42 -225q-63 0 -125.5 1t-125.5 1q-54 0 -107 -1t-107 -1q-17 0 -22.5 1t-5.5 8q0 4 4.5 10.5t19.5 30.5l378 608h-31q-44 0 -82.5 -3.5t-71.5 -13.5t-60.5 -28t-50.5 -48q-12 -16 -24.5 -35.5t-23.5 -42.5q-5 -10 -8.5 -19t-9.5 -9q-3 0 -5.5 1.5
t-2.5 10.5zM160 886h43l115 -102l115 102h43l-124 -168h-68z" />
    <glyph glyph-name="zcaron" unicode="&#x17e;" horiz-adv-x="500" 
d="M99 456q24 0 51 -0.5t53 -0.5t47 -0.5t33 -0.5l182 2l-309 -440q78 0 139 33.5t100 84.5q16 21 25.5 40t14.5 33t8.5 22t10.5 8q8 0 8 -8t-4 -24l-45 -207q-24 0 -52.5 0.5t-55.5 0.5t-50.5 0.5t-38.5 0.5l-196 -2l313 440h-4q-44 0 -87 -14.5t-73 -36.5
q-26 -19 -46.5 -40t-32.5 -40q-14 -22 -19.5 -37t-14.5 -15q-7 0 -7 10q0 2 2 10.5t8 29.5t15.5 57.5t24.5 93.5zM92 678h43l115 -102l115 102h43l-124 -168h-68z" />
    <glyph glyph-name="florin" unicode="&#x192;" 
d="M614 655q0 -26 -14.5 -45.5t-45.5 -19.5q-21 0 -31.5 7.5t-15.5 19.5t-6.5 25t-5 25t-10 19.5t-21.5 7.5q-43 0 -64 -55.5t-26 -184.5h83l-22 -60h-71q-11 -64 -23 -119t-25 -103q-49 -180 -113.5 -267t-139.5 -87q-42 0 -63.5 23.5t-21.5 55.5q0 22 14.5 40.5t44.5 18.5
q29 0 41.5 -12t19 -27t13 -27t24.5 -12q28 0 40.5 23t16.5 66q3 41 7.5 92t11.5 106.5t16.5 114t23.5 114.5h-67q19 12 35.5 30t32 41.5t32.5 51.5t37 61q16 26 33.5 49.5t34.5 40.5q61 62 132 62q46 0 69.5 -23t23.5 -52z" />
    <glyph glyph-name="circumflex" unicode="&#x2c6;" horiz-adv-x="296" 
d="M182 678l124 -168h-43l-115 102l-115 -102h-43l124 168h68z" />
    <glyph glyph-name="caron" unicode="&#x2c7;" horiz-adv-x="296" 
d="M-10 678h43l115 -102l115 102h43l-124 -168h-68z" />
    <glyph glyph-name="uni02C9" unicode="&#x2c9;" horiz-adv-x="296" 
d="M306 610v-60h-316v60h316z" />
    <glyph glyph-name="breve" unicode="&#x2d8;" horiz-adv-x="296" 
d="M38 668q8 -45 35 -70.5t75 -25.5t75 25.5t35 70.5h36q-6 -81 -46 -119.5t-100 -38.5t-100 38.5t-46 119.5h36z" />
    <glyph glyph-name="dotaccent" unicode="&#x2d9;" horiz-adv-x="296" 
d="M201 579q0 -22 -15.5 -37.5t-37.5 -15.5t-37.5 15.5t-15.5 37.5t15.5 37.5t37.5 15.5t37.5 -15.5t15.5 -37.5z" />
    <glyph glyph-name="ring" unicode="&#x2da;" horiz-adv-x="296" 
d="M249 612q0 -21 -8 -39.5t-22 -32.5t-32.5 -22t-38.5 -8t-38.5 8t-32.5 22t-22 32.5t-8 39.5t8 39t22 31.5t32 21.5t39 8t39.5 -8t32 -22t21.5 -32t8 -38zM148 548q27 0 45 18t18 45t-18 45t-46 18q-26 0 -44 -18t-18 -45t18 -45t45 -18z" />
    <glyph glyph-name="ogonek" unicode="&#x2db;" horiz-adv-x="296" 
d="M258 11q-81 -34 -115.5 -64t-34.5 -58q0 -23 14 -37t35 -14q29 0 54.5 12t48.5 28l17 -32q-35 -23 -71.5 -40.5t-76.5 -17.5q-42 0 -70.5 24t-28.5 63q0 51 61.5 88t166.5 57v-9z" />
    <glyph glyph-name="tilde" unicode="&#x2dc;" horiz-adv-x="296" 
d="M319 646q-17 -52 -40 -81t-70 -29q-25 0 -44 7t-35.5 16t-33 16t-35.5 7q-22 0 -34 -13.5t-18 -34.5h-32q11 51 39.5 80.5t69.5 29.5q23 0 42 -7.5t36 -16.5t33.5 -16.5t34.5 -7.5q15 0 28 9t25 41h34z" />
    <glyph glyph-name="hungarumlaut" unicode="&#x2dd;" horiz-adv-x="296" 
d="M216 650q0 -23 -29 -43l-144 -97h-43l120 136q19 22 32 32t28 10q14 0 25 -11t11 -27zM376 650q0 -25 -33 -46l-148 -94h-47l133 139q11 12 25.5 25.5t32.5 13.5q15 0 26 -11t11 -27z" />
    <glyph glyph-name="Delta" unicode="&#x394;" horiz-adv-x="652" 
d="M344 678l272 -650v-28h-581v28l263 638zM95 51h396l-200 492z" />
    <glyph glyph-name="Delta" unicode="&#x2206;" horiz-adv-x="652" 
d="M344 678l272 -650v-28h-581v28l263 638zM95 51h396l-200 492z" />
    <glyph glyph-name="Omega" unicode="&#x3a9;" horiz-adv-x="751" 
d="M676 379q0 -77 -42 -149t-135 -154h115q15 0 26 3.5t19 11.5t14.5 22.5t13.5 36.5l29 -1l-27 -149h-248l-7 20q11 20 27.5 48.5t36.5 68.5q31 60 47.5 117t16.5 115q0 132 -50 204.5t-138 72.5q-94 0 -139.5 -73t-45.5 -209q0 -38 7 -75t22 -78t38.5 -87.5t57.5 -102.5
l-8 -21h-247l-24 149l27 1q14 -42 29.5 -58t46.5 -16h107q-91 69 -131.5 140t-40.5 155q0 69 22.5 125.5t63 97t96 63t121.5 22.5q67 0 122 -21t94.5 -60t61.5 -94.5t22 -124.5z" />
    <glyph glyph-name="mu" unicode="&#x3bc;" 
d="M197 98q0 -30 17 -45t41 -15q17 0 35.5 5t35 14t30 20.5t21.5 23.5v222q0 27 -12.5 39.5t-27.5 18.5t-27.5 9.5t-12.5 12.5q0 7 9 8.5t26 3.5q20 3 60 12t95 35v-339q0 -28 11.5 -41t25.5 -18.5t25.5 -7.5t11.5 -8q0 -5 -12.5 -8t-36.5 -7.5t-58 -13.5t-76 -27v84
q-42 -40 -84 -62t-97 -22q0 -27 2 -61t2 -60q0 -45 -18 -64t-44 -19q-28 0 -43 19t-15 61q0 15 1 43t2 61.5t2 69.5t1 68v213q0 27 -12.5 39.5t-27.5 18.5t-27.5 9.5t-12.5 12.5q0 7 12 8.5t36 5.5t59.5 13t82.5 32v-364z" />
    <glyph glyph-name="pi" unicode="&#x3c0;" horiz-adv-x="581" 
d="M553 457q-5 -29 -15.5 -56.5t-21.5 -40.5q-11 -3 -28.5 -4t-39.5 -1q-1 -13 -2 -28t-1.5 -39t-0.5 -60.5v-92.5q0 -84 43 -84q15 0 26 7.5t23 19.5l13 -23q-20 -32 -50 -49.5t-60 -17.5q-47 0 -70.5 29.5t-23.5 101.5q0 27 0.5 52t2 52.5t3 59.5t4.5 74q-38 1 -75.5 1.5
t-75.5 0.5v-16q0 -58 -5 -111t-14 -97t-21 -77.5t-26 -52.5q-15 -6 -32.5 -10.5t-30.5 -6.5l-7 18q21 24 38 62t29.5 85t19.5 100t7 108q-17 0 -32.5 -1.5t-30.5 -6t-31 -13.5t-35 -23l-16 25q19 25 37 43t39 29t45 16.5t55 5.5q52 -1 91.5 -1.5t86.5 -1t90 -0.5
q13 0 22.5 1t17 4.5t14 10t13.5 17.5z" />
    <glyph glyph-name="endash" unicode="&#x2013;" horiz-adv-x="500" 
d="M500 264v-74h-500v74h500z" />
    <glyph glyph-name="emdash" unicode="&#x2014;" horiz-adv-x="1000" 
d="M1000 264v-74h-1000v74h1000z" />
    <glyph glyph-name="quoteleft" unicode="&#x2018;" horiz-adv-x="241" 
d="M173 730q0 -5 -12 -12.5t-26 -19t-26 -28.5t-12 -41q0 -23 9 -26.5t34 -4.5q29 -1 47 -14.5t18 -43.5q0 -23 -18.5 -42.5t-57.5 -19.5q-38 0 -65 26.5t-27 71.5q0 23 8 43.5t20 37.5t26.5 31t28.5 24q16 11 27 18.5t18 7.5q8 0 8 -8z" />
    <glyph glyph-name="quoteright" unicode="&#x2019;" horiz-adv-x="241" 
d="M204 632q0 -32 -14 -58.5t-33 -46.5t-38.5 -33.5t-30.5 -19.5q-5 -3 -8 -3.5t-4 -0.5q-8 0 -8 8q0 5 12 12.5t26 19t26 28.5t12 41q0 19 -7 25t-33 6q-31 0 -49.5 14t-18.5 44q0 23 18.5 42.5t57.5 19.5q38 0 65 -26.5t27 -71.5z" />
    <glyph glyph-name="quotesinglbase" unicode="&#x201a;" horiz-adv-x="241" 
d="M68 -132q0 5 12 12.5t26 19t26 28.5t12 41q0 23 -9 26.5t-34 4.5q-29 1 -47 14.5t-18 43.5q0 23 18.5 42.5t57.5 19.5q38 0 65 -26.5t27 -71.5q0 -23 -8 -43.5t-20 -37.5t-26.5 -31t-28.5 -24q-16 -11 -27 -18.5t-18 -7.5q-8 0 -8 8z" />
    <glyph glyph-name="quotedblleft" unicode="&#x201c;" horiz-adv-x="537" 
d="M200 730q0 -5 -12 -12.5t-26 -19t-26 -28.5t-12 -41q0 -23 9 -26.5t34 -4.5q29 -1 47 -14.5t18 -43.5q0 -23 -18.5 -42.5t-57.5 -19.5q-38 0 -65 26.5t-27 71.5q0 23 8 43.5t20 37.5t26.5 31t28.5 24q16 11 27 18.5t18 7.5q8 0 8 -8zM441 730q0 -5 -12 -12.5t-26 -19
t-26 -28.5t-12 -41q0 -23 9 -26.5t34 -4.5q29 -1 47 -14.5t18 -43.5q0 -23 -18.5 -42.5t-57.5 -19.5q-38 0 -65 26.5t-27 71.5q0 23 8 43.5t20 37.5t26.5 31t28.5 24q16 11 27 18.5t18 7.5q8 0 8 -8z" />
    <glyph glyph-name="quotedblright" unicode="&#x201d;" horiz-adv-x="537" 
d="M96 478q0 5 12 12.5t26 19t26 28.5t12 41q0 23 -9 26.5t-34 4.5q-29 1 -47 14.5t-18 43.5q0 23 18.5 42.5t57.5 19.5q38 0 65 -26.5t27 -71.5q0 -23 -8 -43.5t-20 -37.5t-26.5 -31t-28.5 -24q-16 -11 -27 -18.5t-18 -7.5q-8 0 -8 8zM337 478q0 5 12 12.5t26 19t26 28.5
t12 41q0 23 -9 26.5t-34 4.5q-29 1 -47 14.5t-18 43.5q0 23 18.5 42.5t57.5 19.5q38 0 65 -26.5t27 -71.5q0 -23 -8 -43.5t-20 -37.5t-26.5 -31t-28.5 -24q-16 -11 -27 -18.5t-18 -7.5q-8 0 -8 8z" />
    <glyph glyph-name="quotedblbase" unicode="&#x201e;" horiz-adv-x="537" 
d="M96 -132q0 5 12 12.5t26 19t26 28.5t12 41q0 23 -9 26.5t-34 4.5q-29 1 -47 14.5t-18 43.5q0 23 18.5 42.5t57.5 19.5q38 0 65 -26.5t27 -71.5q0 -23 -8 -43.5t-20 -37.5t-26.5 -31t-28.5 -24q-16 -11 -27 -18.5t-18 -7.5q-8 0 -8 8zM337 -132q0 5 12 12.5t26 19t26 28.5
t12 41q0 23 -9 26.5t-34 4.5q-29 1 -47 14.5t-18 43.5q0 23 18.5 42.5t57.5 19.5q38 0 65 -26.5t27 -71.5q0 -23 -8 -43.5t-20 -37.5t-26.5 -31t-28.5 -24q-16 -11 -27 -18.5t-18 -7.5q-8 0 -8 8z" />
    <glyph glyph-name="dagger" unicode="&#x2020;" horiz-adv-x="500" 
d="M308 629q0 -19 -7 -38t-15.5 -36.5t-15.5 -32.5t-7 -25q0 -9 5 -15t17 -6t23.5 6t25 13.5t30 14t39.5 6.5q25 0 40 -14.5t15 -37.5t-15.5 -37.5t-39.5 -14.5q-22 0 -39 6t-30.5 13.5t-25 14t-23.5 6.5q-21 0 -21 -39q0 -12 7 -31t29 -62q-15 -35 -22 -69.5t-8 -78.5
l-6 -276h-28l-5 246q-1 33 -2.5 57.5t-5 44t-9 37.5t-14.5 39q11 22 18 37t11 25.5t5.5 17.5t1.5 13q0 39 -21 39q-12 0 -23.5 -6.5t-25.5 -14t-30.5 -13.5t-38.5 -6q-25 0 -40 14.5t-15 37.5t15.5 37.5t39.5 14.5q22 0 38.5 -6.5t30.5 -14t25.5 -13.5t23.5 -6t17 6t5 15
q0 11 -7 25.5t-15.5 32t-15.5 36t-7 38.5q0 26 14.5 45.5t43.5 19.5t43.5 -19.5t14.5 -45.5z" />
    <glyph glyph-name="daggerdbl" unicode="&#x2021;" horiz-adv-x="500" 
d="M308 629q0 -19 -7 -38t-15.5 -36.5t-15.5 -32.5t-7 -25q0 -9 5 -15t17 -6t24 6t25.5 13.5t30 14t38.5 6.5q24 0 39.5 -14.5t15.5 -37.5t-15 -37.5t-40 -14.5q-23 0 -39.5 6t-30 13.5t-25 14t-23.5 6.5q-8 0 -17 -6.5t-9 -20.5q0 -16 11 -31t29 -35q-17 -24 -21 -41
t-4 -30q0 -24 7 -39t18 -32q-20 -22 -30 -36.5t-10 -29.5q0 -14 9 -20.5t17 -6.5q12 0 24 6t25.5 13.5t30 14t38.5 6.5q24 0 39.5 -14.5t15.5 -37.5t-15 -37.5t-40 -14.5q-22 0 -39 6t-30.5 13.5t-25 14t-23.5 6.5t-17 -6t-5 -15q0 -11 7 -25.5t15.5 -32t15.5 -36.5t7 -38
q0 -26 -14.5 -45.5t-43.5 -19.5t-43.5 19.5t-14.5 45.5q0 19 7 38t15.5 36.5t15.5 32t7 25.5q0 9 -5 15t-17 6t-23.5 -6.5t-25.5 -14t-30.5 -13.5t-38.5 -6q-24 0 -39.5 14.5t-15.5 37.5t15.5 37.5t39.5 14.5q21 0 38 -6.5t31 -14t26 -13.5t23 -6q5 0 12.5 7t7.5 20
q0 15 -9.5 29.5t-29.5 36.5q13 18 18.5 34t5.5 37q0 18 -5 34.5t-19 36.5q20 22 29.5 36.5t9.5 29.5q0 14 -7.5 20.5t-12.5 6.5q-12 0 -23.5 -6.5t-25.5 -14t-30.5 -13.5t-38.5 -6q-25 0 -40 14.5t-15 37.5t15 37.5t40 14.5q22 0 38.5 -6.5t30.5 -14t25.5 -13.5t23.5 -6
t17 6t5 15q0 10 -7 25t-15.5 32.5t-15.5 37t-7 37.5q0 26 14.5 45.5t43.5 19.5t43.5 -19.5t14.5 -45.5z" />
    <glyph glyph-name="bullet" unicode="&#x2022;" horiz-adv-x="500" 
d="M419 339q0 -34 -13 -64.5t-36 -54t-53.5 -37t-66.5 -13.5q-35 0 -66 13.5t-54 37t-36 54t-13 64.5t13 64.5t36 54t53.5 37t66.5 13.5t66.5 -13.5t53.5 -37t36 -54t13 -64.5z" />
    <glyph glyph-name="ellipsis" unicode="&#x2026;" horiz-adv-x="1000" 
d="M239 64q0 -30 -21 -51t-51 -21t-51 21t-21 51t21 51t51 21t51 -21t21 -51zM572 64q0 -30 -21 -51t-51 -21t-51 21t-21 51t21 51t51 21t51 -21t21 -51zM905 64q0 -30 -21 -51t-51 -21t-51 21t-21 51t21 51t51 21t51 -21t21 -51z" />
    <glyph glyph-name="perthousand" unicode="&#x2030;" horiz-adv-x="1130" 
d="M570 686h42l-425 -694h-41zM339 495q0 -39 -11.5 -73.5t-32 -60.5t-48 -41.5t-59.5 -15.5q-31 0 -58.5 15t-48 41t-32.5 60.5t-12 74.5q0 37 11 72t31.5 61t48 42t60.5 16q31 0 59 -15t48 -41t32 -61t12 -74zM188 322q67 0 67 173t-67 173q-36 0 -51.5 -46t-15.5 -127
q0 -173 67 -173zM729 183q0 -39 -11.5 -73.5t-32 -60.5t-48 -41.5t-59.5 -15.5q-31 0 -58.5 15t-48 41t-32.5 60.5t-12 74.5q0 37 11 72t31.5 61t48 42t60.5 16q31 0 59 -15t48 -41t32 -61t12 -74zM578 10q67 0 67 173t-67 173q-36 0 -51.5 -46t-15.5 -127q0 -173 67 -173z
M1093 183q0 -39 -11.5 -73.5t-32 -60.5t-48 -41.5t-59.5 -15.5q-31 0 -58.5 15t-48 41t-32.5 60.5t-12 74.5q0 37 11 72t31.5 61t48 42t60.5 16q31 0 59 -15t48 -41t32 -61t12 -74zM942 10q67 0 67 173t-67 173q-36 0 -51.5 -46t-15.5 -127q0 -173 67 -173z" />
    <glyph glyph-name="guilsinglleft" unicode="&#x2039;" horiz-adv-x="333" 
d="M262 414q0 -2 -2.5 -7l-4.5 -9l-97 -151q-2 -3 -7 -10t-5 -11q0 -2 4.5 -8t10.5 -16q13 -20 32 -49t36 -57q11 -19 22 -34.5t11 -21.5t-6 -6q-5 0 -8 2.5t-8 7.5l-163 170q-5 5 -6 7.5t-1 5.5q0 6 3.5 9t8.5 9l143 149q11 12 17.5 19t13.5 7q6 0 6 -6z" />
    <glyph glyph-name="guilsinglright" unicode="&#x203a;" horiz-adv-x="333" 
d="M71 414q0 6 6 6q7 0 13.5 -7t17.5 -19l143 -149q5 -6 8.5 -9t3.5 -9q0 -3 -1 -5.5t-6 -7.5l-163 -170q-5 -5 -8 -7.5t-8 -2.5q-6 0 -6 6t11 21.5t22 34.5q17 28 36 57t32 49q6 10 10.5 16t4.5 8q0 4 -5 11t-7 10l-97 151l-4.5 9t-2.5 7z" />
    <glyph glyph-name="fraction" unicode="&#x2044;" horiz-adv-x="167" 
d="M334 686l-428 -694h-73l430 694h71z" />
    <glyph glyph-name="Euro" unicode="&#x20ac;" 
d="M491 628q10 0 14 7t6 16t4 16t8 7q5 0 6.5 -5.5t1.5 -10.5v-216q0 -6 -3 -11.5t-7 -5.5q-10 0 -13 13.5t-8 36.5q-5 25 -19 57.5t-35.5 61.5t-49.5 48.5t-62 19.5q-54 0 -88 -58.5t-43 -176.5h188v-40h-190q-1 -18 -1 -35.5v-35.5h191v-40h-189q8 -135 44 -197.5
t90 -62.5q27 0 50.5 11.5t43.5 30.5t35 43t25 49q9 23 13 40.5t6 28.5q2 14 6.5 18t8.5 4t7 -6t3 -12v-214q0 -5 -1.5 -11t-8.5 -6t-9 7.5t-4 16t-6.5 16t-16.5 7.5q-11 0 -25.5 -7.5t-35 -16t-47 -16t-60.5 -7.5q-45 0 -85 20t-71.5 57.5t-53.5 89.5t-30 117h-66v40h62
v29.5t0.5 19t1 12.5t1.5 10h-65v40h71q12 58 37 105.5t58 81.5t72 53t79 19q34 0 59.5 -9t44.5 -20t32.5 -20t23.5 -9z" />
    <glyph glyph-name="afii61289" unicode="&#x2113;" horiz-adv-x="426" 
d="M337 590q0 -36 -8 -70t-25.5 -68.5t-46.5 -70.5t-71 -76v-81q0 -38 3.5 -69t13.5 -53.5t27.5 -34.5t45.5 -12q36 0 64 22.5t48 51.5l21 -19q-31 -56 -74 -86t-101 -30q-47 0 -76 15t-45 44q-12 22 -17 50.5t-5 65.5v79l-60 -42l-13 26l73 55v140q0 59 3.5 101t9.5 65
q7 26 16.5 43.5t23.5 34.5q19 23 42 37t55 14q43 0 69.5 -34.5t26.5 -97.5zM186 354q40 46 66.5 105.5t26.5 128.5q0 42 -11 72t-34 30q-29 0 -38.5 -49.5t-9.5 -156.5v-130z" />
    <glyph glyph-name="trademark" unicode="&#x2122;" horiz-adv-x="990" 
d="M371 678v-91h-24q-6 27 -20.5 47t-45.5 20h-39v-297q0 -17 1.5 -25t6.5 -12t14.5 -5t26.5 -3v-24h-177v24q17 1 27 3t14.5 6t5.5 12.5t1 23.5v297h-39q-31 0 -45.5 -20.5t-21.5 -46.5h-24v91h339zM542 678l147 -285l154 285h114v-24q-32 -2 -44 -16.5t-12 -38.5v-242
q0 -15 1 -23.5t5.5 -12.5t14.5 -6t28 -3v-24h-175v24q17 1 26.5 3t14 7t5 14t0.5 26v198h-2l-145 -276h-9l-152 297h-2v-211q0 -28 10 -42t42 -16v-24h-136v24q32 2 41 16t9 42v236q0 18 -18 33t-42 15v24h125z" />
    <glyph glyph-name="uni2126" unicode="&#x2126;" horiz-adv-x="751" 
d="M676 379q0 -77 -42 -149t-135 -154h115q15 0 26 3.5t19 11.5t14.5 22.5t13.5 36.5l29 -1l-27 -149h-248l-7 20q11 20 27.5 48.5t36.5 68.5q31 60 47.5 117t16.5 115q0 132 -50 204.5t-138 72.5q-94 0 -139.5 -73t-45.5 -209q0 -38 7 -75t22 -78t38.5 -87.5t57.5 -102.5
l-8 -21h-247l-24 149l27 1q14 -42 29.5 -58t46.5 -16h107q-91 69 -131.5 140t-40.5 155q0 69 22.5 125.5t63 97t96 63t121.5 22.5q67 0 122 -21t94.5 -60t61.5 -94.5t22 -124.5z" />
    <glyph glyph-name="estimated" unicode="&#x212e;" horiz-adv-x="903" 
d="M215 330q-5 0 -5 -5v-176q0 -7 1.5 -15t5.5 -13q38 -48 97.5 -73.5t134.5 -25.5q82 0 140.5 30.5t108.5 77.5h67q-28 -34 -58.5 -59t-67.5 -41.5t-82.5 -24.5t-104.5 -8q-91 0 -162 27t-120 73t-74.5 107t-25.5 128t26 130.5t75 112.5t119.5 78.5t159.5 29.5
q110 0 183.5 -32t117.5 -83t62.5 -114t18.5 -124h-617zM692 535q0 13 -10 25q-24 30 -54.5 49t-62 30.5t-62.5 15.5t-56 4q-57 0 -117 -22.5t-111 -74.5q-9 -9 -9 -26v-181q0 -5 5 -5h472q5 0 5 5v180z" />
    <glyph glyph-name="partialdiff" unicode="&#x2202;" horiz-adv-x="546" 
d="M495 387q0 -86 -18 -158t-52 -124t-83 -81.5t-110 -29.5q-42 0 -77 13.5t-59.5 39t-38.5 62t-14 82.5q0 50 17 93t47.5 75t72 50t89.5 18q35 0 72.5 -16.5t61.5 -50.5q6 48 7.5 76.5t1.5 45.5q0 42 -9 83.5t-27 69.5q-21 33 -52.5 50.5t-63.5 17.5q-42 0 -79 -19.5
t-64 -42.5q-11 0 -23.5 17.5t-12.5 42.5q0 6 2 10q16 10 53 25.5t93 15.5q60 0 102.5 -22.5t74.5 -60.5q45 -54 67 -127t22 -155zM234 27q36 0 63.5 29.5t50.5 77.5q18 38 29.5 85t17.5 97q-15 29 -42.5 49t-59.5 20q-46 0 -75 -24t-46 -59.5t-23.5 -77.5t-6.5 -78
q0 -52 23.5 -85.5t68.5 -33.5z" />
    <glyph glyph-name="product" unicode="&#x220f;" horiz-adv-x="707" 
d="M679 674v-28q-32 -2 -50.5 -5.5t-28 -11t-12 -20t-2.5 -33.5v-558q0 -24 4 -37.5t14.5 -20.5t28 -9.5t44.5 -4.5v-28h-274v28q28 2 44.5 4.5t25 10t11 22t2.5 40.5v584q0 19 -6 25t-27 6h-202q-19 0 -24.5 -5t-5.5 -22v-590q0 -23 1.5 -36.5t9 -21.5t22.5 -11.5t42 -5.5
v-28h-266v28q30 2 48 5.5t27 11.5t12 22.5t3 38.5v552q0 22 -3 34.5t-13 19.5t-28.5 10t-49.5 6v28h653z" />
    <glyph glyph-name="summation" unicode="&#x2211;" horiz-adv-x="568" 
d="M498 674q0 -11 3 -41l10 -125l-29 -6q-9 45 -19 69t-20 40q-12 19 -35 23.5t-69 4.5h-182l182 -308l-225 -333h264q32 0 51 3t32.5 15t25 35.5t27.5 65.5l30 -8l-45 -196h-472v27l225 327l-219 379v28h465z" />
    <glyph glyph-name="minus" unicode="&#x2212;" horiz-adv-x="600" 
d="M527 264v-74h-454v74h454z" />
    <glyph glyph-name="uni2215" unicode="&#x2215;" horiz-adv-x="167" 
d="M334 686l-428 -694h-73l430 694h71z" />
    <glyph glyph-name="uni2219" unicode="&#x2219;" horiz-adv-x="287" 
d="M215 227q0 -30 -21 -51t-51 -21t-51 21t-21 51t21 51t51 21t51 -21t21 -51z" />
    <glyph glyph-name="radical" unicode="&#x221a;" horiz-adv-x="559" 
d="M502 865l42 -10l-170 -1001l-24 -12l-218 532l-88 -41l-12 34l166 77l164 -415h2z" />
    <glyph glyph-name="infinity" unicode="&#x221e;" horiz-adv-x="754" 
d="M382 323q17 19 30.5 34.5t27.5 26.5q32 29 60 39t59 10q30 0 57 -11t47 -31t31.5 -49t11.5 -65q0 -38 -13 -68t-34 -51t-48.5 -32.5t-57.5 -11.5q-45 0 -85.5 25.5t-89.5 86.5q-51 -62 -93 -87t-88 -25q-30 0 -57.5 12t-48 33t-32.5 50t-12 63t11.5 63.5t32.5 51t50 34
t64 12.5q54 0 96.5 -31.5t80.5 -78.5zM205 173q33 0 64.5 22t75.5 75q-19 24 -34 42t-29 30q-25 22 -47 27.5t-36 5.5q-40 0 -65 -28.5t-25 -74.5q0 -45 27.5 -72t68.5 -27zM412 275q27 -33 47.5 -53t37 -31t30.5 -14.5t28 -3.5q19 0 35.5 8t28.5 22t18.5 31.5t6.5 37.5
q0 46 -25 74.5t-67 28.5q-16 0 -36 -7t-48 -33q-11 -10 -26 -26.5t-30 -33.5z" />
    <glyph glyph-name="integral" unicode="&#x222b;" horiz-adv-x="384" 
d="M366 768q0 -24 -15 -36t-33 -12q-13 0 -20 8t-11.5 18t-9.5 18t-13 8q-17 0 -27.5 -29t-10.5 -83v-17.5t1 -34.5l19 -363q1 -19 1.5 -43t0.5 -42q0 -175 -41.5 -266.5t-122.5 -91.5q-28 0 -46.5 14.5t-18.5 38.5q0 22 18 35.5t38 13.5q11 0 17 -9t10.5 -19.5t9.5 -19
t13 -8.5q17 0 25.5 23.5t10.5 52.5q1 11 1 22v21q0 17 -1 44.5t-3.5 76t-6.5 123t-9 185.5q-1 20 -1.5 39.5t-0.5 27.5q0 48 2 84t5.5 65t9.5 52t14 45q20 55 54 81.5t76 26.5q25 0 45 -14t20 -35z" />
    <glyph glyph-name="approxequal" unicode="&#x2248;" horiz-adv-x="546" 
d="M371 357q31 0 52 18.5t42 51.5l40 -37q-23 -42 -56 -69t-76 -27q-31 0 -56.5 11t-48.5 24.5t-45.5 25t-47.5 11.5q-34 0 -55 -21t-41 -50l-41 37q23 42 60 68.5t82 26.5q31 0 56 -11t47.5 -24t43.5 -24t44 -11zM371 183q31 0 52 18.5t42 51.5l40 -37q-23 -42 -56 -69
t-76 -27q-31 0 -56.5 11t-48.5 24.5t-45.5 25t-47.5 11.5q-34 0 -55 -21t-41 -50l-41 37q23 42 60 68.5t82 26.5q31 0 56 -11t47.5 -24t43.5 -24t44 -11z" />
    <glyph glyph-name="notequal" unicode="&#x2260;" horiz-adv-x="546" 
d="M346 511l50 -22l-40 -88h141v-63h-166l-61 -134h227v-62h-252l-51 -113l-50 22l41 91h-137v62h163l60 134h-223v63h248z" />
    <glyph glyph-name="lessequal" unicode="&#x2264;" horiz-adv-x="546" 
d="M495 522l-377 -174v-2l377 -176v-73l-442 216v67l442 215v-73zM498 60v-63h-449v63h449z" />
    <glyph glyph-name="greaterequal" unicode="&#x2265;" horiz-adv-x="546" 
d="M54 595l442 -216v-66l-442 -216v73l377 175v2l-377 175v73zM496 60v-63h-447v63h447z" />
    <glyph glyph-name="lozenge" unicode="&#x25ca;" horiz-adv-x="569" 
d="M321 719l200 -396l-200 -393h-74l-200 393l201 396h73zM119 324l164 -330h3l163 329l-162 329h-4z" />
    </font>
</defs>
</svg>
